<mxfile host="app.diagrams.net" modified="2024-06-19T12:34:08.174Z" agent="Mozilla/5.0 (Windows NT 10.0; Win64; x64) AppleWebKit/537.36 (KHTML, like Gecko) Chrome/121.0.0.0 Safari/537.36" etag="gLJenBdnXkIobPuOef3o" version="24.5.5" type="device">
  <diagram name="PÃ¡gina-1" id="ncN9In7wZn8gk6FyYzE5">
    <mxGraphModel dx="2261" dy="772" grid="1" gridSize="10" guides="1" tooltips="1" connect="1" arrows="1" fold="1" page="1" pageScale="1" pageWidth="827" pageHeight="1169" math="0" shadow="0">
      <root>
        <mxCell id="0" />
        <mxCell id="1" parent="0" />
        <mxCell id="tDLTmUG56y54FWx5RvVN-1" value="" style="rounded=0;whiteSpace=wrap;html=1;fillColor=#a20025;strokeColor=#6F0000;fontColor=#ffffff;" vertex="1" parent="1">
          <mxGeometry x="-60" y="120" width="870" height="500" as="geometry" />
        </mxCell>
        <mxCell id="tDLTmUG56y54FWx5RvVN-2" value="" style="childLayout=tableLayout;recursiveResize=0;shadow=0;fillColor=none;strokeColor=#C0C0C0;" vertex="1" parent="1">
          <mxGeometry x="-60" y="260" width="870" height="360" as="geometry" />
        </mxCell>
        <mxCell id="tDLTmUG56y54FWx5RvVN-3" value="" style="shape=tableRow;horizontal=0;startSize=0;swimlaneHead=0;swimlaneBody=0;top=0;left=0;bottom=0;right=0;dropTarget=0;collapsible=0;recursiveResize=0;expand=0;fontStyle=0;fillColor=none;" vertex="1" parent="tDLTmUG56y54FWx5RvVN-2">
          <mxGeometry width="870" height="121" as="geometry" />
        </mxCell>
        <mxCell id="tDLTmUG56y54FWx5RvVN-4" value="a" style="connectable=0;recursiveResize=0;strokeColor=none;fillColor=none;align=center;whiteSpace=wrap;html=1;" vertex="1" parent="tDLTmUG56y54FWx5RvVN-3">
          <mxGeometry width="290" height="121" as="geometry">
            <mxRectangle width="290" height="121" as="alternateBounds" />
          </mxGeometry>
        </mxCell>
        <mxCell id="tDLTmUG56y54FWx5RvVN-5" value="b" style="connectable=0;recursiveResize=0;strokeColor=none;fillColor=none;align=center;whiteSpace=wrap;html=1;" vertex="1" parent="tDLTmUG56y54FWx5RvVN-3">
          <mxGeometry x="290" width="290" height="121" as="geometry">
            <mxRectangle width="290" height="121" as="alternateBounds" />
          </mxGeometry>
        </mxCell>
        <mxCell id="tDLTmUG56y54FWx5RvVN-6" value="c" style="connectable=0;recursiveResize=0;strokeColor=none;fillColor=none;align=center;whiteSpace=wrap;html=1;" vertex="1" parent="tDLTmUG56y54FWx5RvVN-3">
          <mxGeometry x="580" width="290" height="121" as="geometry">
            <mxRectangle width="290" height="121" as="alternateBounds" />
          </mxGeometry>
        </mxCell>
        <mxCell id="tDLTmUG56y54FWx5RvVN-7" style="shape=tableRow;horizontal=0;startSize=0;swimlaneHead=0;swimlaneBody=0;top=0;left=0;bottom=0;right=0;dropTarget=0;collapsible=0;recursiveResize=0;expand=0;fontStyle=0;fillColor=none;" vertex="1" parent="tDLTmUG56y54FWx5RvVN-2">
          <mxGeometry y="121" width="870" height="118" as="geometry" />
        </mxCell>
        <mxCell id="tDLTmUG56y54FWx5RvVN-8" value="d" style="connectable=0;recursiveResize=0;strokeColor=none;fillColor=none;align=center;whiteSpace=wrap;html=1;" vertex="1" parent="tDLTmUG56y54FWx5RvVN-7">
          <mxGeometry width="290" height="118" as="geometry">
            <mxRectangle width="290" height="118" as="alternateBounds" />
          </mxGeometry>
        </mxCell>
        <mxCell id="tDLTmUG56y54FWx5RvVN-9" value="e" style="connectable=0;recursiveResize=0;strokeColor=none;fillColor=none;align=center;whiteSpace=wrap;html=1;" vertex="1" parent="tDLTmUG56y54FWx5RvVN-7">
          <mxGeometry x="290" width="290" height="118" as="geometry">
            <mxRectangle width="290" height="118" as="alternateBounds" />
          </mxGeometry>
        </mxCell>
        <mxCell id="tDLTmUG56y54FWx5RvVN-10" value="f" style="connectable=0;recursiveResize=0;strokeColor=none;fillColor=none;align=center;whiteSpace=wrap;html=1;" vertex="1" parent="tDLTmUG56y54FWx5RvVN-7">
          <mxGeometry x="580" width="290" height="118" as="geometry">
            <mxRectangle width="290" height="118" as="alternateBounds" />
          </mxGeometry>
        </mxCell>
        <mxCell id="tDLTmUG56y54FWx5RvVN-11" style="shape=tableRow;horizontal=0;startSize=0;swimlaneHead=0;swimlaneBody=0;top=0;left=0;bottom=0;right=0;dropTarget=0;collapsible=0;recursiveResize=0;expand=0;fontStyle=0;fillColor=none;" vertex="1" parent="tDLTmUG56y54FWx5RvVN-2">
          <mxGeometry y="239" width="870" height="121" as="geometry" />
        </mxCell>
        <mxCell id="tDLTmUG56y54FWx5RvVN-12" value="g" style="connectable=0;recursiveResize=0;strokeColor=none;fillColor=none;align=center;whiteSpace=wrap;html=1;" vertex="1" parent="tDLTmUG56y54FWx5RvVN-11">
          <mxGeometry width="290" height="121" as="geometry">
            <mxRectangle width="290" height="121" as="alternateBounds" />
          </mxGeometry>
        </mxCell>
        <mxCell id="tDLTmUG56y54FWx5RvVN-13" value="h" style="connectable=0;recursiveResize=0;strokeColor=none;fillColor=none;align=center;whiteSpace=wrap;html=1;" vertex="1" parent="tDLTmUG56y54FWx5RvVN-11">
          <mxGeometry x="290" width="290" height="121" as="geometry">
            <mxRectangle width="290" height="121" as="alternateBounds" />
          </mxGeometry>
        </mxCell>
        <mxCell id="tDLTmUG56y54FWx5RvVN-14" value="i" style="connectable=0;recursiveResize=0;strokeColor=none;fillColor=none;align=center;whiteSpace=wrap;html=1;" vertex="1" parent="tDLTmUG56y54FWx5RvVN-11">
          <mxGeometry x="580" width="290" height="121" as="geometry">
            <mxRectangle width="290" height="121" as="alternateBounds" />
          </mxGeometry>
        </mxCell>
        <mxCell id="tDLTmUG56y54FWx5RvVN-15" value="Gerenciamento de materia prima" style="text;strokeColor=none;fillColor=none;html=1;fontSize=24;fontStyle=1;verticalAlign=middle;align=center;" vertex="1" parent="1">
          <mxGeometry x="314" y="130" width="100" height="40" as="geometry" />
        </mxCell>
        <mxCell id="tDLTmUG56y54FWx5RvVN-16" value="" style="shape=image;html=1;verticalLabelPosition=bottom;verticalAlign=top;imageAspect=1;aspect=fixed;image=data:image/png,iVBORw0KGgoAAAANSUhEUgAAAioAAAHCCAYAAADBz+LBAAAAAXNSR0IArs4c6QAAIABJREFUeF7svQeUZWWZtn3tfFKdyqGrc9PddKIJDRJEiYLACAhiBAOCiphG1hjGMCqjjmnACENQwFFBRJKCgEowgNhkuunc1bmruvKpk3b8fd59Splv5lu/OJ9QDW+tVauqq885+93X3qfeu55wPwb6QxPQBDQBTUAT0AQ0gSlKwJii69LL0gQ0AU1AE9AENAFNAC1U9E2gCWgCmoAmoAloAlOWgBYqU/bS6IVpApqAJqAJaAKagBYq+h7QBDQBTUAT0AQ0gSlLQAuVKXtp9MI0AU1AE9AENAFNQAsVfQ9oApqAJqAJaAKawJQloIXKlL00emGagCagCWgCmoAmoIWKvgc0AU1AE9AENAFNYMoS0EJlyl4avTBNQBPQBDQBTUAT0EJF3wOagCagCWgCmoAmMGUJaKEyZS+NXpgmoAloApqAJqAJaKGi7wFNQBPQBDQBTUATmLIEtFCZspdGL0wT0AQ0AU1AE9AEtFDR94AmoAloApqAJqAJTFkCWqhM2UujF6YJaAKagCagCWgCWqjoe0AT0AQ0AU1AE9AEpiwBLVSm7KXRC9MENAFNQBPQBDQBLVT0PaAJaAKagCagCWgCU5aAFipT9tLohWkCmoAmoAloApqAFir6HtAENAFNQBPQBDSBKUtAC5Upe2n0wjQBTUAT0AQ0AU1ACxV9D2gCmoAmoAloAprAlCWghcqUvTR6YZqAJqAJaAKagCaghYq+BzQBTUAT0AQ0AU1gyhLQQmXKXhq9ME1AE9AENAFNQBPQQkXfA5qAJqAJaAKagCYwZQlooTJlL41emCagCWgCmoAmoAlooaLvAU1AE9AENAFNQBOYsgS0UJmyl0YvTBPQBDQBTUAT0AS0UNH3gCagCWgCmoAmoAlMWQJaqEzZS6MXpgloApqAJqAJaAJaqOh7QBPQBDQBTUAT0ASmLAEtVKbspdEL0wQ0AU1AE9AENAEtVPQ9oAloApqAJqAJaAJTloAWKlP20uiFaQKagCagCWgCmoAWKvoe0AQ0AU1AE9AENIEpS0ALlSl7afTCNAFNQBPQBDQBTUALFX0PaAKagCagCWgCmsCUJaCFypS9NHphmoAmoAloApqAJqCFir4HNAFNQBPQBDQBTWDKEtBCZcpeGr0wTUAT0AQ0AU1AE9BCRd8DmoAmoAloApqAJjBlCWihMmUvjV6YJqAJaAKagCagCWihou8BTUAT0AQ0AU1AE5iyBLRQmbKXRi9ME9AENAFNQBPQBLRQ0feAJqAJaAKagCagCUxZAlqoTNlLoxemCWgCmoAmoAloAlqo6HtAE9AENAFNQBPQBKYsAS1Upuyl0QvTBDQBTUAT0AQ0AS1U9D2gCWgCmoAmoAloAlOWgBYqU/bS6IVpApqAJqAJaAKagBYq+h7QBDQBTUAT0AQ0gSlLQAuVKXtp9MI0AU1AE9AENAFNQAsVfQ9oApqAJqAJaAKawJQloIXKlL00emGagCagCWgCmoAmoIWKvgc0AU1AE9AENAFNYMoS0EJlyl4avTBNQBPQBDQBTUAT0EJF3wOagCagCWgCmoAmMGUJaKEyZS+NXpgmoAloApqAJqAJaKGi7wFNQBPQBDQBTUATmLIEtFCZspdGL0wT0AQ0AU1AE9AEtFDR94AmoAloApqAJqAJTFkCWqhM2UujF6YJaAKagCagCWgCWqjoe0AT0AQ0AU1AE9AEpiwBLVSm7KXRC9MENAFNQBPQBDQBLVT0PaAJaAKagCagCWgCU5aAFipT9tLohWkCmoAmoAloApqAFir6HtAENAFNQBPQBDSBKUtAC5Upe2n0wjQBTUAT0AQ0AU1ACxV9D2gCmoAmoAloAprAlCWghcqUvTR6YZqAJqAJaAKagCaghYq+BzQBTUAT0AQ0AU1gyhLQQmXKXhq9ME1AE9AENAFNQBPQQkXfA5qAJqAJaAKagCYwZQlooTJlL41emCagCWgCmoAmoAlooaLvAU3gJUwg+Qzmhj/MdzKjNXO4KTC9cmRaxdgwg8QYDxPDyif/7XdEU9lI/oKshdgeS2LHSPyqFYeumbSVnLjWkom3VzdEx9xH+BLGq09dE9AE/h8Q0ELl/wFE/RKawAtN4N6jsbs6l5rF7WMWRbJmxsvHrtPiZcxmHKvJc+wW2/Va3KwlX9uxnTxu1ETOasIKC5hODtuwMB0Py3AwbQ8Lj4gEI05ITKPxFYwYEjM9Zds1iZOYJK4SJXXCqEYUJcRxldjwCYMqUVwnDEthLRj3Q38s9P3RIAxGDd8uUQlKfj0Zif1wPKpXShWqpcjrri9hVWTcSPRCc9XH1wQ0gReegBYqL/w10CvQBP5HAhLteOR2rOau+eZYYSiTt7zWTDbTnWtumpYp5GdaWWOuVbCm21m67Hy+mXy2CdctYOFC4pGEhhIbYCFBENNIRYZ8mI2gSBKD/BYQ4SE/k6+TQkS+GvZ//fez/58YomdrCROeFWv5s5gxGr9m/ntwBqI4xDB8DNsnISJMQsphhUptlGo0Elfru4KJcHulVNlUGqtsqo/VNlWtev/y7/dXjP96NH0XaQKawIuUgBYqL9ILq09rahJIwHhkxQq71PRIMr8+wzGmZdqTvDE9m81My+YzvW7Om2lnM90U3Wl4djf5/DQ8WsiYGRwDTBEa8ioiPEJwAzDkU0SG/Jz0U4kRg5iIWO3opoRGiA2JhMQkKntjYJAlxvqLvpDXkI/JiAmNyMkkTqORyZkULIa8RoyZ2BhJjCniRb1aQxDJweU4sly1bl/9n1qTkWCYAXEcQ5xgJSYWIoxsiEyI5LkO6sGxrfSWit4EUZlaUKFm9LMnGqBCP9XK9vpYZXulMtE3Me73JRPlHX7sVhbcuaE+Ne8EvSpNQBP4awloofLXktKP0wSeA4HkaOzVdGbw6q5ddLJuoWmG05rdN1/M7J/vzO/ntBf3ocmbiZc4SmCYJjgSkQgg8kGiEI4HYZR+L6JENv/J8hDDSp+jBEpAGAfESYJhOximTWRYIkeI5GemSxK7hJGJJXrHkUOGVIOImCIRDrFlkSQJSRgRBXG6DAzKE5LRgTiM1XMsJ8RxLLJuDsOx8YlxHYeclZMwDlZUx6AOtq+WF8UuVmxiiYhJamCUSMwqgZNgWCJQ6tgioxKwEskuiYKRbJNBEhsYlpsKFWEUp+JKiSj1KVxMCOTnEhEyIQ7Ut2rRE8EgI8EGf6C8ptQ//sjEaOXRUq20MTNaHJ1/5wZfR2Seww2tH6oJvIAEtFB5AeHrQ784CKxcscLJNm31TMv1mluczqbW4rJCV9MRtGYPord5P3JWGzkT7ATsECwRHXX8uI7sw4kIEcNr7MMiPCTyYZPEFoZEFmQrl53ctkhMizhOiP2YMIyxRcyYJokIk8SgWo8YLZUYHBllvFRmeGycSjlgdLTG2GiFiVKNiYkyY2MwUYGxEvgx1EIIZFmhiJJUF0hWyA/+co3UMkUqiD5qRG5CJ9UHOQMy8tWFXA7yzeBmoaU5S87J0prJ0tyUoblokmuxcVryZLIm07u6yLkWuUyWrOdgmxa20hym+qzW61iWhWtbKnITh4FaoCELtCRXFGHEEU4sYicmtHwMByzLwA5iqFiQ5CCwoBap86NKHzvrj/nbR/9QGxl+srRn7KndA8nwink767ou5sXxntRn8eIioIXKi+t66rP5OxNYuQKnuastG7dket2W7KKWnrb93GLmoFxrcRlFez5ZERRRWu9hGWB56a6udn6JjkRgy8/T9E0c1cF0ieMMUeyQ4GJaGfzEoeobBKHLWMln19A4gyNjDI2NMzQyxujwMBOlClt27aEkgmMExktQ86EepQEFyaiIqJCvKitkpIdWIkOCEI0sjwQqZP9uxCvUY+QfEsiw5Pnyz8nXaPBVr2GBL48T8SJBocn6FAn22GBKpsYHJwEvTAMd8ljRPnUJhljpzzN2GjxyXPA8yBeg2GySzzm0tRTI5zzaik20tuRpa83R3lGgq6tIsTlLc65A1pJCnJAkrBKRfkJN4kTkYwsCibJY4Ep0JoKyD0EGHBEwAdgeVKI99f7BdeNDex7zR+oPV0bCp4LR8oYl7Klq8fJ3flPpl9cE/n8IaKGibxFN4H8gIPv66qU4uc45ptMWdGRa8wc3z2g9yp7RfiTtTSvIGAaWFJIGqJyHY6lISZxUCKVmRDZGK0OYZNK61thRR0mSCMMwSKQuRN59ps3YhM+egXG2bRtk29Y9bNqyk419JXYMwOAI1APZRxuCQdV2pDu+fJUMkAgNERKTwmMy4iHCQDJHcmRLyj4aAmayjEWqPpTIkM9GRkWeI3oj+B/6bSarVSafL8dXn2aqyUSJyOuFSZqNkZeQY9gxuKLPGscSURTIP+Qj/EtJjbxOLBkdOZ+G+HFFLDVqfyM5Z1mfHMtWASY6m2FGB8zsglkzupi7YAaz5nTTO62V7rYCThTgJCFxXCOIpGYXsp6ntGTg17BdAz+ogR/iSi2N6UDiQs2GmhOzvbw+7K/cNbxp5I7xwfEH59+5oaRTRvpXhibw/BLQQuX55a2PNkUJJGdhrd3ZkQs63JZ8T+6A9umtB+c6c0fY3c2H4tGE7JhSyCqdMxJmUO8c2X2lziIikXSN+qvdJLQsgsikHjqYZgcTJRgaKzMwNM6uPf1s3rqTLdt20z9cYf1mGC9DvZyCUS9tQBinkYc/b87PFhXyGMkkSQ2IBARkI5d/S1kLaYQi70HWho5WKBYgnwPXM/E8h3xTgYyXx7JjmppNXM/Ck2Yhy8B0I2wnUTpLPszYxrZtXNvDMTIYsUcUBwThuGrY8esJURSRBD5+JJ8h1TimHptKrIyOjlOvRQSlOpVSQHkCymUYr0DFB9+HiTqUag1x82cVlOKV85n8JTUZBJJsmKrYSRRucnajtEdUkqSNHMi4UMjBvF6Y3tPC7NldzJzRwbTeDqb1tNNezJB1I+JkhIzlUzBiDAlDSXpIoiyTRcVeFhILIhEvMYzU15YHRh8t7x7/bTRce7K8bXzt2MD00YMfeeRZSbIpepPrZWkCeykBLVT20gunl/2/IyARk76j53hRs9/ZPL3jyI7ZPacwo+NYWp1puCHYVVUQGscVzKwDjk0SGQS+bJA2ceKqvcy1E4LIIEkyxHaG8XpE3+49rHpmE5u37uHRh/sZGoL+PVAJG40ssu81UjNOBmrSl9LIFKl60EbTjIgFFeloNNDIptySh65u6JnTQkd7M3N7Z9NacOnocOhsz9BWyNCSK1DMNZF3M1TLo0qQWEagojnKDsWS+heDMKljGDVsK1EFr1EUEJghpiOPS+1TIt9EenEs28CSzp5Y0ichQVJT3To5tzmt8VVtyjGhGRPaBqHhEGJgmY6yVZETNhHhJhEmlyiK8WODAJtS1WdovMTw+ATDIyV29Q/Tv2OQkcEye3aPURqpKX6jFZCeIZWmEiElzUAhaTNUI32lojoi9OQCi65MM1Qq4KXqbiXV5MK8ObBwvsW+i6exdN9Z7L/PXNo9DyeIVa2N4Uj6LqCeTKQRMgniJAauFPwGRrqQuqSVmqrsKj9e3dx/68jWwbuNcmVt7+07K/+7u1M/WxPQBJ5NQAsVfT+8ZAisP2l+MdvGkkxv0yFts5uPMbrzx9BktaS5EflTXKpIG+2+UvAqdSSupVImNV829hyW3YFhFylXLUpln6eeWUPf9t08s3oHazaOsWMIRqtQqaflELJRPrtjWDZY2TBVbWwj9SHNPoU8FFugvROm93rMmdFJV1sTba1FWpsKTOtopbM5T9EzMe0E35GCWzD9RG3CtlXHSEQJyeYtKkh2W4mOBKpmQ4keyyQIbXwJdZiO6v4xAx/bjLFksXFIZDvEtomfhARBSNZpUjt/HIfK5sSK47TQ1bYwDZfqRIRj2FiGiSE1N3aoPOJUE7MhLcc+BhFmIx0WGzkkVyYRKNVlZEpnUkykcj6SQxJZZKpynig0ccwMYZxQD2qMVsv0j4ywbfcwW7aXGByqMtg/xMhQyEA/DAxBqQqhkXY3S9pL1eao7qM/N0ynkavJVFejsarowZxumD99GvNnT2f5ktnMX9BJb6+LbZZxjAqeEZCR85EwltwUoiBDKb6xQQRcZMO4v8vvn/jD0PaxB4LdwQObNvQ8ccx992l33pfMbxl9on8PAlqo/D2o6tecMgRGzlg8Ozu9+TRvzrSzmd5yCE0JODWwpYW2Dl6AbK1KNiTiJyI+HpZqzRXfkVqYYHsFaoHL5m1DPPr4JlY+so4nnqqxdWe6IYoakTeS1HVM1mZIhkgEhBSSNmxC1GOyOZjWC/su6GHujB72nz+D3p4meme0ki86xKYcN8BLQow4UJ8OARki7Lj+59blmt1EaHiNIlbViKyYx9gY6hwcEiMmscR2pKbqYsLYZGS0zNDwuIqqtDc30y0pEKOCQ5p7CowWKonD8ESZ8VKV0qhEE9LqWtOKsc1EdeEkpodpONhKVliq40Y6cAJTPFrETyXBo8a8aVlcq4xpBkSGQzUpEpIlUcJG1IKvvsqrqM7rhhdLKnxEIEk4SXxXQhXZSINNNrGkociQJB5RKJIvT9232bF7mA2bdvDkM1tYu34r6zaMMjia1vlMdjDXRY+KyHPSyIsEfJS3nUp1pdk9adASMTNrJixfbHP0Ecs5ZPl8ZnYWyFhyLUSg1IntijLgTX1gwIkdjEiqjN30c8wssW3kzoEN/T8eHNp+19Ib90xMmTeHXogmsJcQ0EJlL7lQepnPncDuE7rz3W979Q7a682SxsFJW0/isIaZkRBDrNIfYeJgWEXCuIkgKTJRtVm/dZD1fbtZtW4T6zdtY+2GOsOjqRiZtDNTPiGNwk9Jy8hLigVKUwZmdUNnOyyYk2HunGlM6+lg/r7zaO1sE7MRnKxJUquQlyhCVJUdjnoS4duSGhFfkgx+paoiFa4RkbND4to4loQG3Hae3mEwXHMYGRmhXKkyOlJh9+AQ9dhPO4PGxpiohoyOhtR9g/GxRNWGSE2IsmVpBJDecHIzn7zoTbR6g5iWx87RDj5/6Q/5xb17qNbToJLUy8jGrjZ0kXR2Q5BF4DVSVVLUK8YkkfjgSiSpDq0W/OCbh3PE/tOJoxqx1czq7RY/vfsh1m3ZgpfL0pTJkXMdirksxUyG5nyetuY8LS1N5Jss1eGTyTp4AljEW1Qj48QYSQXbEh8Y6ZySCEwW6VwuFjxq1aoSUYnhUg9NxiZqbNs9xpZtg2zaOsKm7TtZv6XEjh1QGk9recYb4qXeSCEJI0nBqQYtA9wYJAM4rROW7tvMQQcuZe7cTpYd0EvWqVKUuhijjuUL5FpaVyOgJPIinV/VAHwL+id+s2fdjrsqe8r31vr9pxbdNlh67ne2foYm8NIioIXKS+t6v6TOdssps1pnXXDkMM2jhFaNQNpE7GYwXJWWqQUBXq6F4dE669f389vfr+Lhh7ezeRuMTEC1Ybsx2WkiEX7JEEk6QQSJ2otk85oGByzrZL+FM9h/wSyWLZiOm9To7s5TD0ZVCiaKpZYlwXFzjE5M4OazOKaFURe9lGB6BmU/YVN/iTVr+uhb18fubYN4LhzxskW86uhltObEhiVkaNzh5WfcyJD8IS9REMlSiZ+JDZUaONm0TXnS60TEiXy4rksQ+upxsv5iTgWU+PRFh3D2GfsQJxaXXPE437h6lTKCFW+VRk2tOo4laSs5nhIuFqbtKBM3Ob6ktFQpjTxB2o5jaE3g1itOZsXiVpU6Gi7nOO1t32PVDgicVOw4cSoGRN9IVEM84CaLZuX1MjnIZGFGNyyYmWHR7F7mz8zxmpOXUqsNENpZgsijKdtJWK9jRiN4lo8pCagowBDhZ7iEsU0Qu8RmK4npUI0rVGsJA9sCHn1kE0+s2sjja3exdQDGamnHkupCatQHyS9KqYVR7dqN2hcRZ8WiRFzghFfuz1EvW87c7qJKExFXMcX0LpMwUR3DshOyUusT52DMB7MFBsIxVg3/eMeqnR+fcfOaoZfUm1OfrCbwHAhoofIcYOmH7l0EVETlwpcPx62jbpw3qFg51u8w6R9NeGrNZtZv3M3jT+9hyxaojDdSNWYadZDNUv6Ilz+Kq7KvGNDeCtN6YPYsWL5kHov2ncns6a1Mn95BvVIm77hqwzWDOp7rMFYZJ87ZRJZDRIZ63aU+4TAxYbBuww42bdnNju0D9O8ZYceuYbbvhqFK2tks7bOTtS0StfiHV8MlXzgXszbMaDXHwaf8kIFaWliaz0OlDLkMhNXU00QVkJoGQZyk3UFSSCrpDSet15BjhHVwEzhif7jhu28km8/xunOu4YGVMTXxPsl6xNU62WwqgGRBkhJRQaBGG7Ns3ipo4KZrkYiEiLdMCIU6/OSygzhs+QzCxOX3Tw7x+vfei4QQjAyoFEyjPXmyu2eyBVrc8yWDImUfcjFE+NiBJHhgbhvcccubwKswUG3n7Hd+l+Y8zJ3hse9cj3PfchIu4+QzBnUxjGu8qERejCin3Htj2yeIA7JOhtC3iKM8keGye6ifDVu2M1iK+fX9j7N2A+wZhcGxlJ+KyElpSsMwWDgr7zlJ69kwbzocduAsjjhkXxbO62T69Cy2UyXjBRhRBTeIMGs+hhQV+1kYb6Vy16OvyV/56M/2rneXXq0m8PwR0ELl+WOtj/Q8E9h2+IzsjIsO2sassD2wI37/9Dbe+5HV9A1CXepKXJDRNZLeEGMyKXBVliiNTce1YcVBeQ49bAmHH7qU3u4msl6A54SqODTwy7hSeCrpiIyM4kmwyiXMOMFwPCIjy4iZ50e338vDKzezaSPs2gzlerqpi1iQzViEkHyIOKqro9u4Mj9HNSjHeNL1bMEdPzmVBZ0WtbiFV77+e2wcSEWCCAlJe8gzW7PQ5Ii/iNRSuMyYOY2WjjytXRmaOlvYMTDKN7/zgPJVqfuo116+L9x41emqdfmEM2/kmT5Ui3UcRRx35GIOOWgBuSaXMJwgqY5Tq09g5zJiPYIp7cpBgudklCiqJQGOHZOJyjSzh7e9ZikdLRax08wVP3yQT13Sh7TETNq0ZAW4uOFORikabdiCRMxkxYZG/t+TaEYtFSqzm+F3976LalJi1Y4CJ51+JU05qE7A3Glw1+3n05ypUB7bpez9HelqkheJpAVZDPhEbAUERqJceQ1T5ji2UqtXVEGzXM+JiRA3001CB1t3jvLYM+t5aOXTPPzYMBv6UpGllORkxEXWJ6VBIrxEWInQ/VPqa8E+cNwxszj88OUs2qeLZi8kJ/MXJ4awojxU2xm88eGjO7/31P3P89tDH04T2GsIaKGy11wqvdDnSmDV0qXukk/MeZreZEHNjtjQb3HcmXcgjl1V5SIGxQRkLyy4sGQ+HLC0nYXzujhg6RzmzetN59aImyxSF5FgRglGIi270oKbIXQ6GK/61KIxWvMRuWAATzqFSiG+3cOHvnQjN95Zo94o1pRjTbqziumZmpjX8D/JZXOMVQJV4Sluq1JIKhGKYiEgrMHVXz+GUw7pUWmDA159meowyjswa7rJ179+IW3FKp5Ro7PQjBM1YUS26qypRHW1KSeZZn7/yDbe84ErVUu0lOlK4e7BS+CWa85QNvVnnnsjv39chErq0/KVf7mAgw5cQC5vkcQVrHqVMKgqoVKPYiI/pinbhBM5VKsV3IJFNmdiRRO0ZauYlfVkMgkVo5mvXH43l149qMIPEol5zzuP5bADOgjrA0yUhhkfKzMqrdzDFQZGRxmuVtk+CONjUJcwjNT/AMvmwvevORM7Z/KH1XD2uTfiNzxXDjkArr78PArOGElYUt1FliHt2T62crxr9HwTUDazPLqpzh8e30Zv5wKWL5tLa+sArjWm+DsiN2p51VadOHUSy6UWZdk5VGbVhi1s2LyTx57YzJoNsHlr2hYtDrtRmArHdNZR4/pa0NMJBy+Gt7z2ZRxzyExyUgQz5LH5xof2n3fd5ief6/2tH68JvFQIaKHyUrnSL8HzVAN7rzr+fhZmjozMhMF6Fwce9z1GMagaBaDEB96ynFOO3IdF86dTzMW4VgWicWwzolorYUo6J1MgjD2C0MIy8srkbO2aTTzy5GYe+MMGHluV4BTgZQfAJZ8+kzwVXLeJZzb7HHvOLQxLx7OTUR4cZlhVwkhaPwKpd/EaTvuSWpGogg1tbdDbWWTV6nEC8ULxa6po9TtfOoEzjpxGGDic+s6rWLU57aZeNN/l8ssuwrEGqZV2Mz4wxNigT3nCZ3SsxFi5otp6dw75bNkFazeK9b2tpiY7Zp0zT+rm6596paqZee151/PQKqiIgHMhG6dFwhOSUjIg3/iNMVnDItEcv5KmkCQ4Ig1Hcg7HvsLhw+97I7O7qrhewrCf4V++9GN+dFugokCtGbj/rs/QltmJzR5VsGqoVyiqTh6pMgmSmMSNKVdDJoZtdm4bZHjHbjxrmJNPmgdehp//Zpz3X/SLtE4HOGQ5XPmtt5F3hpShWyjzkuIIM65gS55JXGeVa3BC2Wjjujs28vHPPkpBDGlDOPU0+MynTscOQkZ2j9NTXEjGdTGscfy4SpBYKnUUGTF+FON5zUzUHNZuGuXXDzzBr+57mnUbG3OTxHJGzPxFtMiYAKDJgHe8sYOPve8kmv0SlPPJmu/9at7i63f3vQTfovqUNYG/ioAWKn8VJv2gvZVA/bIjb3RXdL4uDisM17s57LjrGIhl1kwGx65x9/ffzIHzXSwzIvbLGElMEEd4uWZCI0vZz7B+2zCPr97JU6u3s2b9DjZvrjAynLa2TlrOy0gZ2WaPXQ7f/dbb1PC8p/sqvOrcW5QvmGQepL6jHegqgiWuqQugvctl3sweFk2bRU9HOz3TO8kVcwS+wVe+/iO+e/MAUs4gEZCPX7iCj7z1cCWU3vLha/jVw+W0jsVKBwFOTIgBXfoXvSu1KPKXfcM/RIpt1cxBqa2Q+pTAw3MMmt0a3//WeRznC4XTAAAgAElEQVS/PKJaqfP+z93FDfcMYRZTB1lP6k8a83mk1kMZ8Tb+rYYak6aPPOmWESsW6SiSn5kwpwdu/eHbcZwJ4mwXF33icm6+I82VLOiFn//kAzR727GTERV6iGVacuSpCIZ4vohfSygt2ZaNaeZIDIegVidJqmSzPmNhnlsemOADH7lHrUHSLsccCj+48v0ktQ1YSRnHaVKRKTW5WYCIwkpMfMtkwurhkuse45JvPq3Eo6z7rNfB5z57IRNjPq8/80oFbZ/57aw4dBb7LZvN7OldtDc75NwaVlIi8cdx3Rx+lFNOxFLJPF6ps/LxJ/jNH1fz4KMyjwmGx9JUkNQevf8dC/jI+44iWx7A9JuqD3/7tpmH3lzSxbR76y8Zve6/OwEtVP7uiPUBXkgCA1848JudR895X8QYY2EPrzrjh6wflAG6INZjd1z7Kg5YKH9OS5+IR2y1sm3nGCsffYYHHnqahx6HwQko+Q1H1EYxpepQkVoWacsN0yF7OQeKPtx03anst2Qmf1y9k9e8+2YkmyOKojMPP/jaG1i2oJ1CsVl1g2S8Mq54pVQTnDgmyYRU/TrZQjuXXHEHF1+2Bwm2SLHqeW9cwsUXHo2ZmJzzj9fyy4dLyvFdPF8tYlUvUxNl8qwPNQtocqCPbJTi2ioZEIk0JJGaenzlV87kjMPyyvht5WaPt1xwNf3VtI7EETd5eb1GEa5stCJYVBuv/PZoiDARKvI437RUJMRKElo8+NYXXsaJxx1A6U8eJ+e/7zv85mEp8k3N1X758/fiRZvwzDEsQ1xvTQxROiJY1CCj9DMRjxaZkSTToxPxcTGUi27ZmM43frSBL39rZTpKIIHTTujk3z9/Hma0Bc+qEYZiTBfhmunMHzOWlmaDwLKpmL3885d/xY03b1JTooXFBy6cx1vefCJhnOeoY75KedIYvzE5ui0PyxbAK46YxcH7zeSgJbNxRCGZEqkRa7uEWGqLLJ/YLhCYs7jtF+u46BM3Ku5Su3LxR1/OOafPpykYg1FvdPX3fz1T+6u8kL8l9LGnOgEtVKb6FdLr+18RGPrUoZ9uO2HOZ+Okn3G7l5Pf+kMe3ZBuwlKYeeO3j+TQ/dtxMx184+rbufnXA6ztS/86lynEylLUSY1epZ1WdmOp3RBfDTFblQiGpHCk5iUOoCOGSz93DCcdP5+NO8Z59ZtvYFSCAsCrXp7j2q+8SaUlosQmkdoXs4QVJWTDljRE49YJiYnsHDfdtZEPfuZxhmSztOD8Ny7gsxccSlM2x7s/dhO33jOkREzezatokER0JvfVyUiPWn4mjYJIB5NEHmRTFjt6CSFIyuWIZXDbFedi+wNE7nTW9A3xg5tvZeuugLHRVIBIF44Uicp5yw/EM0WYyM8lZZIFVWS6vfqXuhuJqnzpn5ZwzhlHU6nCuy78Dr99Ir2cyxfALde/nyxbsONRkihUdT+2YSsPFBJxexWzF5sorGM5EgmRfmxRTgI/phLP5KvX9vHlKx5UPi9S8tFegBUH9LB43yL77zebmXNm0NNeoDmbkDOrmNV+Mq5JzY+J3Dl84BM385O7d6TC1YWLP7Q/b33ziWzaNs6rX3s5Ew0TP9V1Le3ZkwMThUcM09vgiINbOOiAfTjqqEPoaCtiGePqGidxhE8Pt92znvd//B51z4k4/sbnj+a1x80iIwOe+gv9fd+5f87c+/rkUuoPTUAT+B8IaKGib4sXNYHBjx58YftJC7+FtYtxt5vT3n292iylpVSEyuWfW8YZJ69gvGbzD2+6mid3ylw6kywG0lQsXl0SpJBiTeWb0QQL58Bhy5ezaOG+LFy2mLVbd3P+h69Qm1jrn/6YvvgjL+e1p+6jvFgOefV1BJLMMGPVBvyjb55Ja2aYQMIRpoGbS6iVqmT9JrCyasbQRL2CnevgN4+VeO27fkVVPFizCS8/0OTHl74V27T40Gfu5Mc/25l2xkRw+tFzmd7l0tnZRr7JxbVMWltydHc3Y5g+Ta0enudRzHVRqhZ48/n/yupNNVWu0dMM991wJjNaI6p+c+o14hUZGJ0gky8qt15xlU2FioRw0kLiyIwx7Hoazym5XHbVLXznhvuZkHqRQkb1NH/xHxfytjOOxraLnPa6r/LUltTzpasVfnXHxyjQj2uUMNU4aBXqUV8MifgYhkr/iCF/GJWxjAjHFufeSIkE35rLxy99lMt/+GQ6pLAR4BEhqeYPNQb9dLZCT1vaETSny2Lh/Jl0dc+gpXMJn/zXH/LQqgkqYthnwlWfewUnH7eCP67ZxevPvYGydIRNToB+lq+KFBsrN9tGa7KkdSRytXAfWLHE5owT5nLEiqVESQs/vOUJPvrlx9QaRdBdcenxnHx4JxlRb1sL6zdc/9B+C+7coOqq9YcmoAn8dwJaqOi74kVNYNv79z9jxulLbyI7wITTxVv/6TbuuH9CBS9k0/jyPy3kDa99OYlV4ISzvsm6gbR9ONcQMjkLli6Co46ezuGH78/suTPJZQqY9Tx+nGEkMrn11yv59Jd+gpRTdBnwra+eyStfWWDrQJlXnP4TlT6QFuh53fDQrW+l1e5XIR2ZNFynjmvZZJJCukk7NWTmneF08sDKUd50wV2MN1JHJx1pce1XzsZMHL565ZNc+t2HkbII2dh/evVpHLK0E8cQm3tDFZBKR48yQZPNPklwsxnKlTqhO5sLPvJ9fvngbsbrUMzA3defxOxOm4ceGuGyK3/LhESLis1U6jViQ1IaWczYxEZmCknax1FCRRzrwlodq+Kxs7/GWGITWg6hFA3/ycjtix+azzve+CpqocWJp32L9XvSlFFLK/zzh0/m6INm0+xFFLIZPMkJqZlDgUrXmGZIFFfwsjHV2rCa6uxYBkEgM4csxuNe3v+5O7j110Mq+qUETlrP+2fjONUGLoolifGkfVjCGo3py+L3Ih6AMr1amoEyMdxztaTtern1wY289+P3KD8ZSSkt6ILDD5zLutWbVbGsqIrJWh056KR/jKiRggmXfWYprzl+BaHv8Y2rfsFXvr9NPUeGcP/4ujM5fDEUShVYl3ts9S/XHLb0xlWNJvUX9dtRn5wm8DcR0ELlb8Kmn7S3ENh03sJXzH3DQQ+QH6LsdvLhL97PtTftUH/dykb6iXfP4R1veRVuvsj5//g1bn8wjaAcMr/Ih9/9Jl62/ywKbgXXruBHdcbLFbZsG+CJP27m8VVbWLO1whppTXXSzTEXwi9uPI9pvYOEbgsHnHANA6Np2qDFhafueRfZeDtNbhbDsghsQ2YMqzYbMSdzW7IYbo6du6vcdPtTfPbSJ9INzoKzX9vJly86SU0M/o8fbeTfvvM7ao26kzu+fxwrFmWplcbIOjYZ2yQUF1qZopPJUx+v4TU14Yc1RqMOPvm1B7juJ1vVBi2b50O/eD3T2z2uuupRvvbtVeqYk5uxbMiN/T0dpNj4t6RbJJ0knUf5hqGcL3N4CFWqq2DBty4+hFOOX0HZh1POupw1u9L6IHlAzk6N4WQgYEsRmuWzWYz1HNrbmigUHZqLWab3ttFczNDT3UzOiWhpydDekqd/zOXcj93InQ9UVIRMBjt2d6Rpu7H+NGomGk+iYdImrLJH8jP5bERdZClKxySQi+GJ295CT6fHlbc9xSe/9kc18Vo8XN5ywnw+9/ELiMNhRsfHWLtxN398fB2rn9nBqvVDjElNTwyB1LoA13z1YI49fIlKMH7s4mu49hdVxVNs+O+69e3sO61EUSYoPmbeb3zwZ0fvLe8nvU5N4IUgoIXKC0FdH/N5I7D27XMWLXzDoc9QHGXCaeWLVz3Fv1+xSgkV2XTf84YOPvnRt1MLfD528Tf5wd2Jqsk4aLHLD6/8JlF5kB1b+nj4D4/xwIOPsGpDwlj5WRORVaVpWssixZj/cBhc+qXzKDbtYrjm8fLTf8rG/rSYtq0Ad//43cxsj8gYlqqTqNkWQWgSlCL6B8ZYs3Unjz+9kfXrdrPyiYiamaUW1vGcmNOPh6v+9WysxOY7//kUF1/6CBMSGbLh5quPY//5CUXXwrYSQr+E7Tn41Qg300xSF1v9OkYmpux0c8GnbuHn9/qqviSTwC9vPZ1prXmuu+4ZLrnsUVX7IhurnJfUoSg7WlWukxbrqo6fRl2IpLyk9VYe4Vhp8aqIKWlB/vkN59DRGmN6TZzaEColsYppuP46jSiIQFflL8JTakEaPi6ikKRQV0pTpAanxYa3nt3Mee84GqfQy+vOu4aHnqgqcSlr+OePLOb8t53IxNAEG9b2sb5vJ5u29fP0qiG2bIPBQahJlkkyU41CYSmJkfW2ebDqtjdRzFr829Ur+fer1ygOUgD7+uOX8ZmPvR03N0aUDCt7fBE+TmJRr4X0bd3Nb377CH98ZBfrV8Pllx7EosX7EHtdnHPht/nlylQgiSHfA3eeT29+mOaJGB6s/sT46C/Oet7eEPpAmsBeSEALlb3woukl//UEnnnt9PZF5x45SNsoJbvIVbfs4JNf/L14hymh8oYTs3zl8xcCFf7tW9dx2U8mqEp7bwzHHzmTdU9tozyWzs5RG7PbKKqN0kiEFULeho4eOOGoGXzwnBPpKkxguYNMhC2cfM5NPNaXzg2SwtVzzpjN7B6XwT17GBoeZece2DMEowOpRbukfcR3Qx7rq4hAhmwuIvIDPvmBWfzj2YcTVANuv2+AD3/qt0pMSK3EL3/8Gvabm2AnVUiqqq5DUj7KmySSicoZcBySaIyy0cx7Pn0rd96bKpGuAtz0/ROZ09vN1d97kMu+t55S3LCvf/awn0YNyKS3v/Dwa9DSBFUxZBObeyddz/LFBue99SSOO2I6UTCsJlDf99Bm3vPhBxiZdOZtCIRJkaKEirRXSwao4foqr+UlJpk4h8uEEg0fOn8R5593CHUyHHPmlazfLtfSIWMG/Otn5/O6U5bg+pLq8YgSqX5x8ANLtQ+Pjpps2DbCpt3jrFy9i5/c/rSaaSTiaGYbPPbjN9LkWHzwi7/i+7fvVi66cp+I0VynTL6eAwcf2snSJTOZN6uThbOmYyYhTbkmKhWfKPZUK7Rl7CZbyDMSdvCaN3+bpzanEZfpLfDAz95Lq7WHYsUkvm/oMuszv3zvX39H60dqAi89AlqovPSu+UvqjDcfPScz54OHVukYYcJt4qf3lnjfx+5WFvpSYnHyIXDZJe8jm61w9fV38LFLdquOFknjSD2DbFISKZBP6ZaV2hZJFcxoT4tqX/3KpRx+6L70zmqmmDOIBgcpqCcFBHTz+guv494nYyakdTVJVGuumKTVyullkA1ZtIAcS4IJk0WhIi0scb8lJuelLb3XfPsYjjmgjSgIueehft530UOq00VapH90+VGsWNICxoRy03UyFmHVx0w8TMlLye4vRmXjQ1gt3eyecNlTSmjK57CicWa2BAS1MobXqURKxQqIHem4MdLnJ65qGZbWaGl3MgxJ4MS4ThPVSqAcYJua8qlJnhGTs0Q41HCSEQwrJKiFBHELw+Od3H3fk6zr62PthkH2SKt4FcbE+0wGDP8pHSeOvVKsqoSLNEbJeIBG1EZs+j72oQM5++zlVM0Mh57yH2zfI+BssoRc/e3DOPGI6WRrsXK/jQMZDii5HSnCtTGMAn5sU0lcHl4jxcrXKzEiF3jZbPjtdW9TqZ43ffBH3P2on/5fkhq1SfmMElGNydNS89LVCYccOI0Vy2dxwjGH0lqwac77GNFWyrWQCWMWJ5x6OTtH0mu8pBfuuvH95OJ+MnWX2t3bLs5++f5Pv6TelPpkNYHnSEALlecITD987yKw6qyl7pI3Lh+ka6Sp7OW46/c1zv3QHaq2QzaOVy6CG6/9MKaxk5/ds5ILPr2BkkpHeLgEyp8k70LvNNhv2TSW77eQJfv2su+MIt1tLjZl6sEQsTlOxjGx6+IhklqSSmvq5755P9+6vg/RJZElEY5YiQuZCyPpBhEp0sYrm6AIIdUB3UhjyFDEad1w4PIuTj1lGUcfNpt80o/tOmzsT1j55Fa62uYwrSXP3C5xkB3FcGpERlWldFwxX4lF8kjSxCQuVzCLzaobp266xK6ncipG6JOR0IVEXOo+FaOG2RxTj0M17deIpePHxpRwh/I3STCMsurUkXXbtks9irBcGz+okHFszNggCaTfqaJmFhmGDXYL9VIezCbMTE4VwEpCp+pblEoGpYrP0MQ4A6ND9I/tZKxcZnS4TrkUMzEYMtq/m9hPOP+dB3PcsXMoxw4rTvwR47V0VpMIxJv+83gO2CdDVqZIq9afWlpkIiYmgYS1JCZjUyPHA09P8Lr33k2p0XZ+xBKTX13xdtW+c9xbr+GPfRDIwwNYPD3D+EiN4UYtiqTb1PDKxm9QKbqWuUXzeuGowy0++uEziEnYNdbGsadcgdTNShHyijlw2w8+iBftxPFdKrf1XZD/xu8u37veVXq1msDzS0ALleeXtz7a80xACZVTF25in2D6hGHydF+Rk9/0n1RU3QUs6pKagY/ihlt56NHNnHXBQ/hksEiYN83hwves4ID9Csyd0YGFj0zgzdoGrrT4BFUS2yS2QnxrjDAJsBMT17bVBl72m1m/I8/rzvkxoxKAkEiBeIM1BIkUVpphGi3JODBtGixdkmXJotksWzCdfWb10lIsqNZmz6wqJ1SiURVlqTqtJKaHGyZ4YoamYjE1YquiunEsXOVH4suoIqnkNaRoV1JVIo1iQisitiTKYGGGDnYgkRdTRQwip4bvVklMg7icIecUcCybekXm3diYVkxYHycrUZswJjET9VqhEZDgKzFmJU7abRT7WGaIIT9PTIwwQ2yYqkZFjOoSqeaNPSWmpCHckB5wEUBGoMzTpCdcHidhDGlXttV5SvFsiWqS4aNfuJ31W2HzujTl9PObjmb+dBcv8ojrFbDryvxEXlvUoXQ/1SID0+vkupuf4MOfX60KZsVC/+j9PG7699cr87b9T7uaTSWpZTGJqjH333QRXcUqK5/4HX/44xM8+gfo25pGwNR4JinObojPI1fAD644lygqs2W3xSln/pBRSecBxyyHH/zH+8gmOzDLMHT9htd2XP3ULc/z20IfThPYqwhoobJXXS692OdKYOUKnBUXnv44C/wlZcehb3c7x5/5XUakoBLYtwd+8ZMPkWMz/XsMXnn6LVTV9OKQt77uZXzqIy+jyd2KHVeJA1+51xpRiB3V0kKSxCGyDGInIDIjVQwqTqqySZtWC+MTbfzhj9u593fr2dQ3pOoWens66Wz3KDa5qW1+TxvTulsoNptYVp0knMCMy7hmQhKk6RZbIhqyYlNyIZKaccVNBDeWQYni3mqqotfQiVNzttAiCk0yuSLVIKQc+YRhiFE3CYM6VX+MeuBTqYWEVYu4ahIHlooQBNSoGKOqDdisZbFjmyjwU1+TTEbs6LDNgKznYBkmpm1heKYyZ5UWYs92cOwMluWQz+dxXJOsl+DahjJ1U+EmS8SICCoLGfGozkECHqEMf4wxZeKxKY60IYYZkxgxhoTAJJojM4AQIeMROe34UZHyhM3o8A7mzZL80TBu7GEpZ766eo0odAhCkT6hqpeJrFYuu+4BPv/t3VRkinQCZx7VxlVffB2lSsDCE77HoGhZA2Z0G/zk8o+yaJZF3d+BZTpUK0VK4wZrN27hiVWbePyZPlY/M0RlHF59jMU3v/g2grDOY+siXvfW61U6TYIzJx4G3/vmu/HYhjVuMXDt+iO6r1vz4HO9r/XjNYGXEgEtVF5KV/sleK5KqJx36n0s9o+oZT32lKfzilO+w25JFxjQasPvf/l+OnLb2TMcc/CJt6bCI0w469Wz+NpnX0Uu3oodJjiSGnGzBGEFMxFfDzHkkDoOi8iwsDOuii4EQY0klOGGFp7Zium0smd4guaObqIkxvd9iXdgWQmRWcGwVeyAWlDDD+s4rq0mGcvsG9doIvIdorqnUkpiNS/bdDkOKIcRe4arjJcDhoZL9I+MMTA+xuDwOKWBMpWJGjsHKoxXYU8Vqn7aupv276QdNvJXvggESRVJakI52oovSKNlNyu1IVKf0XBTk5oN1TElWkMCHmlDU5qyanw/+TOJHEn3juNANgOZLBRy0oaco9iSI18Qg7o8He0FZvb2MqOzk45igULWJesaeOL3H9cxrQDTrJNQU3N+pFhYZjOJDpHaF0vNAWrC9STqs4Oc5MxiT51YbNXFTUY9xjYlhCUK1WKwFHHZNXdz+Q2xSstIWdE5Z8zhCx99DbtGS+x38jXUZMCikycul5ldgAMWdHDs0Ys46qiD6e5px459nKRMFFTItbdQKo+yY1sf9Yl+lu47jVpc5L5HE97x/huo4JC1As46AS794pvw2ENm1GPHZc/sO+OGTetegm9NfcqawF9NQAuVvxqVfuDeSGDV0qXuknfPvYVlwUn1Jo+JcC5Hnfx11o+mQqUgrbm3nMuCGWPKnfaw026gfzytS3jZMrj1e+cqgzZLmW+EBKZEUALMeKxRaJtLB90ZDomRKAO3OA7wbAvLkdHCNnHVJ3EcrKY8A0N7KDa14UVZqjWf0PGpJxGWncGwPWphQqlaZ2DPELt27WFg9xjliYjRQZ/RwRLjwzWGh2FwBOXdURKrf9l7pUtHoiHS2vsnozVPhEcjahRKPUVjKKEUpoogkQ+piVHBDeMvHiNy3pFEhSRTIiJDhI3UklhQDlEOroZjKZES+hGW4apISyLpJ1E7/+VDYkBp21D6iyZEmr/le1MKUmWt8lUKikX0RGnRbMaDYh7yOejuEmFj0NPVSk9PC9N7WpnW0648VdqaMhJTIeNI/EukhkRoZFhgSCQpLzsitmuq+FcKgsUEj9AniiIyTa2s21piVV/Ijt1Vtm3bwQHLZnHcK2azdms/p77rXkalNawxlNETj5xnFVbPmg2L93U5cMlsli2ZxYKFc1QLecYQA78ajlUhsKdx7c/6uehf7qAWe2TNOuefmeUzH/0HbGOU/GiGvq8+NW3uHX2798b3ll6zJvB8EdBC5fkirY/zghBIzsLiZa+6nkPs1wU5iyr7cOKZX+exbalQaRGn0O+ew4olAb6V5eBTv4dsG46XTv/95fVvp9PZiVevEPtVcHLYXiY1GZFeYtl2pVBUVIGkfmxfva6kXaK6ScZsIZQi1FyWUhRSMwyyXgul3QHjpYj12/vZtG2A9Zt2sKlvF1u2B4yMN1qTZeOWdl/ZxBtiRAICau5MY2afTG2WyIjqGlKOtukG35GDYhZai+AVIN9mUyhkaPZsctks+VwBL5tTnTpexsTLRipCZJPDtB2sjI3rulj1RHX2hGGOq39wN9+7dYOq6ZBiYxnuJ2kgtUAlfuQnqZOaqoiR1JUyRmkUnYrhSvow9Xj1y6cR3pHzevaHqexl0xpYCazI+SrXOREOjUiQzC1aOBu6e3L0zJjGvHm9HLR0LjO6W2nyPPKFhFqwG88NMIMALwlxHIOkUsJQveU5SFoJQ5NSfZRMLsZxKzyyaiuf+spanl4P5Uo6Q0h1MEsmSWY7BenP5LJHUq/sQ0cWXnlgnhMOW8BrTtyPQtMgFcPjshs38m9ffwo/MMjGCR95+ww+9K5jMa0xMsMOfV9a2Tr3vr7RF+TNoQ+qCewlBLRQ2UsulF7m30ZA7YcXH30lr8i9088a1JjNW971He55Mo1A5GO47N9ezasO88g1t/Oqc77LyrXpptTswmO/fAOt9h68UFo8IiLLIU5srCCHaeZVekZCA1I3Ie3HsnEltosfeNSrNv3bh9m1Z4Q1WzezYdcOdg9V2CQb4C5UoavU2IpNu2zhk4MEZT9Wha9iKOamwqO1TT4tOtub6Wov0tPaTLGQpVAs0tyUp7u1meaWAnbWwzYTsmaMawTkXIs4qeOL41scYIV+KnIsG8OSYlapFfGJrTKG2O+rYYkmQRKqlmPPdEniDLWgwOe+9lOu+OkIsZ1T9R6yzkSMZOQ7qcJVDdV2qllka5dIxuT05mdfPnG0bSSMpNtZ1fWI0FKmchKyEdEnn//HNRdVFqVFwdLRI+MCJPrjSK2wNDbJemqpQOvthK4umDOvyOyZrczqamduj/iezMazI/x4lIxnE9UiXNdR6aWaP4LplDEz7ewptVGqFVmzehur127lsTWbeeqZMQYH0mnZcu9IK7VEq+SEsxFkY2gGrrzklRz1ym5Kccy//sfvueK6XRLIEScbvvCBxZz7+kMwrQrOkF175F/WFw9+5JHJWZJ/202un6UJvMgJaKHyIr/A+vQg+OfDvmqf0HZRPSMtt7P50Kev5fp7a0ogNP3JQv4LHzuCd50+h7he5z0fv4kn1sKKA01OPnYpJ718GhmzAomnOlB8z1JdI0aQw7AK+IYkHzxqEwl9W/p5eNUGVj65kbUbxxjaA6WxVITUGv4bagKvTFmW7T2GuqRpCtDZArN7YdHcZhbO7WXWzF4lSGbN6MGQ1iArJDRCVeMiAQzHMNVGne7rEU6YqJRGzQxV4amUadiWoephVBGsYeOYjupKEiEgHUpRFOBJV02SEKqW41i52qr/V+kcKeZNMKwcgdHKxV+/nUt+MKxam1UYQeVw/lwbqzprEhVpEeXgk5j1xqTjSeWVOroZQYKTpCkg6WD6SzBFSm1lGGGSRmpUouhZRTBKiaTluGlCSQYE2ERShWJGShRJZEkiLYJMoh6in0TwSU2N1Oe0Z2DBghxLDpzB8uVzWbqgl+6WPO3ZDDYVonAnpusTOVmqlZCiXaAsxT1OntBw2bV9iJVPruWu3z3NE2tgcAhq9bSOR/xsnABuu/7tLJ4XUzdsLvr8zVx/24gy85PZUt/45H688ZRlxHEFd7e9hzNv6m40gem3qiagCfxfCGihom+NFz2B6kUrPpn5h96L69kAP+nmX752K1fdOqqm/EonxkXnLeYT79wfhxLbh5uxvHaKRQcrHCcTDmPLxN44TyWxGZJP71EAACAASURBVDdMdg6Ps35dH33bBnhyzVa2bovZ0QcT5XTmj2gBNV9G3GtFF1jgZUEsTPaZmWX+zG7mtBeZO6eHrpmdtHY205yz8Yw6ObOKHUshbi3t+lFDdiJiMyBRxbcSfjCw5CDS8WNJ10+kfEuk4EO1HKvi11h9yqRlZXYmZm3Slis7t2koQzXDTLD8oFEoIgb0Ijpq6bRiZYUvkaKEKMkyEWb52lX38pVrh/Cl1VfU1uSHDO5TakOiKWlKSLpyZGBhozjlL4+VNmNM1Yws30nvjkiVNE7yXz/kJaV+RcTZ5IdIExFesi5pW46ViRvElhTZprU2Er0QTKoNXP7dcAWW4YKTqkgYSbRKAjHTO1LH2P327WThPi0sWNTNnH16aSo4eGGEKzOZ4gjbtqmVq5hegYkkS5Bk2LljhA3rtvHE0xt56vEtlAbgthvfhx3vxM53csEnbuCnvxpVsitnwhWf35/Tj51P7Ac4O4w1vPHWpbL8F/2bUJ+gJvC/IKCFyv8Cnn7q3kGg9v6D3+29dtbltUKVIMlxyVX38uUrhxE7MtlWzz9rKf/y4eV41gCh0UY9kr99mzHIUR4t8cy6bfx25RpWPr2ZjVtD+sfSabniUKtqKxpeKBItkU3Rc2GfWbDvfJdFi3vZb8kcFsztpTVrkU0kWlDFzltUajVcI6O8Q5SoEG+TcAzb8PE88QEJMJMssSm2cyGBUVObq7QZR9WEfDZHFEuKJlLRFNO0sb0s5YkqWU+KfBPMWJqYZZGTe6EUuEorcxpZscV1TiIXEkFRXm5pREX9v3KilYiFR81o4eJv3M43fzRKTZnI/dfC2TRLI8Ih/U7O8s/HnGwLatwuIlEmszrPjqc897tp0jNY+qDS8/uffqFNdiP9n5kkebArNv7icWKmkRj5XhB0dMCMaXDckYs5+ICF7L90HoVMRFIfwzJCLMsgimUEY4AlQiZxCPxEta57VoJn1SjTxesv/E/ufyxQ5UxuAj+/6kiOXNaGFTsEayoPOnfe+QrjRqVj9IcmoAn8XwhooaJvjRc9gdK7Djir8PoFP642lYitDFf+4EE+fWk/fuLhUOfU4/bhy589mZZCmd0jVTZtHeaRR/u4/761bNyQzt6pSMNInKYT1BZspn+Ry9S6thaYOxsO3G8Ohx6ylGWLZ9HZmqYSPNcnrI3ghjUy0tIiz47rBG5IPYqxIhfPyqiIh2x+SeQrd1fphsG0VVttpRrgup5KAUmLbhxGZNxCWlwaS0wiwnSl68ikNFEmn2vGjC2SULpyGkpKciLKsl/EhIQapEFaIg+SwonSn6v618bQQZVcMZWHS0SWitnCxV+/jW//aEQJFashVBp1sXvvPfTs34ANQTWZ0RITPlUqE0JnEVbsB8e8Yj9edtBiZk1rp5CVDNiIct6VtnRHOQ+HEEqltU/VnMkJZ1/DyvXp3CQvgnuvO5ZD9sli+A7hmurPnrhy8Axdo7L33j565c8PAS1Unh/O+igvIIHBty4+vv3spfdUmyfAzXDTneu48JOrlbeF6QT0tMNJL1/Als0beHR1wpjYr2fT7g5VE9ooxcg50F2AeTNgyeJu5sxuZ9n+s+iZVqCzNa+G0xn1UPl7iJlZFKStsjkpkpAiBQsqpUGyzfnUmVVSSvIXuXirjIfkJD+UaYJ6QGwnGI64qMqAOxMnEiv7hLA2ht3cAiU/VU6Sz3BNNWPHdi2cfBNhzVdCRUIDUu8h8Y1I1a5MXgRb2eKLCEmFSkJsGMRG8lcLlcmIinrNxmTlF/AS/22HFhO5xtBF1Zz059CLyjf9uTNJ9KXM9RFdKs7CkiSbOV2iZjkOX7Efi/edwb4Le2hultqbIWxjAtuqU056OPS0/2RTf9qNlfHh4ZtOY3FnCGKwt2rsWusfH3j737Z4/SxN4KVDQAuVl861fsme6c6z9lkx7d0rVtYL48SOx71/HOKNF/yWspinuaHyTGmVaIOYvrpQ+//YOwt4K+r8/b+nT9wOGgVFRbEbY+0WCxVb7MLEdu2uFUWwWxFXLNJY27XFtTtQysuFW6em//v5noO7bvzWv+uK4MzrdV/cy517ZuaZmTPP+Xyez/NIirFYojtQm4ZBy9tsstFqDF5zIMv1kNFXDTN2MY08odkKcVc5PC+SoV0TXVo1Yh8fxxiaRdBVxEzXEhdctIY6wjiklC9g2UJTusjKU1DygXIuYWig22kKEi0Yh2SqLULPJc55VIljmhALX8xNZNxExmcMIjePLqMucUDgFZWWQjxOTCulpnrE30URFV2kq1I1MdFDB0PpRYTAxITKVEVqKOL8Kl0fqbroyvY+0P6hoqIyfyqtnyXgHUSqV6qOtLA7JuxFmEXZZlhNNUldSU1LCeoVUiMcR86CTDrX1Ah5FVfagWyy0Sr0aK6ho5Ri/R3H0Fose9bURPDBlH3pne1QhjThX+aPMU/984jf7I2ZHHiCwI9EYAl4m/mRR5qs9ptF4Nudlh3Q59h1PvZrOoxAM3n784Dt951GpyT6iMOpATU+pGLo2QMGrWKx+hrdWWWlvqzQvz8pU1NeI5YeYvgeUSDqFmnVeBhGR+WjeE3ZJc1ziYIikalhOjZh0cPI1Ku8mNDIssDX8UKN4oJWmutSVFfLaIqLpZxfZZRYwzccPL2a1naXl1+cTr7tOw7YfTOsKFeedknpFL086dp6wpyHkUqR72zDskWS6mOJ/Wu+pIZ4RUgjbarQcJXFv5SIlCV/kFVpyLL8PVExpArz/aiNlH1+SFSuv78NV1VQKm5yi/FVtbBStpCjyMSRaov9o9JFAfI3YqbkPYKATBJVqjCK28gpjKDGgRX7Gyw9YCUeeOI9xStl6W7De48fQrM5Dwomna/MurD27NeS5OTF+BpKdv2XQSAhKr8MzslWFiEC3+zUt1ffYwZ/EdUXU1Kl+LIlw+92mcACeW7b4okScMQuA9lv140YNLAnJguIo5mkHRdNyivymVqECpWKgzySYs3AkJaJJ+nAUn2oKqtrDXEok0/iAWEYo2sOJc8mTjezoGBw5ehbeeH5mGW6wfVX7kCP5hS5rvlUV9Xj+jqhWcN3811uuO1BHn7EV2PLV12yMWuv2oiliXYlJYbwlHQT1w/J6g6hWyBbY+MWFuCkTKJ8To0jq3ldqZGI07/hE8t8rrQ7xDAttFW1pExUxBek/Fbwj0RFVVRIU9TrOH/0Y1x/f3uZqCycxFlo3LYIz+9/s2lLs1SFS406y6i2EDuZmFLlFSGjRuX3wkoiYsVOyltcmID9Pa8TxhuGagxa2kSymiteNZGENMKAJnjtscOpZRa4Nt8988UJPS5699r/Zv+Tv00Q+C0gkBCV38JZ/o0f4xdbLlO7zPFrzKTZq3IJmVtoZL3t76FV8n7QWaaHztQ7T2Spxi6iUiuOUcAwfaJ8F7olxull4w55oKuRWPVgD5W1rUO1yo4R67YgKuCKd4ghbqrSHnHQjHrmF9LcOP557p3wDe3z4HfrwrUX7U5zdQkzyGPV1tPeEeLGzTz+zNeMuvZPtMyHagsuvmBVtt16efzSHDLVVXTmLSKjiekfLWDSxCd4/w2Xgf3g0ot2pi4TqjaQaVhlAxHpaYhxm+x3ZYpHHsiacpMti2gXHk/Z1eT/Iio1nD96Etfd347/9xUV5WvyT/M0i80Vpwsx+cH48992XWaTyoSlMlGka2o0OgjLpFXaPvIlS6kcGamWlOFghhY+crXJ3/rK7G3NZeDxew8mHXwDcSacOfXD4X0v//zexQasZEcTBBYRAglRWUTAJ5v95RCYPaRXpudB68ykV1QfajGtfnfW2e425nTJWKpNtekx/cmjaHBmkDU9Yt9Fk36JnS67eakwGvEykU/HQlR05ciqxQZGUI0WRmh6CRyx4RcX2BAtlLZLI11uEyPPuZVpL4NYlmywKtx87Qk0WLNJ0YYZ++R9Gz89gLMuuYcJj3YpEafQowvP2pFddmzGSX+HKySINKWwF5deOY7xE4rKkXXwanDz6EMww/lUm756PU0JZkz8MECTT/lSL5Csm4rmpGzGVlKaFTEaEeL1b4lKVG79FPV/T1T+2UL2lzu3//2WpEKiYVQ0RVL9KNOuchNIFmkJiWvLQiKycJvye4mIlMVTbUQZ55aWmEQRCDURR5qiaihlgQ1WcXjolgNx3K+FxHqzHn13tz6jZkz5748heYUEgSUbgYSoLNnnNzk6QBGV/dd+j77xMuJH0k5vthh2Kx/IB1s0UlrMy5N3ZbneOVCtHAMrzqqqxMLqQ2C6ZZ+R0FEaD2XzrhoG4pkfE7oljCqHUCtSCsVX1WFBVz0nnvEQL78NOR+qHJg8bh/6NXbRXGfidbZiptK0+Y2cO+oZ7nnoOyT7UEzoDtypJxeeMoysPZdS1ErRMmktVHHqmRP48ysQ+rDi8nDbDXvRVFOgTloUhRymFqDZMYERkfddHDurZqkzUQotiIh8D90ReWhJVX6EUKnMnkpRxIx+qFERMuaGFmGqiQuun8w1d7fiiSBDed5XLq/FeOrn+5GuhVM/CwMbK0nSf7uBFnrELHzLXFhB0TFNgyASczvRLpVDHDVSKuU61FxMCXj0YM+t+3LjhUPI5GeA7xRmT3hrq963zHg5uUkTBBIE/m8EEqKSXCFLPAJfbdov1e+gFV9hGX312Azp1Puw3f638tbnIoiU9k3MMw9vw6D+AZrvYWoWRig+JTq6Jh4ZPqFRVNb0emSr0V9FYERiKfb1qRRRsYRuWfhBQCG0sOuX4eRz72L8Y64K8ZO6xiVnbsuBQ5qpTc0jykk5J0PJbuTa25/hyptb6BInWwd6VcPUOw+lX2Me/HmEpkE+24fLR0/mxlu+Iysf1l0hKbszeN00WauN3Lx2Gpq6ExTyFOMAzzExUtWUijEpMYIr5LHCIk6NDYUOIlMvTzfL5NP/SVTKGpVcnOXiG6Zx/X1tuIZNHIg1f2UoZnG+gv5eO7uQrCyc7PmH45I22d+qR5W3Tpm+kgkoscI1YjQ/VN+W04ikYOWr/pDpwUG79i/84fRtM1X52VB0OmeMe3H9fvfM+Whxhi/Z9wSBXwKBhKj8Eign21ikCHwwaJC94rHNT2grpjfFislbvRh6xF288E5IScLkNJh4+2asv3IGU9xGNR0jlLJDJSZQ9/AtmaIJMMSVtfKpWyosbhhiWZbyTgldGUeuJjL7cufkjzjtsqdpq5CU3TapZ9R5B1CrfUpKa0M+ZodGd558s4MjT3uKOXkIpOVjwnUXbMMeG3Sn2mkDcoRmNya9UuDAEZMwbQg92GF9uOaS4VRnO4n9NjIyuoxBXqatjRr+/O5MXn3zMz79cDb5NthiXTjqkB2wtTbVGtKyPXC7pH1UFokqJ9qK+X35QSs29eXxZMxqFrgWl46dxtjxHRSV6CVW5Gtxt1Qtk4+Fy792t/2b/8zfDQQtrLwsJGuiS9INYk+cgAXJFJFgq3uKpYr3yokHLdt1+mEbVdeX2qAzteCTO59ZZeD41tmL9OZINp4gsBggkBCVxeAkJbv43yNQGrXhw86aDbtiuuSNXhx0+iNMer5D+bA5Gtx7zfpsvWF3lbNjSuUklJybciJwpIcEhkukB5hSZVEP8Mq0jKEr+3rb0vFLMTZNtOSb2XyvsXzeBp4OdSl4aOxQNhzo4MSt4OcgVUN70JN9jr2LVz6I6ChCyoZVloWHbj+entocdK+NyHBoKTaz+R538F0XBOUP6Ey5a1fWWSVD6Lbi2DalUkys1zNjXsAlV9/Ps6+WiY+lw9AdM5x98u6kmIcedZKyTFzPwTSlOiR6leBvREW1PCoztypPSEO3a+nwHS4bO4Xr7mmXYs73tYUfGun/9+fpl30Faef8/fLDn74nKH//Lrnw+79rESlaZ2hEYawGvkzdpCTCHzVeJdUWSP3V8uaiU9ZoH77ToLpGPw/tmbnvXvunAas9+V3+lz3mZGsJAosfAglRWfzOWbLHPwGB9svWurV2wz6HoBXIGT05/tKnGDdpTrmKAVx/wSoM3X5ZjHgBmlZUW5AR3zhKqdFdGe+Vz8lmaGJGQlbKCTpSShFH1ygoEWERRnXcev+b/P66meXE5Bi2GJzhgT8MI+N/STqbVW5ynUGaVz8qsvcxU2krQdo00YKAC05fkSP33YiU14pfEleU5TjmtDE8NT1HPlQ2Law6ACbfNwLD/5SqjOT82BS87rz06nf8/rxpzO8qz6lIteP0U5dl3z3Xx/BbaMhaGDgEXQWiOMS25fiEakQEyrO/PLr8PQsTC/1QU2JaT6/l8rFTueau+QSagU2Ep3KLpAm2uE79iHC2zDiEV8jy99WT78Wz//JdspJ5HMWqoqYiGgNxGS6PJQeCiaidIxE3I7Nh3HDptvkdBvfI1kpJbEHmm+dG37rsZs/9Q2jST7i2kz9JEFjSEUiIypJ+hpPjUwi0nLPyJc1bL3cGcY4uoxvnjn2Tsfd+Uk61Ff3Iyf05ZNgaaBWiIo6thuEQBY56iPnyyVioiJAUybpRFvU6oR4RaQGWpVH0bUp6H7YZehufzYPOQrmVc+Ep63P40N44/rcQpfDiWly7L0eeejOTXwlw/RRWVKLOhMcfGUZTdRuNtbW4Xi0vve5x1Ml30+KWLcfk9bbdfAXGXrU3uF9i6S4lL80Tz8/ilDOfwovANhzC0OW4I9fk6EPWJg6/oL7KoqutHUerwtJTWFZI4BXK7Qo1bq0rDc5ColKeAtKxJLHI1QmtBi4bM4XR97SJR6uiQdIckzicCk1ZLN9L/rnx8zeNsCIu/3D//KviSnk4vaxDEv8UIS2eXC2GhitW/KCmfsbdsne03vK2Xhe6MNf5UNvnrkHJ7ZkgkCDwnxFYLN9c/vNhJWskCPwQgW9OGXBM3yGDrkfPkTd7cMVdH3HFjdNVCrJM2ZxzRDPHHbwZNl1qxBc1cizRuuJHEuKbMtVRbv1okQmR/JX6LE4YFjGqLPJBHc+/D/sc+jBupYvQAEy4ayjrDhIL9lb8wMSNuzOjtYnNhoxhQeVhWBXDZqtr3HP7CDSthVLgkAsaGX70aN54P1C2/mLxX2Xb9F+qmsHrdqexOiRjmnTlDW69/11VcQljDUeL2WXzWi4/dz+aHWk1zUPTI2WtLxYgZipFkOtSJGXhIhWVf0lUNIuiqxPZjVw46lFuGNepHsKCzJo9ezzRO1/oqPI9oTUqvaii4vheovrv/OAq9Yif4zL9Ry7xr17z366j3gArI08Lh5ciMfitLFI5qwQKqLqRDHuVNTxlDhNEPnoqFbslDyvlRJofxJ6h0ZVNhe/OW/C7VugprTJJ1n5swsEM7O3S7ObhG97Q9n103Z8DgOQ1EgSWdAQSorKkn+Hk+BQCX49YeujSu645AauA63TjmvGfcsF1r1EUjcpfJasn79/AaUduQ0bPY4gKIxCNQeX2kNaOzJdKk0ONckg1RZ7JZRIjT6+SWyLMDODwc6by2FPziEMbK/ZYsQmenngcGeML/LAFI11HLujOnRO+4YI/vECHOOiHZXv1Yw/ejGFDV+XDj99i2nOv8fTLPjNaysm7ok0pj5GUhZny0DQ1sLRyNpEYjmGmIC6oT/ZTxx3DqktDJpxBTcoj8rxy9pDjUCqVMHUNU+ZmA6kpaZXWT5l4SVlloa+KFpuEUUoRlfOufJibxndIZSeWwIBDf7fl2he+8Ke3k0vsnxG46fC1rIl3vTN1uhtsWZBzZcOTUw6jX2OOhlwOvgyf1IZP3SbBLkEgQeA/I5AQlf+MUbLGEoDAZ8P7bDpg742fJdWFl27ixomfcMZlr1CU8OEIjtillktO2xM7noWpFYnk47Wh48e+Ep3Gga70B7ryDwmIDTFKi4gCFyuVxS3pdLI06+90I3M6hdMYpMKQYZs4XHvxQVjG14RaB7GTpd3vyemXPseDk78lJzwhhqwFq620FLNnfENnDopCTCwUkfqBqFOqOWH0fSqNfPZXglZR4qpQmXIGz+rLGZw7cigbrGpS77RjSHChaeIXQwzHVtUT0akYYgmvHFgrxnBKo1JmRGUjOIOALEFcxyXXTmTsOJlEgm7AiA03HHjCn//8yRJwefxPDmE7ePtNWF3Uso018OTEQ+iZ7aJW5tXfKT2oHTd1z//JhpMXTRBYwhBIiMoSdkKTw/nXCHy271IrDdhvkw9Id+Fl6rjvma84/pznVbtEAgH326qKa84/kFQ8A8so4EtqrqkRiSOtPLdLFpY4jop1vhbiG+Wyf8o08NwY0+nOM293sMeIp+jwlaUGtX/lOheOGMTh+w1G11oJY4+OIM1XrWmGHX4vs+fLeHN5f4UbpG0Dz5MWkYGu65RCX4UkV2QO5RWj8ms7wqMMHS+KlB+KkBrl7K4bSBizzF33qIPjD1uOXbddmT6NMbidaEoAC64fkM2mCQNXtTJECKzybpSdfDlxWYhKpEnWzUKiMomx4xaovkgv4NTBa6140CtvfZxcc/8aga3hs+kwIK9D7yZ46pHD6WZ1kJGL7vX8zdpp045IsEsQSBD4zwgkROU/Y5SssQQg8PFOTb1WOGL7WWQ6KaWrePztDg44fhIFFdAHO64Dt19zAqn4GxyriO+X0FPSVpHEYp1UXFuWSgbFcrvHDFUrRYssQrFYqerG9fe/xu9v+JqcJ72agCoNJt+9Kyv117HFOVav44tvLUacNob3ZkJRuklSyBCvFdGLSIghpkQeyryNFHRwI1eJISQATzpR0npSUYOV5F5p/QiRkWghN1iY8WupWRyxHBNvuAP2XIqTjt2MmrTkGBUxwhBdS+EXXQyrMvXy/09UwlMHr7VyQlT+9c0xdbvtnEumTZv7IdSVDFiuD0x76Bhq4xYyOZ3o2ZZLjQuePXMJuLWSQ0gQ+J8jkBCV/znEyQZ+DQh8tGt148DhO7dSk6PgZHjja40hB95HXrVzYJMV4KHbTiEdfY1t5fC8IqaYX1g+gedjx9UQ6ER+UVU5IitAl28CyfSpoius5sQL7+OuJ0TeIrrSmGor5sUpI/EKXzFt2rNMf6eNv7wD4pxRKg/ViAGHEqmIZkQYR9Ysd3AWylwdC7p1g759bHr2aKRnt1q6NdRSnbLRtVCZ0y1oz/FdS54ZM9v4+JNWZomuRcS3FR4ktZIDDmhi5HE7YoWzqTJ9wi4Pu6qKOCwpIvQTKioJUfk/LuxHNt207qLnnmv5CqyCBmsNhEfuO4asN5dM0SQ3acbx1X949bpfw72R7EOCwK8dgYSo/NrPULJ/PwsCn23XUDPg0G1baCg4ecvmkwXVbLbbbXSVnc9ZvS88+eCpVIVfYmkd+IGP5RjEEjJYLOFo4oQhw7iijIzxgoIKKwxcMZntRoml2OXAUbzymQhbQbIA66s1Bq/VmxdfmImehg7JG1StHp1USsMtharuIUqQmlRAUI7fUXqGddeBnXdYn1UG9aMqI9M+FpYWqdaMrYtzbowfegSGhm6k8H0Dw67Gi2Le/XAGj0x7ialPtFEoQMmD7F+d8089YXX232st0lELltuFZpRbPCpB+SdUVE5af/1VDnv11cQC/l9coQ9tsMHSF7388hdfgyGjy5uuA/fdeCSO10LWdVhw/4d7Nd70zgM/y8WdvEiCwBKOQEJUlvATnBxeGYF3tu6eXfWgTb+iu9dccCy+KTSw8Y430uaXuceARnhu4gnU699iRW2E4pdixUS6Sxz4mHoVsR8TG7byESkGAamqrKqqFApp2grd2WT7K5gfQF70rCJxqXjMi8dbh7AXmTCy6gncAiauIiVqckeHnt1h8Lo92WHrtVht5V6kzLzSyti6i20EmJLe+1dDOD2SLJnKRFIc42kRdqYarxDhui5m2gQrTSGsptOt4/4/vs7dd79BIQd11XDjNTuw1sr1GO5sTMtHhf3+RKJyynrrrXrwa699mFxj/4zAHeusvvrVb/zl7VkVj5VdtoQxlx1GyptHxsvQcvfbW3W//aM/JdglCCQI/GcEEqLynzFK1lgCEHhzSK/MWkM3fIc+/oBSlU2L28TGO45lblf54LpXwQuTjqR3pgUrbENKIGEcEpBX/imObhMEJma2GT/O0rogIFNTh+vl0K0GXp3ewvCj70ZGUcU2PwzFlVSGfMW/pDKQg4mJRUbTMOOCEsSutQocsPdqbLn5hjhmiFdcQMqKSNkapUInpi5qlbIRm/LCFTGv+LxoAaFK51XJd1g4aNI+kkyiWJKTDVytBjuzFHNadM4/72aefyFg311tTj95b6rsVsKgDUsMPuKfVlE5cZ11Vjv8jTc+WAIuj5/9EK5bY8Utx7790VNzKgZwBw7NcNHpe5IN2nGK2XjmbW+t1ve+j9/72TecvGCCwBKIQEJUlsCTmhzSPyOgiMqOg59n2XDtsMahNWxkkyFj+bq1vG6tDS9MPpRlatuwIkk2zhL4JbRUiSguIabxpdDB1box/d3veOjBF/hyhssyA6vZePNtefrZ93l48kfkfXEm1TGsFIEvM8ZCVpShOimZ1ImgyoShuwxiyFaDWH+1KixtPqFoX7SItGPjFnI4EjIo4zyikhUfflkMUdMKPQmUG67qWcU6vhuQstKSikgcFNGEAWk6PgaFwMFI9aJYaOKP46cw8ZHPuPOOfWhsyEHUgR5FKrvop7R+Rq699uqHvvnm+8n19s8IXL7SCvve/OEn984ra6U5Zt86zjp+CGm/Ezufzs28ZfrAvg9+KgWXZEkQSBD4DwgkRCW5RH4TCMwe0ivTc9PVH2WN1FZhtcF8r45dDryFdz5Xz3qq/lrdmHT//qzSyyUdd6CZGaLYw9fbMTM6odjIm934el6WfYffycxZ5Swd6ehIVUOmb4RXOGSQOR0RsgYExOJmq8WKnEhK8y7b13DsETvTt4dBUJxHRpKa40B4hbKeFW2tXyxhZauJSzLnbBCrGMLydsT/JNCEqJStb83YVHzFiP2yY6oY0Uk/R5Oe/J8T4QAAIABJREFUVoAfyYi1g2ZI9cfk1VfexvPzbLb5KsovRo+FqPxkMe0aB73yVlIV+Bd30NnLL3PS3Z9+ebU4D8uZ+v2Ivhy1z2CqhPTmsvPevfqZ/kkg4W/irSc5yJ8BgYSo/AwgJi/x60cgPg+d9HbjWDM9LKzR6Izr2Peo23jh7TLhkAGfCXftxfoDYtK0o+s2PiUiI0+gxWhaPQu6arjlwbe5/qZP1GSO1Evky7R1PC8ia1UR+CE2Oi75MvnQoF8P2HWLFRk2ZEMG9LeJwm9BayElI8dBBj0sJzCbtoGWzuB3dCi7e00z8L0Q3bQwdDGYAz8SAW45FtnSTULhMlGEppX9UHSx9lembWL5H5arMKZBoSuHaYkguBrP90nXgFtqxxYxbkJUfvYL+ORll75o3BczzuqQ6tpf238XjezH8D3WJBO4GG3pb7QhE5b+2TeavGCCwBKKQEJUltATmxzWPyMQn7/VjQyuOiKojSn8lXgcd/odPPxMmWzI7M2t1+7AdutWUaXNU54lXuxiV1m0tvuknQG05pvYetjVytZeSEgQlhOHHccm74kpilQ2RIcSkKkuG7DtOQROOmw3lq+uw5DoYzsm77Zg1Hn4kYsT2t9H94ZS3VB2ahFOysYvFLEsu8ykKg6yajZa09WPviT36la5uiLERH12l4qKVk7xjcErlbBrqqEk6hkD0nVEXgkvLOGkTCUUluWntH5OHbxWUlH5Nzfa0X17jH7w27kj8ugqaXrUeSsybLuBpGRMbJb2gbbnlJWTezRBIEHgxyGQEJUfh1Oy1hKAQHj6ZlfoW9SfEtQEuFod51zxELdOyEuyj2quXHbOhgzfvg9ZbbZq2UjlohiGZKv6UejqwVmXPMBtk1uUYFacY6NIHu8icY0RviEJyuIglzZgnXU1Tj1xV9ZYMYVd+I5ayRmWpMLIIE7p5KwcphNjBRp6JBqR8piwLEHoKV8VXUaHfRdTqiJCMpRprKxjgWEjpEUmgcTWNhTtiibjxuUTpYeG0p7oUl6RESRhXnFA6Et7STKKDHTTIIp+OlFJNCr//qbYr1vDnVNbFhxYkFF0Iu64ei2236gXtv9XG+TP3Re14X/63RJwSyWHkCDwiyCQEJVfBOZkI78GBNyTNjjN3qH3ZWHWpUiGa299litu/U7pTGwLTj5iFU4+cGVS0QyVNqxaLaGJYffli090tt7rPoppmO+W547FTFa+UxE7lTupNoJ9hvbignMPIPS/wdTaqSLAkXwXCTO0M8R6TAmPwC9iex5OVsov4s0SY6czal66WMhh2+JYK38XQBQoDxZNc0C3iSKDMJSKihAQvWx1r0fEutCuslZFWjqmEeHlC9hOlXK2i/08miUmdWkiqaaolMXoJ1VUEqLy76/qXeuqHn62PbdrSc1j+TxyyyZsuHIWO9YI3+uaaB7xws6/hnsi2YcEgcUBgYSoLA5nKdnHnwWB/FHrHprZo98tYbZAKUpxzyPvcdoVnyCGXE4KDthtKa44aRNSwQw1/isVCyOVZcF8k7+8lWP4yGdpkZwcS0Z6hTUovqL8UoLYwAxDlq2ByQ8cQWN1J6bZThS7pG0dTcIAhWSYteRLgSIVdbUpCDsJO0W8m0W3qujMuRi2g2FoaHpA4HdhiY+KLiPK0uKx0KTdE1lEgQh1y9ComEKpwOieMnETa39VnfFdLEPD1KXFJNUXX1VdQhm1Nk0iyi2rn9L6ScaT//1luW3a/NOfi8EWIQ42Ln8avz2rLCX6JZPC6613Zk947aCf5aJOXiRB4DeAQEJUfgMnOTnEMgJtB6+6U92+KzwWZAv4WprJz3/L4ae/Rlck7rKw05a13Hr+7lSFs9XcjpCFgl/EsBr57FOPPQ6ZzIwARWxUl0ZIiqapyoZu6ZhBxMn79eWMo3bAjr/DMPLoKZ3OQo6a2ma62nxMe2ne++BLnnpyGttvtx4rD8wSxgV0o5GIGgqejWFkmT59Oi//+VX2GLoFTfUpGmR+OvZwSwWlTzEtB8u0iH3ZGyFNMmFUrgItrKgQW5hiiatpeKVOJa61MyK2jfH9chqizBT9VKKSGL79+ztrE4M33wpZS4hKGpdXJ+1O/8ZOzMik7YVvr2g4873TkvsyQSBB4MchkBCVH4dTstYSgMD8A1YZ3HDACi97mU40u4Zn32hhrxEv0CnPbB223jDNuKsOpCqahYGMDIu2I8ILbWK9mQemvMEdk97noy9R1vRqQriSqeNrsHR3ePiGvVi61qWqziTqaCVI2QRmmo68zSuvf87td0znow9hn93htJH7gDYTO2WT9xspBnW8+tpn3HTTM7TOgpEj+rDbjluIDy6B7hGqVMI0QRDR2d5GV9scVli2h/q9aGrKizAoyRqSLws/1FXKcixhhIYmWYlqwsi2TdX6kQhEWT+ORZSrq3FlOTBJWZYl1AQJSU+u5+LrJjN6XKvaQh8IT1577UGHvPnmJ0vApfGzH8Jg+OJtWCbWLLK6z1tP7kvfTAuGZzP/6S/ObLrg40t/9o0mL5ggsIQikBCVJfTEJof1zwi0Dl1+YOMRK30UNxTxAo1PZ6fYdOijdMp4rg7rrqTz6M3DabJmo4Uig5Rf2Mo2vyjGarENTi2up/Hph9/w/vszmPzE58yaBz2XgmOP3oANBvWg1gqhJNoSHd9OMavT5twrJzHl8U5Vv1hlWbjnlgNoyMzHsUoUggzz3f5ccPm9PDZtARkDTjuymcN235SUKQ5yBfxMigVBFS+8NZ/rxjzB7K/g1ONqGb7bejhmkSDWVZUl9kPcooeTqiLWxGouINJ9dE3VgdDCKjQR2SoPFdnHsp5FhrJDTSfWA4w4RJfSTEWHG1m15Lw6Lr9xGlffN1cGl+gL8cjBg5c/9JVXPk+utX9GYB34bjp0E++bbjXw1hMH0p3ZWIUM30356LAeV396a4JbgkCCwI9DICEqPw6nZK0lAIFZOy/bt9eIVb+O6rp0yfL5el41Gwx5iPaywSsr9odn7juceutrtKATQ6oNURrMFIEe4IVlrxLbTBH7aUquSWg04hER6O3U1+qYfgG3q4OM4VAMHHJ6M2dfNo77J7vi3UZdBsZctT8brBWT0hYQBjolrRcnnf9HJkxtRwZy1lsZxo89nAa7A/Id4GTpspq46taHGX3TPFIOHLJPM8cdtiMNdgtGVKBQCjHMFLaIa8W637BwfQ/Njom0EF0Ta30dLUoroqJM5lRColRixKPFIZBJJt1VwYdWIFNGMh0kZCdDkQYuHj2FUfe3YMXQ+69anTPWWmvA8Lfe+mIJuDR+1kP44x57GBc8+GDnF6aWEQ+eXo3wyqThNAVzsApV4eyH3xnae8znj/2sG01eLEFgCUYgISpL8MlNDu2HCHy7TZ+GPiPX+zaqbcuEmHyX68Z629/LfBckmqdHHbwx6TAazBkYcQ5DzFJ8mbIxCK1IJovVw10mevU4g66l8AIXpypFELmUigXMUCOdTpH3OjCq+nHhtc9x273fUnDLXi0jDlqaE47eEiP6FkO36Mo1ccm1j3D31E5VhBnYD275wyEsV9dBxinhm1lmdaS5YuyfePCRmdSkYKN1NK6/4nDSxjw0r520ZRLGNpomo86ectTVDUO1iDCkWlIeey5nBYmDrYYWpsuDSppLpIvbrakEvmWiAo5vKUIjhRUvFhLTwKWjpzL63vlqlLs3RKdstO6KB770+qfJdfZDBKaut17NCa+91jZTrhwTlu8HT44/jAZ3FhRrvBn3vbFZvzu+eDnBLUEgQeDHIZAQlR+HU7LWEoDAB5s2V610+sbfRLUd9aFu0O73ZoMhdzCrHQITUhG8//RBNKVmY+slTOU/kiH2A0qahy72JdIRCXU0MU6RB77Y1Mee+l6SlG0Rr5oWnVHA4698yREnf4joVlMxrLOiwR2jD6IuOw/0PH7UyG33fsjVN75Hq48aRz73xJU5fM+NqKIVN4xooRvHnHkTTzwTY+vQ7a9E5U8TT6FbtUd72yzMVJoo0gl8TZnFWUaELq0eXeQzMaGMRCtbfaFJ0d+1gMSlViM0SoS6WPKjiIoIboWoKH8XISoyYSTVIddi7B2PM+aeL9RIdk8IDltv9e3XrDZe72d1lOa1N+vUkNaDyLJLpqFHjnpviXQ3Diwr8j0vShtGHBlGHBqFSngRhKYRh3kjrjLNOO/7YarUEKZLXwYtzc3RvOZmtV7zvHk/2/tUdVfXv32tdKn0g9/ZSy31/c8zi8Uf/M5x3R/87DpOXEyn426maXzQ2rHCRa+8+PosYlOSsTdYM80DN+1HdWEWlGrcj+54aZWVxs38bAm4pZJDSBD4RRD42d4AfpG9TTaSIPBfIPDmWlhrnbPzpzQX+gW6QU5bik12vZlP58gDE+wA3py2P0vXt2FpeUwZrxFLevEoMTwVBBhL5KCMIpMGw1JjylHoKQM4FSAYxHR6Fm62N3sedhMvvQsyzdzNgHuu3ZONV66BeD7iCvfmx10MP/YJvqoEI/ZvhpcmHobpfkbG1Mhp3Rn1xw+4dOx7UhjBDODqs9dh56024NqrJvDAY7NoN1ADxrZWziiUASDxdRGdr+ySfCmpjeAmFvsV/MS1Vq1uCEFZmCNUXkfeFESHIuv4yo6/fKhdLgTiyG9ZOEWfJpT3nSauLFrFSeYf31C+ZySV7f79z9J4kq/KJtQaldSB7/dz4f/JOtKkkt8LUZLtyCFUtrco3scUjZX9k/2S/UtV9kto6xxIhYaJHgYM3bqZmy7elow7B/I1ub/c8EzfNR5tb/8vLuXkTxMEflMILIob/DcFcHKwvx4EVN7P8tu+x9KsJG2cLr0v2+57C29/VvZiEw3s8xP2YKWlAmxyGKFP5OvoprCYmFCISuQRyyMqsAjFoM0qO7yqp5UmTq8QOD25/dH3OPPytyhZEBbh7CNX4IzDtydo+RTbMSg49Yy8+F7unRQqZ9x6G44/dA2OHNqPxloxg7OZ1VHLZvvfydfzwTGgVwM8+fAp1DoWo659lhvueYW2st8bpsT6LCQhlX/F161iPFsmKv+wKB2tSFpU2OEPyUw5BrFMVMS1X+Qsyn+lwhAy8oJCgETKUvm/ctZQ+e/U0JF8I0UaVetR35S1u/L/C7dbMf6vTEl/T1TMCpHyFMnSsS0VjITnS64ROLomGY5EsTj6fk9cFhKYX+RfwWLhOLhMgNXYEAhLEfJipwhDHycMOWqfAZx//Dpk3RboqGr5fOxjSy03TZ32ZEkQSBD4EQgkROVHgJSssuQgEN+yycsMzA6OzYguoy97HX03z77pqkpBRoeHb9qGwStnSBlFtNBDk0mfKMTDJdJ8LCPGkPICjhKtRkEe3XTKtQUrS6RZtBTqGbLfnXwyF/U06tsNnhh3GI32bOrSUpWo5vkPSuxx2KO0++WKSyaGl6YdztLVkUpizkW1jDhtNBNf9FQ0c+THDF6zN8ccsTWFQo4pz3zAQ5M/RHZPCEKNyGlKlWpIClT0kEhUKqfue6Iid3yFMKjqSYUQqNKElEUqJY8K95ACkSIGKqFZ8o0qL5SW7UXgSTWmUgYxZHtlexZVqVGvWdmGWfm7coupvI5sS1WBFLOprC8T2NJ6isvVFt2BdvVI1zFFIByWn++CUSgkRpEsrXwclf3/Jf9V4Ag7XVhe+b60ZKJHgdTdOOuYtThu3+VIe20wL/sVf3x4Oe1BdXjJkiCQIPAjEEiIyo8AKVllyUEguG7DR43V63fGiug0enL4GQ8z9fk2xOE+Y8JdV27M5us2U2WXMER7oqZfImIzQMiNFvvK4E0YgnKP1VTjBbwUmNXkfY1Jz3zOSedPp0MZwsHQHfpz8Wkb0bOug3y+izC1FGePeoGbxn2FK5WQGFYdAPfffjYzP/2E9z/4jOde/YAXXhfvFMh75Swiu9IqkYd3MURpZiIXttx4GYZuvRJNtRq5kk8sOUF4pGyH2JNJH3GtLVck0MUAJlCjyFJGMgOn7KOiq+TDso+KfCfBh4hGRUIRAxw9Qo9i/KDs02LqoUqV9g1TiXE1rYQQFSuwiDWdQJf8ofJrKc1L5bEsk0VyTCLwlekiM/ZVtUWcccukQzQyEVYUEcR1jLn7Jd7+qJWiJ5UTW41bixlfyjRwA5UjXSmnSOtNCMMv+O/C20LTEDFKIJEEwgwFIlcnpUVKm3TxaRty0M59SbudMCfzobbPhEFLzh2VHEmCwP8egYSo/O8xTrbwK0KgeNl6d6TW7z4cJ6RTa+KkS57k/slzVF5gSofRv1+DYTuuiBm2Y+u+jLyUHz62hut24aSlkgKuH2PbNmFURI9s5U8ilZKiU8NxZ93Io0+VrVSyEnZ49lbsvVMzcTiTwKrCs5Zh+72u573PKy78PmRs1NhxPl/epLRU5CFsqMxAA0OCB+O4/DFctCfCXDzUJ/Y9tlmGq8/dEduYi5YyKAXy8LfQAg0rNtSYtRsF2CmLUjFHpipNzu1SU0KZ2FElDiEQ0t+psqGjKw9OFZqZolQq0VCbJSh2EfqByhoqt3pcLMchiCz8KCQj2+1qJyM9NN0msDN4YYBpRYReiUwoYmPwLE3tn+1k8b0SaVPM8wqY6VqVYu0GPmnLxok0ikEjJ130KH+c+o36XYiQnAow319TgpJS5Cyifys7IpgIU1soAhJxdFzWrdzyhx0YskE16Xw7zEi/pR38yNq/olsi2ZUEgV89AglR+dWfomQHf04E8heudUlmgz5nkPLpNJo5e9Rz3DlhBvlANXO44tRVOGC31bDiNhxdWj9SUZGpmLJFvQQRun6IodtKQKsbMZ4b4jj1lOIqvmw32O3gu/h8ZpnfVEfw+IMn0L/XApxsQEdQw4NT3uWsi16mJLoPecZW7sJydUD2Qj6ZR4g0Rvz6F7ZvRFAr7RYlcK0kPtcasNvWzVx3/g5o4Td4pqUyg9rbQmozNdgUVEaQF5pYTga/5FL0c2QbU8RhEdMLlI4lNquwLAuvo4VMfR2+VkVbrkRNxqHQ1YETS4p0FcWgTJiqalK0zm1B06uorq6m2NVBTUZDkx6YptHe6VNV30xXVwf1DTV4LTOw02nc2CYyM8ohN+3YaEFBpTnnfBEsmziOTeS5GG6J2O7DiAseYfzUOeqYlfBWykjfC10EukVNVJQtYPkcSgVpoUjHL19P1Trce/NQNl3NwMnl4DP7Oe3wRzf7Oa/p5LUSBJZ0BBKisqSf4eT4foBAx5krH1uz6YDryAZ0Gg1cefubjL7zQ3Je+cHy+yP7cfSBG2NpCxRRMSoiDT8sYaUcwjgopxZbWTxJPjZ0/MBVgtsurYZXP4/YdfhjlEQ7KsZoMk782GXMnf02r77xFi++MZ/X32lTvipCVDRDGh8xuqERS7KuL22VWLVWxDg2Xck/tIUviYY3KgtalQRF9Bw6DNshxQ0X7EFUaqUQNTJx2nRmzwxobKhm682XVu2cWTNNikWLlC25RAG1vTJ8+82H9O2RYtl+y/Hmu3PxSiGD+jXxyeefk9ebMOwsulekW30VKd1kbst3uJZJKfBI6RrL9BuAFmcYP348oVdkg/WWZ+M1+2A6AUGmmi9mzmfOzBwrD+xPkzNPVXDe/zykPefg+tBUX89SPWtoaZnLvK6QXMlVHjA1TsxSdQ5NfVbkmEsn8MDUr5UeRRGCyhSTMqNbqAtZZBUVIZE6oaJL0nKSHZT2k7j0ROp6qjNh4vj9GbRUHqdYgneZoh07dcfktkwQSBD48QgkROXHY5WsuQQgMO+45fdq2n7Q/VT5dBkN3DThIy669g1VURENyLH7NHHG8TtixvNwDA/dDdAlFycUjYqmKiCalDawCf2I2PfUFI+vubQHNdw1+St+f+V7eEZZV1KrwYDeBl9+GSqxZ1coA0IWjmHhhaLALQciBhWtSlamhDzo0QjrrN2D5Zdfir696lmhf0+qsymKbsA3LSXGTXyNKc98psaGd9kmw+jThmARMPrWVxh9y2z6Lg1zZ8O2W0Kf7hq33hkjziZq5Bg4bMTK3HTL++y1K5x8yvEcM/I6Olpj9h6yPFde/anydZFBphoTttoEGqosHnjUJ6dDVQ24HXDy8aty5x3vqiqPZB3KdNO427agV98minaWYQfczowvYL9h9Zx98hYU8wUOPGIqf3m/XBWqq4Fdtmti1qxWnnoJnEyZeMU5OPngNPscdAwjrniE8dO+ULh/T1QqGUuixJFFNCuLovUjFFOqXUJSQvlO6X4icaeRLGt1PdU68OzEI+hTPYesHPRr7jjt1Cf3XQJupeQQEgR+MQQSovKLQZ1s6NeAwMyDl96s9x5rPyNEJWfVM+7xGZxy/nOIBZl8Aj5gxxSXn7sfevgdtl7EFF2G9GAMDc8XS1rJGxbLeRvHSqEHGlFQJDICCnoPjjz1Qaa8lKOzYq4huhczlk/cNqVIBKYiMBFPFJesA64HVQ4suzSss0oVg1ddjtVWWpYevWqJjbKK1tI1nDAiLrnqSd4WVHPVHa8x9q731MN77yG9ue6MLYgKHpvtMJ7+K3Xn4msPY+oTt/Knx+Zy+YU70t5Zz9FH30P/PjDylL1xanqw197XsO/uJkeNGMlxp95Ey5x27hm7PwvaWjnnmml89An84cI1WG1gM2HJ57Nvcoy85A2ae8CpR27L3FnfcuElH3DeRduyxmrLcNgBYzlq3xr22W9/3p+VZ+c97sRzYaVl4ZH7d8e2NHbb60GCv1aPzr3kZE4deSV+DkaPOZSWzohDD7+dpka49PebMLh/A1V1fTnmsomMn/Z1eTy6Mk4tjrlmhaRIZWlRERWhckJGF/rRqBMrVTKpkVXMXrpl4c9Tj6dJm0GdZ8KzXWO0858Y8Wu4F5J9SBBYXBBIiMricqaS/fxZEPh8/+4rL7v3796jxiNv1jHp5fkcftJkkYIo59ddNoYb/3AYBHNJaXk1JhuHIZpt40vvRbPwghjLrmJBu8uXX7ThRyb9l1saPd2bnYZdwkfflqsRhpPGc2WcVnQMQoM8nLSvtqPnobEWdh+6AttsuRarD+yJGbST8vNYmqQl59CdGE/yd4KIlCf2+DGarZOPu3HBDdMZe9fH6oG429a9ueH3W6H7Idvudg/ftsNZl/2OzbcahF3KY2gpNKMX2297HoNWgFHXnkdLR8Tmm1/AnrvAWWefyxEn3MKML2fz9ENHoekRx537IE/+aQEvTduZ7rXi0mvS4dax2T73sfKq3Rh1znDuuv0GxtzWxQ23HsDKg/phRh047gJMs4bHnvuMU855knXXXIG3X/+EpydvR48eDRxw+H20FxwuuvL3nHzC2ehFmDDhXAqxzSZbnsUyS8OEu4+lt5WnvTPmuKue4v6pM8taHjWOLI65IhUuE4QyUVlUS7miosatVUtKxwx1dAI1ti0spl8TPD9xJHXBV9SULKLHWy81Lnv6zEW1x8l2EwQWRwQSorI4nrVkn38yAp/s0dh7+QM3m0mtR96q58X3fIYdNg4xSJdPx1uuIeLHQ9HCOTh6EUuZdUSEkiioWeiGTSkQa3qTm+96ilF35GkrQa/u0Kd3b16ZPqsi70xLbrHMsZRt97Wy90fPRth4DY3dt92YTTZYGcssUiy0kNY10nYKVdqJSpDKEeou+ShG12yyuq1aCoHmkvN7c+G1H3LbAx/iabDrVo3cct4OpMwi016dyZVjX+G9z6B7M5x5whpsvcXm+HE1Ow05j4ED4NJLT1DEYPPNr+CgveC4E47lqJEP8MUnLbw+9Tg1yXTEmX/k5Vc6eHHS7nTP5DEih664O+vvcRPLr1jHrReN4KrLL+GeiRGXXLMvH38wnWLnN2y8ane22X5XTrt4Avc/PIOTTzqK0dfcwKiL1mSTTTdg2MHX8/GXZZ2N7sHwnXty/LEHEaar2GCTM+nRA554+FCyuZkEWgNHXfk09077TlVU1LIwdLEyYFPhLz/5eviv/7DiP6NmxUOTrBoSC8jjq07Qqv1h2viR1MZf4eTAnTx3ZOoPL//hv95u8gIJAr8hBBKi8hs62cmhwke7VjcOPGiHVuoL5KwM079Ms/N+d1CsGJNtsCJMuOsojHA2GUO8QTw0U8MLxJ/EIDYc3CDNvHaLrXZ6kLlitSIPz9gkjHxSKRuvJJ/zHeXLEgUuKRu6d4fdd1mOobsMpl9zCqOzjYxMFRkyJeOXXdV8oxyCaOpg5YjDPFEqQxDpGGGsnE4NMyQ0B3D+1R8w5t7pyjZk560buemCXTGjBXSZ3VngVjNp8nTGXP8nqix4fMppeEGK3Yeez6Dl4Io/nEpLR44ddxnLsN1hxIgTOOq4O3E72nngxuGkMxZHnjGBl15p48XJu1FvtZE2qliQr2OL4few3IpNjDlnOLfdcjPX3t3JdbecwIcfvMlNY17ioGFw9NHHsddB1zFjFmy9zdY88tCTHHVAHceMOIIDDruaL2cF7LXP7tw2ZgI7/c7iikvPob3ksfl2F9KnD9x/2zB6OzlCGjn4omncO22ecqFVZYty2NLfyihlw9tFsnw/7SOMRIIEQl2No0tFpYivdnXtFeDRu4+lNp6F1RlRmjj7wPTo1+9eJDucbDRBYDFFYFHd44spXMluL+4IvLpdQ816w3f4lp4LagrpFJ/MaWaznW5E4ujECX+5HvDUQydRr3eCOwfdLCL9iciIKIleJVVHbPdn1K3TuXLUdEKxzNfAXeiMWplKkSnVKh361sIh+w5kz2EbUF0X0FlqJWto1AYOmghUTLdswCYCTFNccE0iz0cX8qIHqsAiwYOB6+NYNlEQUqI3l9z0HmPueEcRld2278U1Z+/EjM/f4+Kr/sw2O2/DZlvtyBWXX8xTU+YybeJx1NU2sedu5zBwebjospF0eCU23WYM2+6kM+LYszn12KvQinkm3neEmkI65szHePbP3/H8k7vQnFlAxtfJlXryu2H3s9LqPbn+gl14+JGHuODqFk6/8HA22mhl9tgx0eUGAAAgAElEQVTzOLbaAg456Dh22u46fOFrlSycjQbD1Vf/nsMOu5L2Dpfb772CY448leYsXD/qLGLdYbMtzlGE7pHxR9FkLaArb3DCFU8zbup3lfFkSXwWk7eg7Fkii9KELJrle3GvECgxvlGON+JhU/Z8sYnYZkO4bdTh1ITzsAsW7fd/tnP9LW9PXDR7nGw1QWDxRGBR3eOLJ1rJXi/2CLw5pFdmrWFbfsBS8/oVUzbfdvbldztcT4eYtmrQtw6efvREmox2DH8+ppPHC3PotoZhpWgrwPSPAw496SVaO8rjwjJ5I862TlUWN59XkzXdq2DE8A05YthGONEsHKeNUM/j6aJRSZEqWYQFD3HfV4mCWkTBF4Ji4egmmoTGOBahzCAbpjJHk2pN5Ibkop5cdPPrjL3zE9VS2muXvlxy2raYUYHdht7HvA4Ytt8gHpv4ATVpGHfnSEzNZK/dL6ffUnDVqKPxdZ3d97+eD7+GddeFv7wCQzaFqy/cGzuV5cRzH+Gp5+bz+JTt6Nvko3eV0Ix+DB5yL8ut5HDTFfvwzdcz2H7PZ1hpzRTLD+zJQw9/xR57mayzxkacedJz7LDd6my26TrcftctfDMbHnv0VE485hrmzfO554FTGHnylbTNhfvuOwHHqWaddS+kb194bMJRZIPZ4DRx1HkTGT9lHp4kOeOoQeBIlCkq6bli1buIsn6+r6gol12x1RNDPvHbKetVHCJ23hLGXnowmXAB6Vya9ns/26z+zjefW+xvpOQAEgR+QQQSovILgp1satEjoIjKzhs/z4CutYsZi1a3P7/bcRRzu8r71pSBF6ccRa9UDitcQBgXlAusSFV0s5qCn+bK66Yy5v4u8sotI8bXxCtfDE9ipUvI+BEXjFyDI/bZgDA3g2zKJUbSl31M0yTyNeUaa6QyhF6OIAhwsjWIN4jrhViWpO6WyuGHeo36PVEOKy1maD4FenPRzW9w/Z2fqGf10B0auPjUrahLR0z/yzxOPeM55uehuRtcePbGrDpoRVK2zeEHX0+PBrj8qsPp9Fze+WgmF13xNN9+C6sOhGsv25E+jQ6duZDLx0zhrXd87rh5W2pSJUxXoxBUsf9xk1h+ebjg+L2xdYNpL3/GxVe+RlcXNDXB7nvWke/sYuqkkDtuO4rG5hSPP/ko94//ivPOGcJtN06lozNk7E0juOGm63nlRbjx5oPQDIPttr+V7r3g7tv3pi6Tp6uY4sRLn2T8lHZ85fZmVcIGpVVWYScLDfMWRTKhumJ05aViVvZMiEo5EVrH1iIO2NnhsrP2JhO2k+50aL/94zXrx7/z9qK/E5I9SBBYfBBIiMric66SPf0ZEFBEZet1HmEVf+tS2qI96s9Wu43i87llwWuNBc9NOoRl60rYURtaJWWvUAyU+6wXVrHPwXfyxseQxyKHr1o/ykbW1NFKHsv3gCfHHUBjeg5pXHRLww99RTxssYCX1N8KyTHMWFVlAl8qJzaGZROEPvhdpE1pddRXrOvb0R2NyIsomUtx4U1vMvr2j5W0Zbft67jx0t2J8jOVrsMNDFo726lrqFbGcRnbpFTIYWkGNY5DsVgksiwCPUvRrSWMXLJ2C5H7HQ21tQS+SVfYhGYaRN5XVKUkicdSWUZzizFpM0u1V1BTSO2hhZWpIQ5CZdYmMQBhFOCVNFKplCJ6cVwmaL5nErgZ5Uibc78ilTbQQhPDSuOFIQXPJZutRtdLlPKzMbN9Oeb8SfxxUq5CVEQLIoSw3F6R5deQ9SNEZSGFigiUT40iKjI9tV8DZ40YQiZqx+5w+O76d5bpMemTr36GSzl5iQSB3wwCCVH5zZzq5EArDzbNv2zrcdb6zl5uxiAfL8uuw6/mzY9UQYOUBlPH78MqfSNS0QI03ccwRCArFirVaEYVN9w6jWtv+44F4hJrlAMC5UZybHkYB6w8AB4fvxf1Vguap+O7HqEd42QcwlyR2AuwqmtBfFkkede26fJ8NMfBsBwiP09W0gbV7G1D+cQZnaB5hJ6G7yzH+aPfYMzdH6i5or137c4fztiStNZCGDrEsr9ChRyTwCtgmeJ4K6rfECsylf9LyfcwUincQLSpPtXiNEdIV1uryt0JtDoKbonmuhC/NJ9IfGRCDU9PI/mFjZGJSlSsqacz3y5dKoR0ucWCEhZbZhVxZGA5NsViXoX2iTOtbcnPnaRSMXEcEnlWuVplGxi2Ra7LVY53VTUmnWE9J14wlfFTciqLKRZBjmQYRGVDNcE8+D5cZxFk/fwdW5KZrIWtH1VR0coVlXOP7MuI/TciK8LsBRZzxvyludekT1uTuzFBIEHgxyOQEJUfj1Wy5hKCQOGcTUelN68+3k8bdEZLc9iJo3ny1UiNzIpB23037sLvVk2TYh5RFGDqOlqcIohMlfHTUcpw94Ov8d4XraRqaqiubuaFZ97ki68iGprg1JPWZPdt+mB487DCKsx0hpzXgWlppMSG1g2IIyE1YotvYKYtEM8UzaOjVMAxTBrsFEFXCT1MK3t+ZDoodtVDPXCW5axRr3HTvR8pnjN0+wZG/35bqvTZSpBbLLmYmQy5QhfptEMYeehGpLQvuidZOTqlUpFUNoXy6dd13LxLEGpkauvp9DS++HIBU6a8yFGHb0tDvUNrezs1TQ3kXFfFCtSL76rvUwpKOBmLMOjEtKTaYRJ6MYaVJQzC8r5rEfl8nkzGVm00t5DDsa2yy6+VplDIK52PZCdZcRYMA8/P4eo9OeHCqTwwuVOJlRUpkRRoqUypBktUDipclNdl2ZoWUyazFNWTfYoUUXG0iGtOWYH9d1qNtOVjzDfDD2//MDPowQ8qMuNFuePJthMEFh8EEqKy+JyrZE9/JgQ6Thl8Ts22zef72ZiuqA8nn38Pf3xCmjiQlgTly7dh102bSWtzMSwTr1jEiE0MO4Vb7CQ2MoROL4qBtGwK1GSq0T2HmTO/oaGnie2Eaqw5pVuERQPTllZHG4YZoctUSKhjO73wXRsvSvPeB28ycGANdT0zzJk/j5qabhQ6Ld56+Q02WXc10oZ4q4gmQxS7AZ16N0Ze/Tz3PzJLOAC7b92L687aimprLl5XO3ZNNcVSiXRNDV6ppAiS53dh6gaGa6LFQnzKdu9lazoN7Grc0MLVqpg87VXOPe9zzjlrXYZstzbPP/cks+Z0MHSvPYlSvnLSpa0LM5L8IyknucjAUqkrj6VnlNGdm+/ASmmU/AKmo2E7VURBQFdHjtraRjWKHYQB+aCLTG0K0/p/7L0HmBRl1v79q9hp8jBkJZkwYABxFbOIBBETKirmwCrmvCrmsOqquIY1KwpmDICYxRxWUVcxIZJzmNTToeLneapR13ff7/3L7kqw6rrmmqGnu+upU9VTN+fcIaS5sZlkkMFOlOO7BXJaO865bDKPTl6uDPkc5XQTecEKUVUUQIECBqtnU/stARW75OsiYCrqqAQqOfnBK7dm8C5dMUwPe7nRrA0aX7F6VhvvNa7A2luBGKisvecuXvkqVqDhtN7HVu7d7h633MM1OnLR9U9y71PLyfnR6OfaUTtz6MB2ZPQluIW8Sg12RKFjGmhagdAwafET6KYodHzcXEFcU9AtHcddqlxsg7AS360CvxUvvfQ8qYomdt2tp/LY8P0ysi01PPvMFB4eN4NTT9mIwXttjhtkcRK1PPr0C4x9qJ799rY46fC9sUMPzbOVj4trw2KngrOumcgzLyxSQGX/Pdvy4DX7Yxe+EW9+lfaMkSTvyJptDFsAQwMp20JzLMKiONwmUBHGIvPVLLKBTS6oYuoXy5g2fQX1y0xsO+S4I/bkvHOu4usvYP9h21BfWMrsOXMl05ErLjqU6kqJuMmBnyWVTiIzGglrtMtS+E6zWo+R0GlpyWEaSWwjTeBphEVDjaZcsmgJn1y+mfJkBs1N4bV4mJkkWb81Z142mccmL6ZFuhXSTRFSThCSRECfMEKiVOXVsUkHTgGVABKi/lL2fqUOjxaQBp64oTd79G6HoQWY9dYMbfD4DVbHWuN9xhVYmysQA5W1+ezFa1+lCiw8qvvAtsM3neSX5cmFFdz12IdcctP3uHqkFD7tuE0465gelJlL0Hy5DUr3wVI3Rp08oRbi6sKSMNFFPuzrWHpC8UDMtJi2+TQ6KZrybRh5yr18/x088vjutG0bUF5eS2OugjMveIi33vTYeVsYff2RVCeLypRt1PXP8+izS+i0ATwx9giq/Xrlx+F6SXy7jjnLQy697hGen9KkOkBCxD147/W5/cL+lIUzI/M4Nc6RnkOJ/2FKCGCjuoXaekYc6iLmsGySxBwYNOhVnHDmY7z/d8i7ShFNwoSx95/MJ++/z+jRH6umjrKyy8BtfzkGr3kOS+dN5/vps9lh+zIG9u+DFriKZKtbZXhOkdD0CIXUIluoowUJtNCI8JFKGs6rNEhfEg09HUOvjJCHKLLyVZz/59cY+/x8CkJBsS0oREZqlnBrFEjR8EVqtRq2UNReYlgMEh2llp0Tjbu0l/wiZRq88rc96NnVxkykYHruI456obdY1q2G5ca7jCuw1lYgBipr7amLF76qFZhzyMa91jt+87/7qRZyWhmPTPicM6/+BlcmIgGccGgXLjmtN+XaQvW/dzVuEKASClCJDNo8XfJ7JNfFUrwVx/GQuMLQy+MblSxz2nDcyAeYNg322K0jN163J8lEEwuWBNz70OuMfaqBguTc3D2ILTauQUfj9nsmcvuDK1Rn55KLujNsv16U+80Kd2SDOia8+ik33/l35i2SLoZGixfF8R08uCO3Xdif8mA26CWCrgCV0CQUfw8zJNCb0TRX2dZryUqy9TnKymvxHZ+8XkZzsi0PPf0h1/75bbwQcvK8H0YXXdrDRWcdxoevf8dTEz+gCbCkHB6s1wr27deGHpvW0X+PLbCNJjQvR8JOUMz6SukTWuLo66pRiAA+zU9FQCX00RSgkrFWMZJ322mC5UX0ZJpCWCAs78aIC57hiVcXR87BktxciMIj5UuGQALW/peOykrB8qpeJv/n62QH0tGRdUj3RLZ58pgAKs+lDHh37AA2bydrT8CXLS8y4uUBMVD5P0sbPyGuwD9VIAYq8QXxu6vArMGdunQ6rfcML5XVXL2MiW/O5ejz3lcO9vKf/6EDWjH6sr6UG/OiUJoSUFGhc6HcwUMVjqduvZZ4nzhYuoEfelhJqC+04uQ/TeaFVwvCC2XMvYfRc5MiZek0r721guNOnoiokbfbGu7582G0aV3GKx/N45jTJtFUgJoyeGviKdQmG9QNL+dVcP1dr/PQE9PJO7BZd502tVvx+htTBTZx0D5tFFDJBHPQxW1OGLaGABUht4ocR9J8xa8lh6AQXUtjpVuTbdHR9Wo++moB90/4gLK2m/LR1Pm8/+F0MFNAAdsPaVMJN/15JKNH380H04oqhC9lQpsquPKCIfTpuT7lyRYSWo6U7uJkm7FT1QqAhDQRirOvACipo59GD010ASkKYvgKGGElVMK0FdgEWkAxyJLX2nP6JS8w/oXlCpDUmdTv1K5ubG3ODdK+OjotVP2VSPqzEgCISfDKi1qs9FQz5xcGtlr4k6Htz3+38mdNkOO/2OT38p5hGGqBjuZohqbpoaYXPb1QVpl7dsG8ExZrhiF+KuXApxMPoGtVCzKzcz6tfzhx+lvDf3cfuPiA4wr8mxWIgcq/WcD45WtfBabt1bFm0zO3XxiUtdjS/XjniyYGHzcJR48SinfrZTHutoNJa7MiIy9RsohThgIqcoONfDKkS+CGDoZhYAqgSVg0eQUmv7uQE874VmGErTaBh+4eSaW9hELO5JyLJ/PaW/U4Hoy+bh+G7rUhS1Ys56wbxvPsK01KLnzU0G245owhmM5S6nM+F15zJxOnBJhpqKmEO289lzvvnMQLL05TOOrgveu49eJ+pIP56rYtOEUM1Hy5lXuGSkN2wyaSMpay5H/7CVY0JrDTnXn0yXe44daPmJclGq+IG7wmnRg5blfxLiRBumsHOO2Mozn/svtpykU0GBtJbm7HUQfvSnb5NzQu+Ya99+hFXdtawqYCQSASaF8BlVAvRsnHXrnqqGhiZifkYNWZMmh2NEyrHC3Q8Jw85VXQUKzigqve4PFnFypQ2L3MnnrGgJ47HvTEe8KtXeO2CYMHp0e9OGXadL/Y2dMd5cnz6fOH0TaxHK2QpPn9RTdVXPD+mWvcwuMFxRVYwysQA5U1/ATFy/vPV2DmrlVVnc/pO5sap8LVUnwx12CXg8ZRCE1MPLbqBs+PPZqMNhMxRpfNF6Mx6QkICFD/ZRepbIAmIw1BC44MAJI0JtMceeYjvPxe9N/4q87emCN+AB4Jo8jy+iS7DRonNAsSBrz7xlWYRhPTvp/PoGMeJieWKjocc3A/dt2iI/PmfM8DT09h9lLQ7Eik8/CdB7PJRt04/cJ7eGXKEnWvHzaolltKQEXXTQLVUdHV801NOiPin5vHCXIqJ6Dop3HCDjz7/Fdcds3HNErGnw4FAQniBiLHJChEKBgy8pIwxB/4F+eefwgvvPQqH3+6VAEaWzpQxSguQMIP9+4Hl5wziLC4nIRZhsoHcASkuIRGC0Ln0X3hqNhogfi2iFQmVMAqsOoItDTFfAvlZRaBv5QVLRnOv+INnn65XtV+C51PpgT0XFNHJ5/165c57KWXZn8rNjNA+yr4+/NHUKctQSukqX9l5gU1V31y7X/+io7fMa7Aul2BGKis2+c3Prp/UYGv+7Qq3/jsHb6mbdDeCU1mN1Sx3ZAHaHY1bEK61sFbzxxLpTlPJfXKjTsibAYKqKzsqCgXd5H5CvIgheuk+CaXYeChY1jaDLUZeZ/htKttIdus8eDjf+fq2+YoXsMefVpz3lnH88W0T7n1nkl8MVdaFxC4kAyjL5lfiLO/cr79QTZdWw4H9G3NkCGDuXPca0x+eSZinDtsUB2jR/UlGc5XWUECVCTxWfg1hm8pWbCR1PGDgvjoYqbaM+nlmZx98ScszkUE2ZXzk0A3KQaemOSqwMXQi2YgmWRAp/VrOOH4YfzpwttwfOUfp+Tcm3Sp4qF7L6Q2vZia5HwoLkL3RKkUoJspAj1Q8QGh7qmulB6IRFo6VNL9KVAMEgR6az785CsmPPcpoy4agm2swEp34dQLX+Kp5xepNfTQtU9OOODAbQ964onVJfT5//08vbXjjtV/fPvthd/qWkJGcJusDy8/chSt/IVQKGPJc18MbzP6m4fjD2VcgbgCv64CMVD5dfWKn70OVGDmrp2TnU/c+HO66Bs4eCx129Br74dZ1gR2CK1T8OHzR9EqtUS1MRRQ0aPvZhBGHRXBAWjKJC2RSBCIwiXdlVG3vcvou6YhXmpd2sKEsQeTtlpocTdkwEE38dVCcbM1SKVCirlAdUTkQyhNGfdHAkRE0JQxTlG8WAIfO23g51wyAmIEvOgGhUA0L3DwoHbcfMnuJaAiBm8CEMSnP8SUZzsuvoyoMjb5YpHQbsOAfZ/k2/nQaETJz2KHYonxqwktQnwRbFQynxXAlEya2JrH3aNHMWLE5eSlCyIW+/hUZuD4Q/qxaecEW21ksPH6FqGzRBnBBQWpk4WsRHVq9KLyP5ERjxRSTN70VA0NzRUM3u9edt0FLjjnCPz8THR7PU677C0enzRXsVl66trUUw44sPeaClRe365Hx+M/+MfcGSWu0x8215h435FUOQshV8b8Rz/aveN9s19fBz5C8SHEFfhNKxADld+03PHO1oQKTBu6md19YNsPtI2srQLToZGObLP3GObVg+FBhQ5TXziC9uXLlYRW5MieLrBEgIqAA+kQiFhZQ7MsHOkehD4Fqxv7HDeG96a6Ckzs178Do6/aS0lvn3phOedf+RIN0nwRGGIIT6NIWuYY4uNmRrYmmkxLpKsiKmdRGkujJQkFJxo7VQh4CUXtUqEs2z2aFVCJOirz0DXJ1/HQTVH/+Oiuhp5IEbgRCda0kjTkTOYuTbGoOcUxp48hmYETj96dPjvszuVXPcDb73wX5Q9JD0m1jaKxk4ylbr/hDC67/CYWN0SKGzkUswR06tKwSy+RWw+l3GzEzdVjWpWEYQJPeaDIqEzoJYF6zNdsCr6BG1bga3UMO+x6NuwGV10yjJpMI3m3ktMvf5vHJs5VHJVeCXPqm0VvW4UR18BtYq/um5/80VefzxEqkA8D+5Qx5paDKM/Ph+Zq9/uH3+7Zbey8z9fApcdLiiuwRlcgBipr9OmJF/ffqMBHPXtaPU+sfJWNMzth+zTSil0OHaPGLzLuqJZgwkf2p3t7V/oAKpOmGIaq4yAO+LQ0E4qpm6ERFF2ssgzFfJZlbgd6D3mMpVmwXDjhyK05e2R/vpr+HUed/gRLmlC2+aqxoGL+XDJ6JIluUwtbbKnTffP1aFtXRk1ZGWXpDEXXY/bcBTRnC3z79Tw++Qga87DIMQj0coKwgWGDRfUzQJFphUwSSAig7igYoxs2+ZYcdlkZhDZei3icJGkxDXKOwcMPPMvAvQ+gtmM7FtZr7DdstAIhEuOjyyjKiSQ1ehAZxJ991gHc/+BTrFgRebjIo/LVtV2as0YOYe8BrbDdb6kOWhRQkpGYKHo8kSMbAV6hnkSqBidow+J6m5ff/ZbPvp7LshVNvP9+PWkTXn/xCMqtZRTcCs649E2emLRAAbYtLaa+cyHbapeumUBlTPeuA0d99f2k+ZIZFcDwIW25+uJ+VOaXQrZdbsZdk7ps8PTiJf+Nazp+z7gC63IFYqCyLp/d+Nj+ZQVe3xVzl/13m6BtVt6flE+z1or+xz7I32dEXYwyE155YG+26qJjBEUVpidutNL6MMXzw3dkFoIXBphWAre5kcAymJdtTY9+48mLIVkAZ48cQmUqywPjXmXm8ojKItwTkfY6DlSnYK9dqxjYdxv6/GFLkimXoreEdEKifyR/pwVR0SbTFTQ25UmmKjDtKl58axZnXjGZWUuKaHrIIXtHQKVMqX5EtuMg5JVQc3FcHyudxBE/GE8nGSaVwLZoytBLBzdFqFeztGBwy70v8LcxC3GkZVFyXNU1g9DTlPpJfFgOPWI3Hhr7OuKDZ2oGBhIXoOAIbSrgnjt2YOtNyknKgzkh7ybw/JDQtFQwoVdswtNreO29Bq74y9vMngdOCK1qoccWBgfs04O+O3UjGdTjBXWcdcWbPPn8AoVMtjT55O2L6LWmApW/bdh5xLXTZ92xyICMDyOGd+Gc0/pQWWiChrYrvnzw6U6bPSEwNt7iCsQV+DUViIHKr6lW/Nx1pgLFG3d8wt6y1YEkHVrMNhxw6lje+NRRYCKtw7O37cJOPSoxwoIaVeh2gsAvYhZbVNqx8EyETGoKWUULMNIWU7/12WP4qzQUU8ocrswMsQNHdSdE5CLBv0YBOrSCgYPbctABu9CpVTm2XsSQQYqYnGlZTD3ADsRgTscTl1dTQvqkxWGrf7tmJy6/9W3ueeRTMcFl6N5tGD2qH+XeImwvFc1sxLpVyDTJJEEYkM81kpHwQ8MkyGYVSAklEFBPEpgdGfPoVK647l2VqWMlqmkuNqIbor6JyLSGvEJz2aZ3V6Z+9r0aU4lEWUIch+y5IRecvCetkivo0MrALy7DKTahJwyMVJpcTtKOM2i6gW6HzK23GHLkE8xfCJt0gFNPGkabtlWkUo1s2MWjKpVDa8mjGRtw0sUv8vgLs1RHZSvd/vSNUU7PNRWoXN+uzZU3L1x8obRMxEPl3JM2Z8QxPajMZ2FZ7ZxZo1/fuMuUWXJBxVtcgbgCv6ICMVD5FcWKn7ruVKD5qu3uLNu+/QkkigqoHP2nZ5jwZj0FD8oNuP/PPRncpyOm3LpDF1+YrWGAJeMMy4yEPlYGr6Bj2gmVbzN9SYI+Bz5OMUyg6Uks3ydJEVtzlbNqWRL236MNZ5xyMB07e+Rz8xWXxRD5bxii6T5BWCTwXCzJEtItwlBi98S/zVbS4nwuh2t24Oq73uH2+2YqkukBg9tx0yW7U+4viICKWOyaOqEe0lJ0SCQsLCG4+EV8pwlDEo2TVTiuTb1ZxfjJX3LJxR8gd9CQCvJCf7VDCo4QXyWfx8bzJW2niJmMRj6+IqhE5OPdeme4/+bjSAXzqLJktlXE1zw0S6O56JJO1uIXkmCU0/CDWculNz7C2OcbKRbhb9ecTNOy77nt9skcdFAdI0fsgeEtocZMkHfacNZVb/DEizNVZ6mHbn325ihnmzUVqFxUXXnXffWNxy8rAZWrLtjeH3ZAF6Oi0ALzyqfz9cObrKlrX3c+2fGRrIsViIHKunhW42P6PyuwYlTPa6t37XweyRzNRmvOuPpVxk6cp7ofYtR10wXdOXTv7lhBE7ruUVSW7wG23OR9jZbAxkq3w6OGxoYQy0zz0rtfc+T541WUjsqtka5KicOx7bZwzGE7MmjnrQmKSzDtAsVCAykxiwsjoznhwmi2gWYJo9aKZiIKIHnqd4H4sJZnaGlOcvltUxjz5EJldX/AoI7ceOkupMPZ2JKM7Gv4RoYg1JS/m7jbqlmOoAstF8l7NJusX8uUaS4jzhxPQ6N0TcopKh2PhyZgQ4BLmCISbUcdFV8TMXOkVLIMDc0LqSuHLnXQb2c4/YTd8QrLqaqtoZj3sMwkLS0aulHHjbc+zRczLN78pJH6ElF4iw3b8t30Rey0U0c6dczw3RffcPWovejSRieZXo+Ro17gqefnlDoq2qcjDziw15qq+jkjbT/5ZM45YJkOEpF82/UD6btzBZVODmakPteOeKzH/3lhxk+IKxBX4H9UIAYq8UXxu6zA4nN7nNN6rw2vIyVApRWj/vohdzz8jbo5C0fl0pM788fDeqN7yzBND88I8F2PhJHEdTQcu4IVuQyXXfcYH0/1qUzCnKWwwImIqKLaEd6GAJXDh3Vl5KmDMP1FVBsuuC14gYttmxgyOnJlTKMpJVAYeBSLDpafxEiUlczhI3D78jAAACAASURBVO1wIdusuiP5sBXX3vkOdzw4O+qoDOjIjZftQkIM6kSN5OsERipyl3VdkrpJ6GhKJYTsXwvwDJMVQVsGHfUw//gWktIlEnKKil6Ud/UUOJB0oxALU42dCli2qxRAolQSGktFEnbsXcYZf+zHerUFOrYS0FYk35zDshIEboCdakVjo8Xxpz/OlM+gqCXJhR62bajgwqQd5fhIxt+2W8DfbjqFjtUrKDi2stB/atJCdY1upfPJyAOGrpE+KqIsP1pjyoshO68AqjUYe/dQevWACqcIX5pvayeM3+l3+WGLDzquwL9ZgRio/JsFjF++dlZg/mndj20/ePN7SDWStVtx/X1fcsOdn+IGEUfl7KPbcs6Ju2P6S5WkVksaFAsuSS2JG9g4ZjXjX5nGaRf/Q8l+hV8rH6aC4A0TbBc6t4ZzT9mBvfpuiJ1cjuY1kA4NAsfFTmcI/FC5vyoWSBDghR6arWEom3uDsOgpfxVN/EoCDz8MSCYzZIu1XH3rWzz42PdqBDW0fztuuKwvtjZbGdB54qOi6wShjmVm8D2dQj6ksqyCsHkFgR7iVZQx6Z2ZnHjBRyxrjpRHEvyrFEl69B6ybxWyLMek2fieCLIFoATqqyoJPTeD6jK46Ow96FBjkJEAnMBDK7Nx81mspIXnaIRmG266+xX+fP9iVojjbcLEL3qYloEnRBvRBxnQ6geTvD3+ADddvT9Fz+DcK6cwfsJSpTxao4HKpej7Xcqn78AWjUCNDs+NO4KNumSplOP7h/aidtIz/dfOT0u86rgCq7cCMVBZvfWP976aKrDgpE32b7dvj6fILCeXas1fH57BNaM/pOBH7vEjD6vjolMHkNJX4DnLMTM2xYJPQkuhmZU0FG3OvWocD70g1vPS8LAJfE8cVqhOQ7c6uP26I9msq4nvzsNIZrH1AMOJcn8l99jxPSzljR8qZRF6gCeZOGGo3FsFwhgSeuhGeUK2laIlWyQw1+fq29/nzge/UcDhgAHtufHSPbC1uYqwKlJgIeR6YZImt4o77nqcRYvgzJOHsVHbKvLFZpqTJqNuHMu9j7lKhuwWoiBjlRVUivQTACbW+goleELNSRI40l8pUpOBA4dsyDmn7k2lXQ+FxZSLnKlRpE0ZvHyDqlnotKBZSQp+ik++D+h/1ASypTwi1bIJwbZsfN/H8H0qLRh7b3+23VQ6OCnOueIVnpywfCVQmfpGcOkPPiqXrnE+KuLNc/oT02ZOhfZyfG0T8PL4EbSuWUilkJun8ph26rOHrKbLPd5tXIG1ugIxUFmrT1+8+FWtwKxjuu3W6ZDtXiOzkJZkHeMmLub8y96gRfJxgOGDUtxwyWEY7gKSKQ/HyaNpBpZZSU54panW7Hf03Uz5CsKUiZvzopuuAev94Iny1F1HsGE7j6TfqDoynoxcMDG8ssjZVmXf+Ogq4TjKDZJ/B4YTcVGUPlhGLz6+RP2WRjqmlibvt+Oq297jrjHT1Q18v/6duPGyPmTMeVhhAlfSnDNJGltSPPTcbC6/6ROKDmzUCf50/J702aEHZvsq9jvqYt75QLxjEiULfemYuD+NfKS9Isso+etrno7lG1SnXI46eiOOOnQ7qu0Wyk2fhDj2Fj3FtUHM3aQ9I/Mh4cVYkcHd4kIdPQfcT72nky9K1yeSYUunSFKWkqbHUYfXcvGZQzCLi/H9as64cjJPTly+cvQz9Y1RPwCVS9c8oPL2Pn3Kz3zunQXfQVlOg44ZeHvymZQlZpKRkdqUlnu0i148flWv1/h1cQV+zxWIgcrv+ez/jo99+uGdttngsB0+pmIRLakaJrzSzKnnvUQ2jBoIB+xuMPqaYynTlhM4yzES0l7QCAqmMlprdpP03P1hGgxokslFaURiB7DfnlXcccUQysIFWKGipBLIeAgLwxdyqjw/D5J/o5CA/LsEVHThqwRoqqMiGEa6NNEIJgzEtyRFwe/AVbe9z51jvlag4sCB63PrNXtgODPQHQvLytBSDJmzzKD/oc+QA7JFSGrQyoS9B2/Iljv/gdP/9BBNLdLQEaBiKnZK5Dcr8Eg6P6I/FiJu1PmQf1ZoZbSr83h6/DlkkrOoIItebFYkXhsdXYi70h2yTWXlr8ZYjoOrg5PszLb972SWZBqaOo6jMqixNUOBwAOG9OL8M3eifv7bbLp+FXaiPadc8ixPTFwSZf1Y2sdTLgx7r4nKmWf32KPNRa++Onc2WJJAsFEtvDbxDNL6TNIip3o9e5N26StxcvLv+G9OfOirXoEYqKx67eJXrsUVmL7vet02OH6n76heQotdwZsfBRwx4hnlIyLbbr3ggVtHUGHU4+UWkSpLEHohXtHESlZTn9cZOvxhvpiD3KoJIrtZJGLn7D9257ThW1BpNkSeJpoSAUXpwTJeER6HGq+IPX8EUqSrojKFJGVQSZYFwMj7ekpmLDf/QLJ7tAQ5vz1X3/4Bd4yZppoxQ/rXcNvlgzCd2STMSnSzLV/MzHPWhQ/zj2+g904ZRcZ9441m5X+iAJA0hcpMGloiIKSLWkiBJoErAh/kZxdMAVSRVb5WBDswqTB8Ntow5MKz92Pnnq0wvKUYYtsf+ugi39Y8XFNUSgGhA5adUsAnRx2X3zKZe8YuVBJn4QMZkfcv63Vcjx16deWDKa9x/OGtGXHYbjhBirOvnMRTkyOOSg+Dj9+8mDUSqDy6+w7dLn/t3e8kW1Kg3tbrw4THTiWFABUd78WGUda1b1yxFn9k4qXHFVhtFYiBymorfbzj1VmBz/q1ad3jlL6LqVlG1k4zbXo5+xw6RgEVgQrbbATjHxpJubYUO2hUIX9e0cE0ygjDJK5RzvOvfMnDYz8jRxmzli2nMQdbdoerLxzGVp1N3IaZWHZSARBPj4CIHspYR0PzhQkjuMBTj0uqsIAWXz1HEoZFVyydFB9fUocF6PghhiFApa3qqPztoa8RfLFPv0puvWQQFVYjOdeioVDNKefdz1vvw9knb8YhwwajJQxuu/dJ7h77Dc0tgo2kYyLHWozyfBRwisCKBAhG6MQFoxg97EUgywzE/D8gpUHCgL67wAlH78VWm3bFyTWRFIM5zaU+X08mk8DQNDzHjdQ/mdYsatY575K7mfJOSCGEvJCQDV1CqrEJyGhw46W7ceCgroSGqH6e48kJ8xWw62GZU9+88IesnzXQQv+ubbfd9oa///1D0ScJUNllCxh35x9Jm/NIZkOKE1acnLzp3dtX5zUf7zuuwNpagRiorK1nLl73v1WBj/pWV/YcOXAZdfVm1kwwd1E7dh9yO82le/aG68ELT42kPFxCWpf5SF7dcK1EhmKLj5auxidF6GXwTVjiLsSwQ1KGRbVp4q5YTqbCIvAaCMTITdMUGJFuiiLKljgooeKuCFCRzoKmAhC10EDzI6CC7iqwImAmFJKtbpIL2nHl7e9zx5gZqmFz8OBW/PWigVgspckoY+wzH3Lx1bNpVwsvPXIcNcmsyiVq8GrY9eDbmL1IAEdCIhaVZ0pYGvf8VNCVDNog6vZIenJCyMQOKUvHdyUPOcI2RgLKErDlRrDlphtSWVFFIpXGTFt4fo7qKottNl2fLq3T5JuXUFldwdJsmuvvfJc7xn2GK3hNNZHEzj+gSof2lfDapCNwfY+Lbnidp55dKHzjcEsjNfVdP9/r3zrx/6UXX7/1Fn3v+OTzlxeXDmffPnDHDSNIW/Oxm0LyTy0alr7to0f/S7uP3zauwDpdgRiorNOnNz64/60Cn/Vrk+lx7C5z6ZCrbjFsljd1YrdBN7FY+J9Ah1p45bkRtLIasL0VmEZRDUTAwit6BFYm6gQ4Bay0Ts5oxg0DdCdBwrdJhBq+XyRMCsiISCwKqPg2WiiAJOqWrAQCESclelyep4CKQgIloKKLPFmAik0+aKM6KrePmam6IQft3ZbRF+5F6C0nn1qP/Y+4gy+/g7oyeO+pw6jJtIARsjhrc919H/DAk3Noycrb27iRu0o015EfSn8RotGUPKRjWRaehCCpoRAkbIui40cKo8AVnqxKC5ZhUTIV1c8pzdBERZQIYfst4cKzBrPhBq0IzRpmLG9N3wPPozniGINjYEl0gBOyXXd49IEjSKSSnHzB04yftFTGU8FWRuqT99dQoHJZ9+7DH/jqqzECVATaDR+Q5s8XH0qFvQijEZrGzRlQee8/Xog/kXEF4gr8+grEQOXX1yx+xTpQAQVUDt3+E7r6G+atJM2Fruwx5M/MbIq4JFVpeOXZI+lYXiARLMfUC+qGrFoYaHiahe86JEyZyRQp6iF2ohzNEQv7EBI+uDl804rAh7A+pItSGrl4Vo5Qc5Qpm3RTNNVhicZDAlRM4agodZAAFVfxVEQdI6OfrN8+ItM+OF2BggMHtePmUXtSljSY9HYjI88arzzkTj62Pecf0x/TXYgn+0pW8tVsl32GTSAbQJMHngInEXFXObmp/Zd85tQgyJR+jxLxuKGPZSVxfYdQLPIN0BwNS7dwQ1ErlWguMiLyIGPqilArbysGeKaAqkEd6LF1bz7+tp57xk2JvFpkCaFFhemy957tOHPEnqxfk8VO1XDGZc/x5CRFpg02s81PTh+833ZrojPtud06nfPYjNnXCVCRxf7xwFZcfMa+EVBZEbDiwZnb14796v114KMTH0Jcgd+8AjFQ+c1LHu9wTajAR4Pbp3sO6Pkim2o7FpI2ebczAw64gS+WgCddAAsmjx9Jt9Y2GdvBzzdi6GIjr6mbb6BbJC2bsJDDNE2K0iUJRH6cQggXmlHAF3ChCUdFLN2EbCqdkgShHuCaWXWzD2XMExjqdxF5VjgqQriVvGIh6PpqdKRGP4qNa1EIa7nutle568GPVCmHDmrHTRf1J2EmOO7M8bz05hKOHdaOC04fStJdjK3n0JLQXPDwtDpmLQoZ/+p3PDbxQ6bP8SN5tNq/bN5KNXKpuRKtS3xfpFOgGTaBMGSlTeKEaGK2Ir8XlzvNVesV5JGQ9asfBaL5+AQkJIKoROYVgKVyg0TVLW8c6CT1gG03h+uvOJBN1k/SlNM5++qJPDl5hfjhBZ00vjpn+x1OrVi+vMnTfVMERb4sIRQIpJRRoa6t7AWJOlrBsP9zC372mv+/J+vK6jfa5DUJTQvE+TdXUZl5bu7CI15btOgYUa5LQsHph7fl3JPlnCzBXgbLH/iue6tHvv36/1xM/IS4AnEF/kcFYqASXxS/ywq8vivmroMGPUnvxJCsWSQMO3DIsXfx5jcgN5t0GupqoCIdZfZIpt/KschP5NOfOg8rHcgEZPx8k+f+bKJSIq3+DBesfPIvXrfygxlGgp9IHVTaxI22vhmaZXwTwP59K7j/8qNobvTZZuBtZB147v5hbLWBCWEziaROAR9HS1F0a8j5VSxaDo89+y633j8FM5lU/BPZDF1s/CPlkWVYuL5ADHVrjiZRpvBaJA46eo4SLMlASHnglzgtQYRjIuF1CgcPTxcFUYRjpJbrtYqOa2mjMuVVj8uO6my45YYd6bN1G0iWc9oVz/DYxAaskgipApQeSvYk61m559LE5eel/38CKaUX/Nq/gz+eHh10qZwov4pYOBRV0OTlf+zACUfuQGg3Ut5SzowbPl1/g2dniCgo3uIKxBX4lRX4tR/QX/n28dPjCqy5FQivHHQPOyWPzSeLGLTh6JH3MuFjaBa+iOaRSBk4BT+yjS8hEWk8qMbGb+iNKjf0lZv8LF/SiVDxQBoMG1TDTWcMZuGCBvod9SziPXfj+Z054sDt1WhpaZPDmKdf4POvssyfCwuWwtJ6CG1o8aEYQFk6RUtLHl0zFWFXnHCLJaKJ2NwLkdfzS+0QtRgdyzZxxUlObaXxkRoURWTbaNlC2tVxV8qcA6hMQ7/eHbj68lOZM38a33w9g6+/WErzshV0Wy/BscP3oG0rlxbX5uTLn+HRiY3qzYLAioi/gg5s1U0RrnG0n5Vo8Lf+LuRZQU1GEk8WhEsFAded3Zkjhm6DZ2Upb6pg3jXv16734jyJAYq3uAJxBX5lBWKg8isLFj993amAf9Ee1+m7lZ+TL3OwjPacdsE9jH0dGsX0pKR2UcBA+YxEx606JIrwulLS+9+th3RU/tUmrq4CUmSZhw3pzF8v6cvihXP5w94vUlEFt1+/Cb02Xw9N68ADj77NpTd/h56EIKe82GgQCk2EN5SFfuCICZtF4EhrQ8Y5AZZl4AqJVv65ch2yT8MkFHKJ6qooBgt6CZCEiN64hB5kBKSl8EMNz3Aip1pMbN/jD93hqTFno/uzVYK0EbbGLfhYRhZDzxK6y3Dt9pxy9Ws8/sJiHFdToMs2AuXBIudBsKJQhFbXpq6LqLGkZOI5V8cwNCrw+euF3Rk6sDu+kSe1IsOsaz5KdZkyS6zf4i2uQFyBX1mBGKj8yoLFT193KlA4a6czEoNa3VhMF9G0Wi674VluebKJFs0kVDfVnzbj50BFkT9Xfx3kHi18iMG7t+au6/bCaVnIM6/OZJteW7NJVwfDz1PIVfPq+ys4/MxX1A1+p+41BH6O6UsLrMhGQEdl+5RGTALMTAN8H/V8lZQsN2TpJJW6B9HApTSAET6OdFcUUBGGixiu/ARuNNFuK2+WACudInQ9TDfHdhvA+DHDqUgsRveK+MUydM3CSId4LSvQNBc/2Y1jLnyep16uV2vs3L6M/rttiOY3ols2QRDghuID+1u3UaL9iSdOQrpKYYZnX/qGOYsctZJy4JEbtmPQzp1wgzzWYrNhyk31dbtNmfLPF9Xqv4TiFcQVWCsqEAOVteI0xYv8b1Sg4cRtD648tPOjbqqFIKji1gfeZNTf5pFTOTUlJFLqqKwc/fxTR0XdIn+bj5CEFqrgQtlnaW2SYCyA6cgD1ufqs7anIrmCImm00MdwV6AFLqaVYWFLa/oc+DgtzfDGQyfQqb3JnOalfD9/KZ98NJtvv5zJ4uURENl++/b07T+IKy6/m8+nRRCgWJJsa6RUFybyXhFyrcirS8GCavQT4Mi7RAIm9YZ6YGOEkiCk/G/Vryq0Ijv3gHH3HIahLcEUtzfHwrBTiu3h+XlM06DA+px02Ws8/cICZOrUt081d157FGmjPiIeK4t+OUFy/y/t8Df87mNQDGzqczXsf8z1fDXTVVEJ5SE8d9uu7NSjGl2Q4Fxt+pS/NWwaA5X/xqc4fs/fQwV+m7+yv4dKxse41lVgyZFb7Fx3xMZvFDNZgrCcJyZ/zR+v+Fxl4/zTJt2G0gM/m4BEoEHdGFfPJlyQqjLos2WCR/96OKb7nep8yEiIoouetpVEemFLDXse+wKNy+DTJ4+ltrwBqjQWr6gnbbbH0NMUPelMSNcjSS7nYyVrmPzie0ya9AEzZ7ksWARZ98dEADV6KYZQLBXGLhVGMVaUEEiURIJZxG63FFQYhpSZFoaX44YLN+aQ/TZHCxvRpXtV0LCTFnmvATtpqpHKsnwbTrz4FV56u1mZswzoY/DoLcdgFGZFSmqlF3ej+ILVsPnY+Fo5TmIDtul3LXMkO9EGuwhvPjSQbdYXLxwNZngfMHliH+2JyNou3uIKxBX4dRWIgcqvq1f87HWoAvMO3mSjDsdv9k0h3YymZXj5w8UMO/Nd5TESbWIUEslto1FPJNONuggrAcp/F6iYhonv+yoPRyvBJflZrU73FMl37x1rGXPDgaS9mWhJE6+5EdMui+Y6tkdOa8/AP45l3iyYOu5UyrT5FOzlJMokKVEnEIlxaBGEFprcfEVGrZsUPR8zYdOUzdOc91i6tJmZc5ayeHEzixc2MH1hgeffaxFWCmYJqPgqu0fqJnXy0YKSSZxp43uOItluszE89LfDaFWxjNArkNB0lZ4sz8979ZhJ4bxYFLSN6HfUGKZ+pe7/HNivFbdfNADbnYMmxBpTHH5/Ms377S9NnXzeJ291Y8v+dzNfVFgGpAP4fMJBdG3lRWzlb4qv8McX+pUEYL/9MuM9xhVYyysQA5W1/ATGy1/1Cszbb5PaDqduvcxL1RNqad75vIEhI16jqeTrEfEwFOVUmbDJFt2PfwlOorFGNDz5730Xu4/IymPlfjxsA3bZqpwnbz6ICuaCjEIk7U9kMZ6DrxcpZLow+KQxfPRByOv3HEzPjdK4+jxMu0WBIBnI6FoKV8zbEmWKqVpwCySSBoHmKIM3DBm1WPhBCtuuIt+i8/Vcn36HPqg6UCv/kEj4YNRlipKYTStQYxvh+CQ0qE7CA3ccSe8ePla4EFN6Lo4fqaqEb5KJUqTzBZ+C2Z1dD32IL2ZA2oCj91+Pq0/bgQpzuepU+MUiurVSbbTq18GqvlJdE7rBooYqttrnMRYLITkF5QF8PXk4bcPF4Cfhm8I4beRLh63qfuLXxRX4vVcgBiq/9yvgd3z803atK9v0vF1WeJVNVqgn+GKOzy6HPk+zNOjlJvQzoCL/FtLo/+TQlrxD1POjFOTf8rtmQadqmDbpKNLMxs0WsdIZ1SlRkl7DZ6nfhqGnPMZnn3rstBE8cd9ItGAmphG1AKLk5F8CMDkuSW4WKbSHYUWdEs/RIi5JYLGwsYwBBz/A7BXglv6SSFcmkioLh0W8V6Qd5SmCru3D0UPruOycodjBbFJ6gdAzsaTPIhrptIXvLEGzdXw9wXKvIxvvNgZHiLwFuPKcHTh2346UGUsFH6ggQxXw+GN367e9mKMum820mQG7HfECS+W6MaBjNUwdfzh12nJwEmTfmvvX8ks+PvW3XV28t7gC604FYqCy7pzL+Eh+ZQUWDG6fbnfiH+aFtflquZNOX2Sy48HPsEzRNcQ7RG72UUclGvXI18/ZKj+F9v3KXf/nnm4Z1CZ9Ph0/lI6ZxWDaKjxRSKyabeJoBbJ6R4488ymmvJVj47bw2oSzsfzvsMJGNBLoP+qtxZU2UMGIUUdEvFo0HN/DNG2VbeQUxdJfZLgGOa8VL7/dxDmXP8+Slig5QHi+YruvR/ofAjtF4EXBP7UpuPzsTTl4QA9q7AKhI+68Yi+rYQiwkrZLmFWEXDvdis9maex+2HiapdGiwy1XDmC/3WtJagtUxpCszVBAa/X8GZN8Ji2w+GBakQEnvoJQfOUS2Xh9eH/scKrCJZBP0jTl+1GVV35+xX/upMfvFFfg91WB1fMJ/33VOD7aNbQC4VAMhu03h7aF9jJDWdCUYbv9H2NhVqgPvwQqKzsOK8HKypv56iFyRihCWcVSrntM/Gtftt80iVWm4bQ0Y2tpRWgt6Fkcqy2X3/Amj49fQFWlRAOcSYUxi5TWpKz6o/cSBzmJKPSUXb/CZkphZBBKZ0kca5XiR+z8I66sH1ZQKLZj9N0v85f7ZkquoOpyRIJksJLQIKCv9FdGHFsfHr0L/bZtR7kZ4uZXqEwkyTCy9SSB62CaAV4o7re1vPFJAwef9CKFAKqBCQ8dS4+uBSx9MaFKlZaezUoAuRouMuH0OGkmv7OEYee/S1YESCbssDk8f8eRVHhLIJdg6SvTjml93fT7V8MK413GFVgnKhADlXXiNMYHsaoVCB8Z9AXrB5sJG7Teq2Xbfccye7m4jcqYx/oxVfinPspPDqwruw6ruu9/+3UlUm+5HjDquM6ceuQu6GY9WtCCYaTwfRctA03FFLPmVzDsiDHkPdh7QDn779GVPlt3wtBcDEEXyqRNwIr0QUq+JKHwUnQMO4nvS6yNq0ZA4kjrSRCjo6NbrfluYYI+g8eIcEfl+Rx1+C542YU8PeFbCgY05iOTOfGaP27/Ki477QAqtGZMM4tj5PB1D0tLEHhBFIGol7O8uZynX57B2dd8qFRM7Ux454WzyRizsMwVEbsWjyDUCMS+f3VsQYLAr+Khp7/g9L98oYCKCJH23qmch67an3JvqQIqC579eJ8Ot8+ZsDqWGO8zrsC6UIEYqKwLZzE+hlWuQPhg/3foZuyA4dCstWHHgx5m2lwxQfsZUPmZwVtYsoqXzsPKrsMq7/w/8ELpXEinYvctYNxdp6J7c7DtLIbm4QYu+VDCccrRrfa88e4cTjjtFZWbs14NTHpqOCmzAVPSjbQQLZT+ROTNIjMMxf0Q/ooi5gaEvo8mrRTlVOvjaRoFXSerdWHAsDv46nvFueWhe45nx23asWD+LK4aPYaXpoBECcnLOpbBk/f9kQ1aN5JJN0KYJ9BcvFKCs+5Jl6SSgtaV0y+8l6emNKu4gkG9YMxfRxL6czCMZoISyRkZHf1GXja/PF1BKK67dfzlnle45sF5KiNKSMFH7tue0Wf2IxOsgJYEMx59u9cGDy78+D9wuuO3iCvwu6xADFR+l6c9PuiVFQju7jtZ657sj14ga7RjwLEP8f6XkisjEltJCs6r++BPTrQRoVYlG/82Lvr/68mSD69YyMvNsU0aJjx6Ihu0LWCHSwiDLJrloyVSFFwdt2jiBm2YMGUut/z1VYYOrOCUE/fD0pZgaJGzuxyjRAVoJc6HAioCIMSiVmCGyIEl2EZsa2XHqTRNRY1vFpoMGPooXknNfeOVO7LfbpsQuFnyRoaPpjUw6prnmD7DJQH02Rzu++twalLLkCEPoUNBD5WCRwILHaccN7El2/e/jBkrolyl2/+0BUP7bUw6UwQtRy6fxbaT6JI+XQJW/23V1S/f3yOFp7Xh/GvGcd/zOQUKTR/OOKo7Fx+9PWm/UYCK//nYVzfqMW7x9/GnLq5AXIFVq0AMVFatbvGr1pEK5G/d+eFkj8rDMFvIGe05+MzHeOl9l8C38JEQvNwvgMov0pBXYx2Utb3wQqSr8kO74tJztuekA3qS9OaB34SZEGlwgTAIMJOtCPMWzVoNTS05KCykTW0KQ3ci0CUGIAJGfqmg0YJIwmxq6IaOH4SKxCqusE35BI6xEZdc9yhPPL9YCXfqquC5hw9k4yqbhFaElMVyJ8NdT3/JVX95T/mtmB7ce8tW9O3dgYznq8CcnBUQmiHJUKfgVTHloyKHnzKBBg1alcOUBw6mn8qn2wAAIABJREFUc3UDyTIpuI/juNhmgtD3SlqskkXuSqvc3+C7R4Y8dZx07n08/U6kfEr+gOkuPW17Ttl/C2xXgIrd+I97X9poy6cXL1mNl0q867gCa3UFYqCyVp++ePH/bgUab9j+joperUeQyJM12nLcn8bz7OtZXF9uh8JRiVQ/IkhZeStUlh+/sKr97W+TJU8X2bEGtg19e1fwwJ+PpFKbjxk0o+sFgqCInkjj1+cw0jU4oYGdsim0LCKZsggkREek10pW/JOx3U91XWmJL94qHm6YxEpXsby5yNfTl3Hz6Df5+DNo2wF23nk9hu6/NT26VZAptKALjyUs4iU78peHPmb03V/gOrDFRnD3DfvStXWAWSxgWjqe6VHwHQzNwAnbM/KCp3n61RyuBb22MJh451FUmwsounJMAbaVJgw8QpU19JPh68oOy8oOmJwnUTFF0Qcy1grQ1fEKMIu26Fz+XHi+0qfml1fXP/+5dLQM2aANR59yDy/JYMcAwVHXnrczRw/cBNNphCZ7yce3TNyo1yv1jf/utRq/Pq7A77UCMVD5vZ75+LhVBbJX7nhNZueO5ztWlka9houufYlHnluk3Gmj5kI095EuQNRz0PC0MPINkd+vvEeujly8krpGpjBiKV9tw+vjh9Olpomk3hwZqIW2Uu5oavVi+2FAUMT1slgpG0dCCcV2zRdX2kDSa0rJ0BKpLM6vpbCjhI1PkqUtZXz89XJuffA5Pv0cUjqcfFRrhu87kMqUKI2bCcM8mZRFS3MzZqqchfVl7Dt8LHMWwa67wPVXnsh6mRx+ywJ0K8QyNTTHiSZM6TK+mm2y5/4TlOOtyJ3PPfUPjDi0AzXpFbQ0eCTMFKZtUnRa0CydQPfQQwEhOqafQGTD6ryIekk8WAwPz/AVaVdAjekbmG6qxL8ROXb0FYGVSHIeqYlkK31XaOafSbsuFbSwHnsNHc1XC6KkgIoQ7r95MLv3KiftZGFFcv4//vbGxlu+tFgoLPEWVyCuwCpUIAYqq1C0+CXrTgUaLup9XuXu3a71UgWajGquvPFV7n98Ns1CQlXdiig22Ajldi6wxVA0Wk/CaOSBlSKZ1VQSGaWIOavjmVRYHscPbce5J+5KbaaeMF+PlqpRnjAKdfkuvt+CpgfoGRvXKeDrlvJFEV6KEQqh1ou6R0Kila6DlqBY1PH0cr78fjmX/+VF3v8ctCSk03D3XwbRZ8s2JNyl+MUGbHG21TWa8y0kyutoKpRx+TXjePxZh25d4fbbDmO92jwVoYMpEmMLss0NlMtMJ1FFfZPBPY9O5apbv1OlTWvw3BPD2WqjZvzsXDKJ1lJ8XCevgJaojyKQEQEVI7DQJBlQvhTOCAj04GdARWIHzB8BjXqtABWFSQXdrAQqK0GKoMD/CVLkty5VNAbrs8eQG/l+WbS7skDIwgfSazOTjNMM8+wZ/7j/3S1joLKaPiDxbteJCsRAZZ04jfFBrGoFlp67+YhWe25yB4kiRasV193zd2689wuyCoPoaLZoanRw8+iheLMKd0WcU8XZTIilLtrKpOVVXcSqvq7U7FB+J1YZOFnqTJg07iQ27bSQhLaI0LUIXB1bEwM4S/mWFAtZEsk0uZYWLNETi8mb7kUjoCAVqX20opL9unoGT2/PpJdncPm1r9LUHGGA2gq46+ahbNmxnLTVgJ9qgLAAOQPDsNHT5dTny3l84iyuuu4tUkn4y5/3YfttDCqSDRQaWigvqySXK5KuqMDLZSkGtSxuXJ/9ht/E7OW6Chvcqz/cfM3B1GrC92gmaWQU8HI9F0vkS15pZCOMW+mE6NGY50fOjaptBGRkE1AWgZOoFWZ60klaOUYrAZV/Oh8l35yfc3dKPjNFqliYbcvug29nYS7iF2cCmPLs8XRt10SykIUZ2mezHvziD12mzIoYy/EWVyCuwK+uQAxUfnXJ4hesSxVYeNrGQ9sO3OxxkjIeqOaO8V8HF9/4gS5ARboNP5FLi9iagR0klDC2qO7vbuRwJnOX1bGV+Clq1yLTDSCDy+Dd2nHrX/YhGX5PAk8pUQjSeK6LWWZQyGWV4YdtWpGdrNy0NRm0SNelTN3oA/E40XVcs473P13OSae8Tq4Axxy9BTtvvyGbd6sh42epySShaQG5dAtmysD2kwReghV5m4+/bOa4017C9WBw3zS33DACy/8S31lMItkKt7mIZUoHxiQXSn5fG6647g0efuZb1cRIJGHis/vSuXUziXyRciNJWNTQbFFjyVkI0FWgYqnzpXsEuqvURzLEEmm14EkZC0lHTACYeOP4WohniporUEDFkMd/TGBeaeS3cszzr/5ERuCoSDXfLKxgz/0eoCmMvGKqgL+/dgZV9myShQJ87b/NiBd3jgMJV8cHJN7nulKBGKisK2cyPo5VqsC8kZ127zCk56tYDp5eySNvLg5HXPyKllOuryKmlft3iLBARTor+ERuU2K4qsZCq8nDIwInJfZrKFwRG0vTybk5xRW55fq+7NK7kgp9EUmhBdt1FJrE1dVFMzTlIqtrFqZjqcNTRyStkvAHn3s9wEk0kDdNGt1aLr/mSZ5/Frp0hgnPXESufhp16YCEmMM1O5EFrRlQFFfbMMQ32/DE5BmMuuZdxYGRRst9N+3G7tu1UV0ejTyaVoVfCDGMJJ6nkc3U8viL07jgsg+UKZ2twcH7ZLjyTwMpCxeTkspLN8XVCQOHotlCaAZqFCfkWNOPyMACVAR0eCqnSVdjLAFquqQsC/oJUlEGkukTaMJtKXFZ/unqkRHY/w5QFPcFKFDHB1+b7Hvko0hIgORBrl8B77x0BulgJomiA5+6k7XTXx64Shdn/KK4AnEFfvxTF5cirsDvtgJfndBxi00O7P0P7CKOUcEr01z/kJFPGlkRw2Bj+B6tEhZmsSgaoMgQ9Sfapequ/Jd5tDJYUrfN0n5E0KLJv+V2WfqfurBJJKTYKpgWOc2lIgXj7j+A3hv5eM3zSBnlWEYSrZgHS8ZXgep0iNW+TE3EeC3yzE+okZaTyJE3DEK7I8MOG8N3X8LIE7py1OHbkbLq0ZwGzCAg8AyMTC1uIaCoJ/DNCq66+WHGPOar2lRm4PzTdmTYoE1JshAtqMeUhMIgo4i+iohit+KNGS0MO/kRlkuzJ4AO5TBh3FC6tfaxpPuRLeJKOqFepVoXVoVDfctSbFNyhaIRjoASqYqvy1d0OPKYHJ8pTFc1EyoZ/OvRaCly5P2fHbEo6PDnj5dGTD97boE2vPBhjmNPm0hzCcRu3RkmPXISGeZgFzX4sGWcdu5rcXLy7/YvTHzg/4kKxB2V/0QV4/dYaysw9ZBW7bc+Ztf5JIsU7Uo+maOzz+FjyLpRI6UOGLLpFgdtltG/rPD9oEygiiNjEhtH4vM0TfAMSqLyb37XrX+drqf2UXp/PQy1wA90PTQ1edzz5bYOJLzU6998dfakrHvQMjDsMmhbBeNuGkiPbgn8/HKSoviRVpBKSzbAtAhlJCJ+J5qIUnwIEsrkzRWfN82i6BksnN9AgiSdOrTD0BogaIrQhC6e8aUJmF5NvVPFnY/8nZvv+oZOneCcUw5k+03rqC3L43iLSdkuuuaqyEJdWhCBRWilmNNczmHnPcL7X/oqQ8jy4K8XbsghAzYn5RUg9AhsE92uIpevpOAKzGqirEymVlkVARARgEsgUrxfDBdfgYqfuioiTY42yXHKRA0WXY7d/THY8Mck5pUp2D+CFdnBPwOaHO14cOJ8/nT1W7SUuNX9e8PdNx1DpbEYq2DgTmm41b70zVPW2g9IvPC4AmtABWKgsgachHgJq68C7w7tmNr+yD45Kgs4yXK+W5xgwIH3sqIQyZHbAqf32mGLP3707herb5X/b3t+d6/ta8578b2P5kAXcReT2+pO4gI7+hhalTWg+40krEQk3XVEby2qnpBQTN80MbbzkIgA4XEEYUL9bAj51HdV3o5qXbguQeCiZ9I4hSy64RLoJgUvhZ7ZlF59b2PBMtinn8l1o0ZQZzaAswQt5YMVks8XSVspdNcgoJxlxQwnnP8gkz4Qq39IanDAnrXcfGE/qvUG9CCNEyQo2CmmTpvBU49M4e8fQlU53Hhtbzbu0gYDl1CJq0WplIg4NoYAkCI6ErQYKFwV/bGTFo5JGKTVAUVAxY+AivJX+ZkEuaQmUr2ZX3ZdQp0WrT3XP/gF19/xGU4ICR0O6W9y3YWHUGU2YORMCi+tuDh1zZtX/r+dwfhZcQXiCvyrCsRAJb4uftcV+KgnVs/zDplNW69dMyGuvR577nczXy5EjXraACO23KT/2Z99/eLaUKiHtt5sywc+mTb5M2jnJS00z2WzbnDvjcNpW1cgpEBaQEN2BZZ0RMIkoZBmdY9Q99EMncDV0F0LWyrguVH3RHOVp0mgJdGMaADm+57ivLgE5DWNGQtC9h02RTVaTjjM5Izj9yPpSkekBS9RpBA4JBIZ1aUJwgwrctWcc+VTTHw9S0GHsiR0roVH/3YEXavrsbWAZq89H3y+jL+NfZ7X3yoqufK2m8FVf9qVTbpUYQpI8fK4ho1nlJPPlbOioQVdy1NbpZFOZDG1Arpu4DkeZjJN4Po/uuuGslhFQ/o5UCmNfcQgTkCKioTWFBnZMG1lOGcYJk1+ey4Y/R73PDpdeagIyDr96BrOPbEfZWK4l0vSMGHBsdU3v3ff2nDtxGuMK7CmViAGKmvqmYnX9ZtUIByKwa5DXmZTa7dCSv6/XccRp9zB5I8jMY8AleGdOpx11ez5N/4mC/oP7OS2zt0OvmfWjAdnQ0IGOhLR060O7rnjMDquL92MRdQY9Vji2Jq3wEzgaA4uPpop/RQTW8l2pUMhfyJE3eTghj6+ZqHptiLiSqfCLzSRyKTIeh4Ll/u8995Semy+BRv9f+ydB4AV5dn9f1Nv274Lu3SR3hF7R6PYS1TsDcUWNZrYSxSssfdu7IhKsaCCDYwNRIqgNKnSy7L11qn/PHOXfCb5vn9UVNpMouty751557x3uWef5zzntBVflmoioqaRHpph4Ss6GTtCyilgbSrOOZe8wDeLyItnDWhVAa89dibtyh0Sao6MZfD0a1N56Nl5rE1DPAb9d4J7hp5Lq4I0WHWBzgY9iqMmeOGVMYwaVUNNNVx5aStOOekQcFbjZGsCYqKokiykBG62hiYxAA5+ILqV6aD/vaIiyw/cb1Ufx3WD0WsxpvM8yKhtGXztGN6cUB2Ihsx/TF3ddX0nTj+qLzErhZouZO3w7w6sfGb6h7/AtoanCBHYZhEIico2u/XhjW9AwL9xn4fYt9lFVrGCZSe484lx/PXFNThOXqMyoCA27KVk5tQtCbG/tmh2yZhV64bOUdXiGs0jrkN5Av50zm4MOmZnSrxFkF0PZinIGLZi4SoWimoHslzP8dEllFHEKhJMKOUlQ9pEQmd8ECLj+hjivyJtJs/AcsTxNYoeiYHp4nkpXCWD71qototmVJDxW/DR5FXc+uhY5ixxyeagtBDaVMCDdx5HjzYJuQyWXcQdD7zCU6PWYcQh7cBRh5Yy5PLjKFZqKNQsHN/Eibfh3Y9mcPvtE0g2QnkxXHvZzhw1oA/p9UuI6D6aqQbiYUdaPLqKorr4jo0mZEVUt/8nUWly8xNDOCknKVpQTZKWmG15ZM0O7H/Sw8xYQJBIbbjwxrP7s1evMsxMFhqLvCVPTOvQ/o25S7ak90641hCBzQ2BkKhsbjsSruc3R6D+/L6nFJ3Q+aVsQRbXMXl/0mqOv+KzwEusyIUdYdZ46LWleWE82KPzLo/M+m7ccigVt7FYDKIW7NMPHr7tNEqiwZA1qmqB0oimWOiBH7+L69n5yolWGIwTiam8j7jApnFFvEoMTdHRHCeoVmAmwBIdigkNDeR0Ez9qkMMiFi3CrhOyUMl9j7/F068tZ70T1GloFocCDYY983u6tStEdRxcv4Trhr7I6Pcbg+fI2o84qIwh159EVWEtMRH+WgYZr5xHR33F7fdNC3iUDPA8ds8BHLxPJ0x3LXowyaQHniqOGc1bxgTjURk0JYXi5tA1JdCl/EdFpUmf4uOgqGoQzJgndBFUTVx9FWqcFux06GOsTQWdIYp1+PydgbQrzqKnNaiJrVnywMTtQrO33/xHOrzgVoZASFS2sg0Nb+enI7BsYIeOrc/t+126MKlofoTF6+PsfNwrJF3EB45OPqn7dtml3QGTJ6//6WfftK94edcuvf82ed7zM3z6NgRJRV4wMiz296cc14WTj9yDVuVO4Bbr5mqCCGBV0fFkfFf835qGoDVPRQ00G+mguiCjTqoSCezoRbMhg0S5XIa4pCOqKo4ZIWn7uGqcZCrBZxNW8uCjH7BkHQGu0mkpiUPPVnDvrcfRtUMEz7NIZQv520uf8MATC8jIaDGw146VPHL/yZQVrSGbXYk4ukUi7Xn21Slcd//X5KSz5MHlF3TinJP3oFlBjkxdNYl4IY4Sozaj0mjF+X55La6jUtWsgO3bG7iZlUSUNKr/b2LaH4hoxbFX1TQs0bWoERxHRdESeK7GjAUWh575FhlxCHahT0cY+/KplHg1KNkILHA/VQa/tc+mfQeEVw8R2PIRCInKlr+H4R1sJALLBraOtT6l91yvymmrolHvtWLPk55m1rJ8x6PtP7SkQ7t12/3UOXMmbeSlNsnLJ/TvH31x7twn/7569YkZFKM+qI0E08m0LoGTjqrgmMP7sV3LMiJE0H0FT7FwyOArGVTVD8zkVM/GlzRmafX4MXzfQNUiWK4XiHAV1GCYyFd1LCVGfRbGjf+CJ5+ex5Ll+XkbRS8g56QwVJ+OLeC9YRcT85cTj1tkvCjzlhmcdNYrrEtCVM+HHg5/5o/07CQBiyuIJUzSuSjTv8ky+OLRLEuKxEalXzedZx6+jFKjGkNJB20ryzX54O9TeePtKXwxWcS/UGCC6HuPORKuuvxgCiNi+vZ/EBVFaJoIjDVs10MVczo3gqrG8V2TZ1+bxLX3LiAn9i4eDD65Fbdeui8JtxpSRdRNXHNz6V8+vWGTbHp40RCBrQiBkKhsRZsZ3srPQ8AfgpppuevoWO/io8SB1tG24+ybJjDsve+D3/zbeHBuefHV162vv+PnXWHzeNVD7dsf+f7ixX9ZCP2WgZpt0rlGTagoge7bx+i/yy7svmMPtm8TpyBu43o1mKa0PxxsJxUkMhtCULwSbE8jIxUHM4bmFVNb77Bk+XpmL1zD55O+4/MpK6gTqYbIXsTqJVZGLplBJ0NRAs46oSPXnNOfQrOBjGuzLhXntAuGMX1ePrlAqhTnndaMay89Ad2VyR2VNCpz5tdw/Q2v8c18cZhVcFyfiwbvSf+9ulIc88hkMsxftJ5XR3zAN7PBUCFuwl67wfGH92bfPTsS0zLBxJIvjrU/nPoJvmtKUlacgKigqTiugq4XBEQF4riOzvmXvcDbkwgqOjEdnnn4eA7cAWJuPdQXWPNfn7lP5yfnf7l57H64ihCBLReBkKhsuXsXrvwXRGD9kJ6Xl+3f4S6cWvxIa+4duYSbHvmCRgdaeXBIRHv3qZx72C94yU1yqiFDhqjWc89dPHbJkqtroHkO1MamlUQ3TOUCzYuhc0fo1bMFLaqKaNGygqLiGJGohubqWA1Q15BmZWo9cxcuZ963NSz5HupSkJEhocDOPgg6Dqo3Iu9wc6LliKG6mcBu/uE79+fYfStRvSSW0YJ7Hn+bh19aSYNMNIvxmwJPPnQUrSsMFs1exuw5i5j13TpmzYfaRjmnQtb1g6kmEeBqTt4rJRolqObI9VVdw8m5DDyyH7ffcBpxbzZxZS2G04ioV4JZ6iCJoMkopslHZUNwYSAuFhdfV0PTY1iuTtaOB8ZzBx75N1ZnIetDRQI+e+9qmmnziHk5WFew+OM3Jnff77kwjHCTvNHDi25VCIREZavazvBmfi4C8wd17N5x4K6ziK3HMuJ8tczg8NNeDX5bLnZhe1g79IADOh/44Yf1P/cam9Pr3t1116K565af/c6iFaethD51INZnQS1BWjTiayKf3ZK5I2PaEQ1sDzTRk4qtiA1idCskRz7KxVFWpqSkVSbEwbYDp/5gGqZLFzjwd/vw4UczmP5NfTDaW2jAyOeOY6cOtvSRWJnuxNFn3MPi1XnxbBBIrYJIXgK/NXEKbip0yEMijHWDPKb841qTM6x8u+EeAht9VU4gzMnnsP2quOj0Pdm5SwmFbg2mJPToDm4wASQ3JknTouJR8FUfX1x01TSKtH+8SJCa7eg6Ob8Fb76zgiuGfESyKRjygD1Unnv4MmKZeUSEqc3231QuGnf05rTn4VpCBLZUBEKisqXuXLjuXxSBwKH2yH2/pGWylxNXqfWbcfAJTzJvGUTRqMDl/D79jv3TjGmjf9ELbwYnu6d3t92mL1r5x/nJ+sOroTANQcieNEXyjZGmZohY6gc29S7NCjRSSTsgNYETrJAKDTQLohpUlMGA37Xn4IO6sUOfnqQzCY449kYWrc6fr2UJjB15Ga1KkqSyPlfc/BajP1hNzhOipKKZeYGu54vpnBqEEcojUXGalW9lQrqJJMgjIqbVhbD8gKjI43IuKbMYphcERFcl4I9ndeC8kw/A9NbjO7VETB/HcQJTOFUvwJObUmUsO4cn2URB9IB4sGg4EYNGq4o/Xvkm73xSG6zB0OHai3ow+ISdKXDXBQnSjW8tPbfo7q+e2gy2N1xCiMAWj0BIVLb4LQxv4JdCIHXdvkPj/ctvoAjSbpwh97zOk6NSwW/4okzYv7hk9Bv1dcf+Utfb3M7z4S67lM9bt+6wWSuXHb0w5/ReDy1diMn9C3FpQKMODU9xRaUR5OtIBSUhk8kW9OoGe+3Ukl16d6Bvj+0pKRLfkQwNGYO1mdb0P/Q26praM11bwIiX72PSl5/ztxdGMm0e5FwR2+pEIwUkUw3BKHHAixQdXdEwPAvNzc8hSbVEHjdlIlp4RVMMzwanfyFYQayRMBepich0MT4x8TsBBg9qwZ8uOJqEvwZDbSRnp4Mxa12JomLg2+K34uF49eimEoyte0oESzdZWV3AgKNfpiaTj3hKGPDOC8fTq61GTEmipBPZJY9N2qH9qCVzN7c9DtcTIrAlIhASlS1x18I1/yoIzD6mfbtu5+82i8JswrZVvl5kc8jZb9Egv717sB2knthn1x0GfPLl/F9lAZvRSYeA2qd//6L62tpWNY7fZqWmtXpj5vR7lkGxreVbN1ddciQ9tzMpjlt07dSRRBzc9DripoubTRIxFGwvS8pvxoTpCmde/CLJYGIIKmJ5DYpMCWU9kHMK2dHEk8X1A4M6cZ0NJCM+mH5+nLl9K+jQqYJ2nZpTUV5Ay5IyiuIx4vE4qqoj4dC19WlWrKpmdXU902bMZu68bKBp0VSwmghNJAoXDe7A4GN3pllxBldpAN/GTbvEo0V4aTGH0/G1DI54ymgRHOLYWgnvjF/I+VdMyleSfOjTGUY/NZjKaJLAwW5R+lNl0HvhWPJm9H4Ol7JlIxASlS17/8LV/4IIiBSClw4bSwv1ICIxklTQf9CjzFgqWgiT0rTFwIKCJx5NJs//BS+7RZxqzBFHxG8bM2b+LGiZlEoGMHbUxfRpkyNGLYrlYNtZzIRPYzJNItI80KLEChSqUwU8P3I5Q+/5INB0iGxE/uJxbdC9fNXE1aX04Qb6l4QGBVIlcaBPD9ipbzn77d2PXl3bEI/6OF4qMKAzDAPf9YNsxWCc2hMhi9GUx6OStWyi0TgNjS6ffDqHZ4dNZdZc8u0ludw/WjxDLu3KmSfujGGsCcaa1YyLYRSAJQuVdGgHSTOS/7aVYhylHRdd/SSjPsgFbbEiA667tB9nH9uLAhqgxvfWfzh/UMW9s17YIjY2XGSIwBaAQEhUtoBNCpf42yGw4vJuZ7c8qNfTmA6NehH3j57G0AdnoukQzSh0xk/dsOee3Y/8/HOhL9vUsSes+haqUmaeTLw9fBDdm9dQFknjpbMoZpSUZrK6xmPSxMWUlFVRWhblu8X1/PW+iaxYD15UJyNlFKmUqIGWNa9t0aWaAp3bwF47d2Dnrm3YY6fOFBdKJSRJRM2iSbigqGp9JxD4uqK49fVA+OqqaYRSiIusahhIpKLY47uWVEPi6JHmrK7RGTt+Pvc++imravOVmrYl8MwTJ9K+bSMJpY6oEoOsqIIj4Lm4EtRoio+KhaM0Y/HKMo49/SkW1eeFwu1L4M2XBtOqooGY2OZ/7y9aMHbODp2GLWjYpt4c4c2GCPyKCIRE5VcENzz1lofAN0c2r+x52gFLaGZFMwVR5lT7HH7CMGobJFtPpRKFw6sqb3xo9cqbtry727gV94dV06CqUYWyCIx9ZRB9W2YxciuhMEamHpZmmnP0aS+wej3YgS4EpM2SzoEVOM2qRGJRGnPpwHAuoUOzIjj92O04asBudGvbHCdTGxjL+aqFHvVxvSy+k0WVbCFfQVeF2YgdrCQ9i1Ms+IakPEsOkYfvePiWgWJrmEZCpLbkhLDES8hppSyvUfnTtQ/x1RRJF4TLzu/LBWd2o0hdi+YaEjQURCG7UvIJHHoVXNUnmWvGI3+by33PzCRtgKnC6QfFuGvImSj+auLSI/yk5gHlxk8u3Tikw1eHCIQI/BCBkKiE74cQgX9DwLqx/33GfpWXphM2KT/BlTe+yBvj8n4ZIqrtAqsf3HXXLrt9+eU29Vvz3hsqKjokHPj4jbPpWt6IqawP5octo4qn317OZbd8EbRXfCLiVYsY7usmeFYeP2kbRWNw4AEtOWRAL363exeifg2GVUdMd/DsDKqhY6sertjZq5Lj3JTJIxNAvh8YsYncRMSvYuHvSp9IsfEVEbb4mF4URYmC/Y/ejDCmiIwcQxIN1yhj+TqPy655nlmzoVNbeGf42cTVNbh1GbRYROzw8BQ7yPVJZXKoiRJW15Rx2LEv8L3McsdA7FLeePyk8+5MAAAgAElEQVRA9uxbFlR6ojVquuGFmf2Lh333VfhDFSIQIvDLIRASlV8Oy/BMWwkCi45sX9n+wh2XOqVpU1HizFhoc9CJbwaeIeIRUuLAeS273njDyrnbVFVlnyaiIuPLxcBHIwfTo42DnVyCUWiQ9Jtz2Z3jeWb0KhwlAZ4GIlKVsorIPSSEUIeBA4oYdPyRdN6uHENvxHNqiWoiWHFwcym0qIEj5ELXURQNR6ohioKpidmaFZi4qbqC7fqorh5kE8njvuqiqeKLksOzbCKGsAkjPz8tRCZoEUFOUck6EdJ2M35/yrO4Fnw44iTKYg35YEWhVnoWj1wgU3HUBPV2Bc+PmsUtd3+LJT4ris+uveH1JwZRpNXi2SbO7IZxscHjDtlKfgzC2wgR2GwQCInKZrMV4UI2JwSS9+/1TGKXZoPwMqSUZlx88zu8Nq4mGHmVD+l20Hj1PgP6HP/J+4s3p3X/mmvZHVbNhSoZVS75R1jghyMH06FZPdHCLI6dYmVDAQNOfotF1eJzkggM1DQtG7RuxJak/64Gfzpzf3bqUEFVYQIytUFqs+Nm0EUTIi5xomHJZNHjcZHL4mQhUVCEm8ti2xmihRHsXDoYkZZE43ikENt28sGIvoeiuhhaPkAxYEdiuBK4x0nfKf+Pq6g4vkLGK+Pr73xuuGE0Y4YPJObXY5omrp0LIgNUUfpikcwVUE83jj71Qb5ZlEc4rsKo549nj84KkVwDZItr57717THdHv72419zD8JzhwhsiwiERGVb3PXwnv8rAkvP6bxzm2N3mkxhA3W2x+cz0px16cfUSNtCNSl0HQ5o3vqpDn846/whQ4Y0Db3+19NusU94bffdY/dOnLRoFn5VToEiH94beRrdt3PAWUHOTjJ7MRx9+jTEujeHVDoMdN8jSo42bWHESxdSWVhNzKlHzzpouk9WbSBeXAbVMnMl5EYKMSq2oZG2FeJGOcmGDBFVJRZxsa31GLqF1jQlJC6yktqsan5AMjzXx3cC9xV8XAxdnGZdfKmqiH5XiQRVGkmAttQISTfK62+9yWkDD8a1GvFdl4TMWdsOmVQDsYRO2m/Jvc8u4P5nptNg5cW/ZxxezF8uOpzKWFJ84WCBN4YVY45WhgQdqfAIEQgR+AURCInKLwhmeKqtB4EpO+5o7HhGy3H0MfbPKGkcowWDLnmWt7/Ki0JFZ9ESOKxF8+FlOes7VRWbuOD39uBT0vcCB/p/PSRg+D8OPf8nnvy6L5ao8n1gjern/WCbAnh+8FUJ3DvUYERXnvbvn4wiM/3PP/Ml3DgwRhNKIM/xg8aG2KCpvupp+HiKoniKj6cFOTm+6viua2eMKDWxmDL++4V/WANxkYmUKvD+yLPo2CaF4q0JrO6XrtI5fOCHrEuDHYVsBqJ+ftT4iINg6I0nEjVqMDSfqFJCOpuh0atm3apV9G7bBy+jYflRHKOANVmXcR99yrQv51NXLe7AcOap7dl99z7ouizOwLUddBwicTFka8Cx0mhqBF1Uur5KzslhmHnC4vkKvq+h+jpak3+ti0/Gd1AMHdVzA6KTSaeImdFghlmPxMg5DovWxDl60Ot8vx7MeL6a8uGwE+nRQkXJNEA66q57Z+ERzR+ePnbr+QkI7yREYPNBICQqm89ehCvZzBBYfVrvnpWn9vjGNarRSir4ZNpaTrj0I2osAl2DCENlpkRIS5Obe8BS8r/P/zZHU/zNPy/27wRlw1o2/KAL7fn3I/+aDYQov375R14jtClvox/x68kpucDpFcp9eH/UebSrbCBh1qOpPrYbZ8a8DI88/y5L66BVqwilmoaeTXPlhb+jvETDj8awlUKmfr2OEaPfY8pXcNdNndi1Rxc818BIdOCxl97nzqdmkpM8IRU6bwf337o3LZslMBLFLF+TYvQ7k1m5eC0FNpw2sBe9d2gX+Oc60isKtEQmiqYGkztCVPLOcSpKoJuRu3PwsTESEax0FrR44F6rKyqKq+AIUYmWUu/GueWBMbwwqi5wzhXTuMEnV3LduftRZuQgbcK3NWOViz849LfZ8fAqIQLbHgIhUdn29jy845+AgP/A/sPpU3qipyTJxFtyxzNTuevxmWgRyOUCE1WZRwnEnHJIS0H+t+GQx/7/x/9GHX7CAuWaTfWT/yzh/N/nkc9qXz64fRVf1u6LC5sX5NsErmtSdfCbPtg33JFoNgwnKCmVutL6OZcurdMUxVPUra2muKQCR9XJEiFtxPE8lbjnYDpJYn4drq9SnS3hlTETefzZxTQ0wF1Du3H4gN2DRMOaOpe/3DaM9z+FjA/xBJx7ZgcGn3YwptaA5zu89OpYnnmhjvU1sN8ecM25B9KrU/NgSseyG4hEpN5kB5oVz3Pyo8xCuoIZ5qCoFOhbUCQFyAXHJme7xIqak85YRDDQFD0Q8jY6hUyal+EPV7zO8rV5KldZAG+9PJDOLTzMTArqy2pWjZl+YMsn50z7absWPjtEIETgxyLw3/4W/bHnCZ8XIrBVIjDvpJZdO5972BzMGqo9D0vfjqNPuo+5S0CN6DTkHHz5ENxwBMLNpiMgAP+f+sp/NGh+IoQBSRJnkvyxoZryYyo68oMvTaPga/AvCc/Jfy9Hvn8lvSqpG8khmhIXR57jQ5kC7716Dp0r11FoJMGPg5UFM4kl3vfxKhqTDjFVx1DBc9JEijrwyPNfc+t9XwYZPBec05mLz9hDHiTtt+OEM2/lmwUQjUDChCceOJQdu5UQiRg0uOVcd9OjjP0gG/Cok4+McvWlpxA164gYkExJ6yYWmLDZVopYVBzhsoHmRMiYKuGGwS3JfnkBWdGEYEqFxYiQTWUDF1shYUGaclEhSxtMBl4wnG8XBO76FP0jePG2a3Zg4GFdSUSSqA1gT009bV4+/pyfuHPh00MEQgR+AgIhUfkJYIVP3TYRcG7c/SFtz4qLvGZxGu0ob4ydyXU3T6fWyQffudIgEf+O/Kd/09FEXoSoBD9leSIQ0ImgtyJNFalgyD8/6LVs6Ln8mK9SKWgyUfshUfkn0fhftutff+Dz186TkvyTN1Aut4m8KEGFQcP1LVTNDdxgdQVKNHh3+Bn0bpeEzEoiRhn4Fvjr8mZsWgW+VGk8CfZT0LRCZi1yOe7ckdQ0wB79VB6//3KKY2vIWjq3PvQZT78yDz0OxQl46u5j6Ne1mLiSoyFlMvSB9xj+1ipsD84/c2euPvcAokoNOdWiPpllwYJVLPt+OY11a2jXqpg9d+tCcVxHEyWOCG7y6YSgiD+Ki6srgYGf5skawVZ8FM9Hl0aeEaPW8njuzanc+OBikhYUKrBbD53hD51BWWQ9fi6Hkitcs/jFr/bd/qXF87bNn4zwrkMEfhsEQqLy2+AcXmULRmBW/2YF3S/Z9TsqnBZJVcOOtOHcPzzOB5PzqcKW5PGKtXtTgJ6ui/eHgqaouL4IY+UDskkbERiSCUcxmviJtCGayMtPJSxNmP5LFeSn4vzPF/+gLvODE2pN9Ro3IFp5MiYBgfLBPW70IHq0S+FlVmKosUC/gZtGM3Q8P4IlXiiag+sXoGrtufCqR3njM08KKIx48BD26tcCV3f4el4dZ573FjXpvB5myA2/45QjeqO5aVRKuPPuV3ly5JLAZr9n71Ievvdq2hakyabSjJ+6nL/eP5wlS6Egkhe6Skvo2EPbst/eO6BgB1UVTazxHQvUNL7mknF9ItEEmm+SzWRQorJfCkraQY1UMWWpxYnnjWRpTWCAGxCzZ+4+jAP7FRCRXW/Qafz8+8uKbp1670+FPHx+iECIwE9DICQqPw2v8NnbKALJv/S+PLFv+7vEQKTWMlm4LM4JZz3PuhSk0dEiTj5NVziIyDyCiok0ZoKZkybTs6bmjAeaL16r8sHsBS2YTXY0/Q0g6w2KKj+sDPk/qLAEREX+Lzb2PoUqvDdqEO2bracslsXJ5QmZOMpaVhbFU4jEY4EaN+UUMWMeHHvqazSo0LENvP/MeRRGMtT6cS659nE+/VySlBVKynz+9tQ1JGtms2DuPGbOXMv4T2qoySHRgLRrBzv2rKQyorB6ZQNjJ6WxFYjFYPedKrjlulNpVZyhQKlFdRoIZpk8D9OI4vuSBSTtKchZPp6vEjNipLNiMqfhuQqmUkxDroTTLnmGiTOhUWIAfDj5sEIeGno2icxSyLqwXP106kNLf7fT1KmyrPAIEQgR+BURCInKrwhueOqtB4FlA1vHWh/UawrbGd3dohh1TgGPPDeee59cHLidZkUSIR2GpqqIJmZnio7rOHkfD5kLlkMIjOTVBB+7+QrCj9GU/GpIbgRR+WDk2fSoTGEqdXmbetMQBhY4w0r1A8cn7ehktFY88NJkHnhyNsJdLjyrDxeesi+oGg++/Dm3PTAZzxOiZKCpGcQiJXCEdUAzICuFkJiJbVsBcxIuVSBeblLEiqh4ikdBFO6/42z23ClKASspUrOYjmxKFN/zUCIulpvG87PBGLLv6EEmkGN7RKIGiuKR8SJYaiuefflz7nloLo1iEaNAty4w7NHzaGE0UOikoUGtW/7Gtwe3eXb+l7/avoQnDhEIEfgnAiFRCd8MIQI/EoFV5/TYueqIXpMpskibKrVuGaef9yRTZovNOrhaU/CeruNmRZgqQtcmw7ENwtmmSooWeKVs+USlW7NGopqoSkWf4kEsmm9l2VJW0vGNZlS7zdnlyAdZXpP3VBn98hWUxHL89Z5HGfOZgxjIxYwS0ukUmiJ2+XnypmkgXEPIievl4wtkhFgqHDKAJPocK3CCISAqXgaOPATuvnkwSnopJREV04nmlbCRHDYZcq6FphlEiKEKs5SLqSp2LodjVvL5rBxnnP96kEskeUXyF+RTjxzGfrs2pzjXiJqJ4n294k7t8glX/ci3Tfi0EIEQgY1EICQqGwlg+PJtC4Gaq/pdWPq7Lg+TaCBjFvL1HI8/Xvsa362EVFNVRRBRvHxbIWOnmloq+Q9WkXRucCwJpCpbcEVFWj99O9jYye+JFkTwHId0o0UsVoiqquRsiSQs4cW3p3HVQ3NI5aBAg/333IWpX01mfT2IljWojHgQkUqKfI3kB4hiCRDvNZkCEn2uyH3iEcim84/XJfNiZrUJUPGzETzbVMJdt/Znr36VRNM5VC8NWkqsYHA0BcdT0R0jmPjRRHMkCl0twZxlDoOvGcPsJfkJbTGZu/D0Fvz5ooPJZVfQLFoG840pS576dO/2Hy/JG7aER4hAiMCvjkBIVH51iMMLbG0I+E8c+jrtOdoxPdz4djw/+iuuvXMqjfIbeFQjZ3nBBIkcPzRck8/TDVM18oG6yds+AaPK787P1ah0bZ0kl1mCmtAwxTslZ+K7cXxfEohLaMgYHHnag3y9qgkLaec0VUs84QdAoYQcZ6BVFfTpmaBvr67sscvOFBcbJAoV4nEVU1OxsjliZozG+kbSKYd1dVmmfLuQiV/OYdIX9UGLKEjn8aF9S3jkjkPZrVMFqgQjWtUgwYexKI4rY8kGvqfhOD5apIz6VIzzr3yGsZNBJplFG33YXhU8eeeJFCgr0MiiZEvqFzz61SGdRiyYuLW9p8P7CRHYnBEIicrmvDvh2jZLBJYNbN2q9cl7TqeCZi5ZUmYVl974Ch98Uc+qBnBFn6LbeGKI2tQ+2FBH+aG9mxdIbTehkHajicrZbF9RR2kVrG1Yi2IWoNvNmfTFfNasdWnTth+z5qxk6D1vYhmQEqdZRUFVJBgQyuKwS0c4bP+e9Onbju7d2uLkGohHTFJ1ScqKC8jm6jBMCQtwRekTmNQZWhTPUvBUnaTj4etRauotpn3zPcNGf870mWCnoEsbGPbIGbStdMGqATsNIpqVcAJVQ9Gi5BwNiyqG3vEmL7+5koxkIzrQugiee/gk+nXQ0RtWYyilpD9bdGvixinXb5ZvynBRIQJbMQIhUdmKNze8tV8PgboLe/+u+MDOH1KawY7EqffbctalD/L+lzaeoWGLmCJoAQlFkVyevMHa/7iziXplA1HZhGRlIyoqIqbt1iIFSjWNho9rlvPMM5/x4EMr8+GCdr5qJORMxrilumSIB0sp7LdfMeedfgTdmxUR8ZIokRS2VUdU+j+2i6bFQKztIwq+k0aJKFiOjRGJ4dh5ozbRmgjh8VRpMalBRlCjXciUGWu48bo3aVgPD92xC3vv0JISyTqw0kGfyHNdbF3FMwqxlGY89rcPuPuJBVgiinbzZnMvP3EMu3QrpNCpx/QiMC/1xexxb+/XYwTWr/euCs8cIhAi8L8hEBKV8H0RIvAzEXD/stcD6t4Vf6TQI+fFmbtaYdBVw/l6cVO0jGTHiOZCZnwUBUs+tgORigqWF9i7O/JpvimPjSAqH44cRF8hKlRTp2isSBVx6KmjWLaOwC1WYndE+FogrRQXKkrguGMqOO2k/SmOWxSaHporhmw2iibGeE7gPeNkc5giTpHShrAbVaamnGCqyhN7e19D8SKB46ziuWgRg0w6DRHB2UCJlbBoeR2PPf423TrB2accg56qISqjRLaGL7b6hYXU5BKMm7CCy278kFqxslEg+o8x6Osu68egU3YkYq2iWBS167XZ64dPH1AxYvmKTblV4bVDBLZVBEKisq3ufHjfG43ArIE9zO6Htv6EKn9XEVqkjSK+XOJxyh9epiED8tkpAk85gl/DzRi+KGodF93QcSReeFMfG0FUxo8YRK9m9ShaCidWwj0vTODWJ9fSKDfblGwoRCXmw1nHteLPFx1GcVEGO72C8piC6uXwVIOc5aAFI8MuvusRi0Tx7LwXizjjyuFrdmB978okUWCnK4nHKrr01lSpurgoUYNsNkPWc4hXlFOXTrN8xWo6tG1NzM5iytiQrWHZERqUQsZ+upAr/zIx8EpJS8BkBI7tn+DOv5xFQXwt0XQDarKwpvqdb05vdv+cdzb1VoXXDxHYVhEIicq2uvPhff8iCCwe2Kxqu4F7TKLcb2eZNk5pFe9+upgLL/6YlPhwiHBU10m74uqqosUSuBkhKB6qruHJyMumNFLZKKJyNr2rpL/TSFov5NQ/vcDYLyErFYtAjOMGbZSj92/GYzefjpf+HiMuhnhJCnQTN9WIU6DiGxrZlEvUiASGcprmY2friUXieJaBGiQeS+VJcnqk8uHjqpI5JBUZB0WN4ls6ihELZpr9XBrHtFGiOo6ikUmlKTJ07HSWaFE51XUG4ybWcfnQj0i7kHWgMAb77Rbl7muOp10zh1T9Kgoosay/V98S+cunN/8ib5bwJCECIQI/C4GQqPws2MIXhQj8DwKrzum4b9WRfcdTnFOTpHCjrfhgQi1X3fA2a3Igc6zisaJoahCHE4vHyWST+RM0VR42GZ4bQ1ReO4ee5SlUPUtGT/DXx9/gxdGNrG1sGjGWsWMV7ru5H8fsvT3FkSwWXhAGSDKLnoiRc+WrSSZtYxj5WAExZfPFil8x0d3CYCJJCQaRnaANJAZvAVERzU8uhx4pAD+Cl/NR1ThoHo5Vi62JCZ2JIh74rothFpPMRPl2kc2gP7/O9+vyGpr4PzQpnZvDsMcHs11FIxG7FmwTFjsjGTvuRGVE8LTwCBEIEdhECIREZRMBH15260JgxaVdT2p5UJ+XKbHA9Ul7zXl5zDRueGAKtfJbu0gtFLHy0LBcHykS+NK22JKJyoiz6d08FwQRekVx1jXC7JkNrF5tsaa6hoXfz6WypclZpx5OlemiKrnALCWbTWFIdUkqL4Ha1ifnZfFVP6g+2U6OWFTHy4p+pTjQoqCm8FU7H5MUVFXyvjQ64jBrBSpdW8aOnQiGLqPRTmDf7+UyeJqCGo3QkC3m7583csm177Immzfpk9ZUv87w0l2D6VAlpnErUaVht0T5dPmYrw5qM2L5ZtCf27p+VsK7CRH4qQiEROWnIhY+P0Tg/0Cg5tq+V5Tu1+VOUWT6rk+9Vs5L737HtX/9LPgFPWcHv+wH5iUyaqtqCq67Kfs+G+ej8qEQlco0ir8ar8jAdhQ0qxDFTWC7KmYihiUEw3XQchpi9+p4dehRHTVWTC7jULd0KUuXLmbnvXdDjRvUNaaJR3Q0L4UhGhU3r/LxtDSu6iD5xoqviFN/QFQU3cTKpVFNN6hYeXYMXTVRbCfQAKmSklxYQoMVYdK3DVx82ViqU5ASXbMGVWXwwsOn0LvcpdCUNpYPq+1pi0Z+tn+HEbX14Zs9RCBEYNMjEBKVTb8H4Qq2EgTkczMzdOf7Yru1uoRiB1s3afQreen1qVx722T8KKRzoGs6RpABlNewbNK+wka0fmQ8uXvLNIayBle3SOeyFEfLwdHJpS3UaJwG1ydpxXn62Y9YumAddw05huKyYt75YgmvvjqBeBruuvMknEQRE6d/y8cff8GsGT4nHqZw0u8PIKHLlI5DzsjhSgvHi2G4GqYrmhUPW0hLVEXRXRzHwrGlkGIEac4B6RCbfb2Sd75YzdW3vMsysVMRp38VOreFu24+lL6dCynVXUh6sNpZuOLNmce1fnnJ11vJ2zK8jRCBLR6BkKhs8VsY3sDmhIA/BNUr3fcJtUt0sCQtJ10dL9aOp1+ewV8f/pw6K8jqI5r/DA2UF/K1KcvwB7eSt4YTHUY+1fgHDwkjkr7GBm+WDTlC+T/4L8e/Ws79jzOteLo0Gb9sWIz/b1NLQhRUBcV35db4YOQ5dKmspyBWj+XXo0q5SMZ/HQXDKMB246zKxBh80XDmzoVnnzqN3l3KmTDh71x9y3SKCmDEs2dTUlLEmI9ncOOt44M13HLjHhy8ZzeaJ3xc8ctXUzh6Clf6NF4c3VOJCiMRca1m4Kk+WasRw1CCsWY766JKxo9WhKMU8v4Xi7h06HjWJPPhkTEdOjaDYU9eQpuK9RQqjZDzod5Yve7db45v/th3n/43FMPHQwRCBH47BEKi8tthHV5pG0FgQv/++o4HJ4cX7rXdcRh1pGX8tqAz732ylGtvH8eK9dAoXQZFTFXy9RRpZTR1hdB1I8i/kXFa18mgmXlb+CbmkpdfeDGZj8FWc3lr+GAcRooMYiTX9FQhQ00kRhxd84d8FbKRZzWi+wj+tOn83j95jDzHJ9HkUSfju454mEi/RM9RlIUJIy6kR+s0OsvBTOIrEkxooioxnGyErN+KC4YOY8JnGY4/AG64/mrenzyXyy57g5gDf3vsFHru0J7J0+ZwyZWjguyeC87vwgVnH4uTzvDlJ58w9fOplJcpnH3ugZRURKityxHRdOKaeNGkQY/i2mLY4qFJjo8lo99xLCdGTqlk1EfzuOa2CdTmwHIJjN86VsFTd55EpxYahpPBEE1KDevrxn97dumD37y5jbxNw9sMEdhiEAiJyhazVeFCtyQEpOiRvq3fq/EdSgZSpstwClmjipkLPU497yVqbUiKn5kEFcpEkAsx4S0OJFCQQV0xjheFxoaqi3AI+W+ppRSgkcNFaIZQHflBzlOQ//mapyL/+7GhaLLhtRsyiOT7Da0o+bNY0/ly4KwDPa3qoDuUWvD3EX+gS4skZqQax60n52XQo1E8J4abKWbGAocjzn0rSECe8MpAKpqV8PsLn2LREjiwT4wH77qJFfUrOWXQfTSmwIjAVVcej2OtZ8zoj/huNhyyb5y/3nQROvMw9CS+RAW6DhHNyWtTPAOjsBAvl8INJntieBSR06t4evin3PbIDBodghwgU4W+28Nzj1xEeXQp5RF5oAAazPqaj2edXX7v9FFb0nssXGuIwLaCQEhUtpWdDu/zN0dg/iEdIx1P3vHvVNi7Uu6R0RRq0hG+XwPnXPwKS1aBZ0DWVomoHiUeHNq19xVVvrakoD4VL4lohpW1FT2KL5lCFjnf1zTfEBM0CRKybAxTk1aMkqcnG+hGUGDZUKMJ7tv3peSSf5Yf+L8GTi7YMnkj1vZNLv5BNJEqdRYDDc/TnJwnvij18Zg9ds53N8+Hdo7Y4Pvw0Wtn0KmqAV2rg0QBViaFZyr4SjGKXcklVzzOqE99ypvDh69fxph3x/Kn22Zj+3D60Tvxu/134YVXXuOzL6qD/B1ZiqxSKh9CKoSkXX3x7pxx3E5URFahO/VoMucdMXCdGrSYfDWxsnYwJSSMyFULqLVKGP7uQm697zPqM6A3hQx2aQ3P33sK7Vu7xGQ6qzEDtaW51JdLryu48bN7fvM3SHjBEIEQgR+FQEhUfhRM4ZNCBH4eAlOOaBnfccCOr9M9NsCNpHALJY/G5OuZ67jpznF8uxjqc2BokHChq2rOOGOPA44/97N3v/t5V/z1XnUgTJ8BfWVetxAY//oZdGmVCZKJszmXaLMK1tWtI5poSX11MUcc+wSLkrD3vt0Yeu3hXHDRXUybLxUbg9KETU76SUDEBNHGSuVFKJd0mAQPqS6ZHuzZD668aH/6dGhGgeGCI0YtNjkni2rEAvdazVHJORHWpqK8MmYqtz/2HTkFNDmfDQftaXD9pcfTtcojImnKXg6SekNmWv2N8esn3v/roRaeOUQgRGBjEQiJysYiGL4+ROC/ILBsYOtY6/47vUnXggNzeg1eXEL1TNY1xhl0+TBmLMz/ci86lQIhAS7OH3r0GXDZrBkTNidwD4Kvp0GfpAoJFcaNOIOuzTIkYha+lcPTVfxYlLpUlEXzVX5/6ovUAT133B7NW8f0rxvRY4Wk0lli2BRF86GNUWD/vaN07NQu8DtxfZt165fz1eRGvl8GkjRQ9A9mNOSaAzjmgLaY9ip0RYQ6Pilx0NPiZFMxFLMD19w6nFffXoH4vkmmoRCdA/dSeWDIaZTFU0Q1EdqqEk+0es3708+pemTR25sTxuFaQgRCBP4TgZCohO+KEIHfAAHJBWrfu9ltsd2qLsOsByOLrRawsK6U629/mfGfO6QDv31obmiUZN3GY9pW3jZ06Zq//gbL+1GXOARmTIHe9QrEDXjnlTPp29pCt9YGrrI5olRnYqxYZzBrVoarhrxGA2CrEBUbFbaADHkAACAASURBVEkR8KE0DuWF0H/PZhyy3z7067U9USWJaTqk3SxoDrrmoRqFrFit8dbYKbw8YmpQgXn63j3Ya5ftya5dTrQwjmWaNNpRFi+Bv9zyCpNn5nU8MplcEIXTjmvFHwcfSmW8mkguiaqWwCp7Sf2EBeeWPPLtBz/qxsMnhQiECGxSBEKisknhDy++LSEgMoz6y3a7vPig7ndgroC4j6+UkXLLuPvxMTz10jJqnPz0T4EJBRYc0bzkxYPbdDj/iKlTmxolmw6xATBjGvQW8iHrGzviPHq0qsbw1mGYCdbWF3Py2a+waAXUZaRzo+Oo4nXiETXzZrF928Ogk3fk8EP6EjcssCxMVUVXPDLZBuJlCXwnRyZZj2nEacxomAWV5JRChg0bxmcfVPPMo78nEc+RzrmklUo+mrSMK2+cwPrGvGW/dI2ESF35p74cd3gXioNKio+eMmCJNmf1mDkDWwyfPWvTIRleOUQgROCnIBASlZ+CVvjcEIGNRECmgarP73VyxYHbPUFxLuHjoBRVUp8rZNibX3LvczNY3Qgp8fvwoMKFfUzzy2M6dPjDsXPmTNvIy2/Uyw/dUFGRpGEd3n1tcEBUImotjl/E8DdncdWti5CBZZeoDE9jGjlMAw49rJLjDt2dnTuUU2xKn6sO/DSqoqAKu7C9IFLA911k8liV0e1gJCqK46pkiOCis3ZVNeXl5Ri6RBEU8PTwiTzw1NxAjyLhgtJGatMcrvnzAA7Ypy1xfTWGk8LIxWGN9vnad2afUfn8goUbBUT44hCBEIHfFIGQqPymcIcXCxHII/D9uX32antA949oZpnoaTwjQZIEn8xeyQVXfEBNY1BsCEaRi4D2wDGdtzvzqu+WPL+pMDwCZn4JvSROMabAuJHnsEObBny7jozSnAuveZFRn4CIbcWXRYzVzjyhORecdRCVZXHUTA2lqmQhZYIHG7L16AmZQnKQUSDdgQjxfP/LFY97Fdd20GJxHNciZbvEyippSJkkk8256vonGfd5Mhin1nXwHditF9x/+2m0LIeonsFx0iS0Uphc896Cd+Yf1WnsAukMhUeIQIjAFoRASFS2oM0Kl7p1IfDdCT27dTp4u5doY/TDzJHVoMFIsKLO5IqrhzFJ6idRjVzWDUS2rYADy4z7D+vXe8iBH079zXNojoSZk6GXtH7Egn7ciMH0bF5LNOLRaBdywnkvMHEhOAbYSejaBkY+dwptK3LkkvV5CiJVkkwGChM4JqSs+sB0LhGJorsaSkZerOJ4DnpUwgV9crkckaiBo8VYZ0f4bOoa7rz3U+YsyPvESEGmKAZHDyjiT+cfQvsWBkqmEVXcZq0Cp3HqqmeXTVl7UY8Rs6yt6x0U3k2IwLaBQEhUto19Du9yM0Vg/iEdizoO6DiCruYAqgwyVoaMHyOdLuOWu15h5LhGkvJ5K5wFqAT6xbRPBvXd5eQjJk5c8Vve1lFNFRWZ5BFx7HsjB9OnRQrdq8UzCpk6fyWvfTiZz6fYwQTxbX/Zj/59K1Fy1fhujogZhZwRGLb5CQPbt9FQ0CIaqWRtILSN+XEUyekpKMJK1qMZDq4nY8YFNPpFvPDuDP76yDTW1hF4r5g+tCqH26/eiwF7dSBqNpKrXUdxrARq42nns9ob9cj79ypD8sa/4REiECKw5SEQEpUtb8/CFW9lCMhE0PZ9Cq6L9i6/gWIFx1TRI2WsbYgw/M1vueepL1iezpuhxX0CY7hOsPykjl3/cP6CuWN+Kzh+DzMnQS8p5ZgajB01mG7N6inUGoPeS1YxSKkx0hkX3YPSqIaWW4epZFGEpNguXtpFjcbwozqWYyOBxZJ6bClpNE1D8wpws37gp5J3ffOxvBjr1ka47b7hjPzQzreWjPw4d79ucOcNJ9K9TYSIV4upuvl8Aqt45up3vr2mxSNz3v2t8AmvEyIQIvDrIBASlV8H1/CsIQI/GYElZ3XZr93xu7xNPBuXEV1bM0nZCWYsznDZLcOZ/T1YYg4HtFTiFPlp7+iWbe4d0K71DXtMnCif37/qMRBmTtxAVBR4d/Q59GybwXDWonouvqrhaTE8VyUaLyG7fjXRQtGk5ECJ4jgOmmoHxCTriIg2iqlFaFhfTVFVDDft4KXiGEWlWNkavGiEOk9h5rwUl1/5IctX5+39C8V/JQvHH1XMLdcfj5tZTjwWQ5W0R6nYLE5+MmfE9NO7v7vq+18VkPDkIQIhAr8JAiFR+U1gDi8SIvDjEJhz+vadO+25/XNa+6LdicnUi48Tq+C7dQb3PvkWb7y7gpRYjfgqEd+jCtitIPHewb16X3T8xIkLftxVft6zjm1q/dQ2FTveHXUOvdqkMb1V6J4f5AxZtoeuRfEyPnpBlJy1Dt3Ugowez3MwYw6e75PLqujS4rHBiKo4Ti26Lqb5zcjmVCxVI0OM50Z9wINPrqC2MT92bPiwXQWcf8bOnHHczkT87/OhjCmxty1wMlNXPLzi76uuDkWzP2+Pw1eFCGyOCIREZXPclXBN2zQCQUbQfm0epE/zc4k1kLEbMcqqqMklGPP+XIbe+SUN2bypmePm7ew7QOPvu3Q866p5C0b+WuBtaP0IUYlsaP00ryFBNUbMJL1+PfFmLYJRYywF3xUPfFAiksPj49hZbCWFquoYSiGqb4pcBU1z8Jxq1KhOdVbHLO7AwuUmV173FF9MA4n3keBGcXLbqQvcceNJ9OpWBNk1JHxJd5THSlc1fDb/z0V3fPlqU470rwVDeN4QgRCB3xiBkKj8xoCHlwsR+DEIiN9KzUUdzyr7Xee7qDRKkXRiLUZWa8XX39Vz8z0jmDIH0vKpnIUSoDV4/UvLnjqwY4chh3311eofc52f8hyZ+tmgUZGk57GjzqJni3oKzAa8VBI1FsPJungemEYs8Md3cAItSiCUjcfxsLFtG1OL4+Q8dFVHUeWvoRxpXycTq+TVt6dz+z3fUNOQDyiUh8Vg7qwTO3HpmQdSmkhhWespkQpMMgoLGkbNeW/Sxd1HV6/6KfcTPjdEIERgy0AgJCpbxj6Fq9xGEVg0sH2X9kf2GU2rSHciLq6qkEalMefzyN/e49EX6/F0sJy8dqUY6Axzz+i+08lnzJ4y/ZeE7bCm8eRGMXyT8eSRZ9GzZR1R1gW5zD7S4jHzql9hJoqFrWTQDQPb9jH0KLYlX9W86YnrBO0ijziuWs7CNT433/8G7/w9TdrNn0a8WMpj8PDth7Nnr2ZE3VriRSa5xiQRpyyTGbt06OLv198Xjh7/kjsdnitEYPNCICQqm9d+hKsJEfgPBFafVpmo6NX1fq1Hi8HEhZHYUKCzcq3HGx+s4qb7JyFBgVkrr+GQVlBXlLoDqtrcv0/X7e/Y7+OPs78ErIfCzK+glxCVAlXGk0+nZ8skJuvxm4iKWNQFc8CSNqjY6BGfVCpFxEwEZMZzNDzPQ8HBMONgFLK+QWfqt3XccPu7zF0Kvt7kMmtCp1bw+D1n0LnKo0TPQSYFwd0Urlr5wew/t7p75iu/xL2F5wgRCBHYfBEIicrmuzfhykIE/gWB9NW7/z7Wr80DlGltiORwIwb1ls6cpY1ccetbzJoPOSErqEQxiJFjZyM64ag+XS47Y8qMja6uHIY6czJeQFQSGowbdRK9q3KYfl1Q/fAVH0/x8IWkoKL4Krl0lng8ntep2DmsnI2mGWiRYurSJqszzXngqXd5853F1CchGoNcBiIqDD61govOHkBxNI3ppomKk0yuCObXvbfkvW8vbT9qydzwLRIiECKw9SMQEpWtf4/DO9yKEJh+9HYlfY/a+RVaaANIuAoJjzqZ2Y22Y+gdw3h22BqJx6E+A3HVpNizqIDMqa1b3HTI7mX3bkyL5FCMGV9h995AVMaOPoGeLSwifh3eP/8mcZo6P+Jpr6Dr8cAOP5uqRTdNXNVEjZRS1xDh20UZLrh+FDVpqK8DXUSzLnRtD3ffcgw9t49SYjSgehb4cahW7OTkVXcsnT3p5h4jAg+88AgRCBHYBhAIico2sMnhLW5dCMhUUOkOJYPL9+4yNBerKc9GPDQ3gquW8dk3q7n9oXFMm00gapWsoBIMDGy6wecn7NTjqjOnzPr85yByOMz4sik9uVB8VF4/hc5t6jCV9WheBMXTgiqKVFNUT8Z0QNU0cpk0kdICrJSDa1aydJ3Ow09P4MWRC4IwQbE/SUSgRGzwDyrlrJP6s12VRsxPYgTeKBFYwYyaLxZeXf7ErHE/Z+3ha0IEQgS2XARCorLl7l248m0cgbmntuzS5ahdXqIqslNgBQs0qlFWJDUef/Z9ho9aSUMGdInPsfPalS5g7RQrePToXXcaut/HH4sb/o8+joQZE5uISoECY0efTqd2tUSoQfFMtCaiovrS9pFekGT2SDvIwFEipL1Cxk9azLU3jWdNQ968TWiNUJp+3eHGq0+kb+cEpbEsbv1aNEksTMdwpyx9rnr8gouq3l+T+tGLDZ8YIhAisNUgEBKVrWYrwxvZFhEIPFd2aHUlO7a4gWJXd6JZ/HgUVytk4tfLuPeJDxg/KZ8VJCrXQlSqMGmOt/CQjp2HbL9Dt+HHjxghnOG/Hkc1VVSE3YjkZNzIM+nVIhsQFRHTygUUPJHMovo+vm+gGCUk3UK+XeJy96Mj+eSrJFkHcnbeIb9VEZx1QgdOPX4fygssdK8RJZNGVcpgeW5uzaQV15dVTHk9zOr5r9sTPiFEYKtFICQqW+3Whje2LSEwa2Drjt2P33cYJZldMBqxpYoSLaLOKWPY61/ywGMzqWkEQ9exLZcIPuXA7lp03NG9uv7xuK+/nv/f8BKiMhl6B4ZvAVE5i76VOaL+enzVCV4uacbBdE/QbCqkOm3yypuTufPRueLXFgQMSksqYsBO3eCOq46le7sCokoarCSKqkHW8JmfHLHgi8XndBq2QMKawyNEIERgG0YgJCrb8OaHt751IbBsYOtYUbftriraqfIKqvx41kviqxFQy/l2Vj2Pv/ABb/49Sb0LIiFRHJCh4dZQv39Z+XOHt+9+x8FTP/0/TdMOhRnToLcYwYpny/i3BtOjeSOGsh7sBojGcZIeekkbqhtjvPPpXB578TNmLQq6QIgm1vSgbRWcf1YXjh2wAxVqFk2aQDKT7MZgnTWvdvKiW0oLpr0cVlG2rvdneDchAj8XgZCo/FzkwteFCGymCCw4u1vPlrs1fz7Wq3U/suvBkAydAjJqOa++P407nvyceesIpoNcydrJQHNgO6g5pHWnIcf36vhkp7FjpQDyL8eGrJ8acTEx4c3hZ9KzRRrDXYMZMfFcE4sS5i3PcuvDb/Dhly62SpBNFPi7aHDYfoXccNWpVJamiORqMCQHwItBvZKsmbXsidXTFg7pMWKdcKHwCBEIEQgRCBAIiUr4RggR2AoRmDWwh1leZZ5a2b/zrRTmqijVcLIZfKWIZfUe9w97hxdeT+F4kHMC+QpRTyXue25HzKlHdOj40k4dWj9z0Pvv/1PAejjMnQ5dGpvCdN5/6w/0bJ3BcBvI2gnmft/IE8M+Ysz4BtaLKZsCmgcJBfbuC5cOPoh+PSsw1SSaqWHmfNRUVNKOJ6ya8f2NLR+b+elWuBXhLYUI/L/2zgO+ijL7+78pt+Wm0UJXLKiA4q7iLlixiwXbxq50lSIQmlhABKn2LkWaYtm86+6qiLqrRAQVFf0jgqKoqBSp6bltyrvnmZlwCTdtQm6InrubT/BmZp6Z7zzl95znPOcwgToSYKFSR4B8OhM4lAn81LdDZtsTj3jMc1Sgj4hq61WAQDqKJS++/y2K+6e8irxPgSLaxyx24KhopsnINKM4Adh04VFHDe/Yvv1/0oqLpbvWrPl6I3DMbvJCkYF337oHbdJLoGthPPXcP/Ha0p3YGwKiFJTWA1C+wNZNgeH9z8KNvU+AL7oVGWS+UTxAWAUiqYV7V/0w5bdvCp+sS3yXQ5k/3xsTYAJ1J8BCpe4M+QpM4JAnsPfW4y9pctpR09Ah2FUz9yKqxiB5AogWp+CjL7fhmVdW4sM1ALnE0v4d0i0+K3dQpE1G8MNOnTo/+8EXnz2wNYpOtCZEPiqz54zE+m/X4pXc5di5EwhHrHNTZKBZKnDx+c3Rr88FaNHMQEZqDN5oGTyltNSTDnyx4+8/f7Z5UodXf/7mkIfHN8gEmECDEmCh0qD4uXAmkDwCtBzU4jjfmBanHnUXUqKpUEiWeFAW8yCstsLS97/EM7NX4odtlMsY0K1gbKZHgWnqiCkSfBHT2tkT9AI+H1ASBUIxKxZKmg8wQsAZf/Zg6r19cFgryo68BympKmIF+fBQJJc9yvrNy74Ys3nj5v+enSd0EX+YABNgAlUSYKHCFYQJ/MEI/HD1kR2PPLXzJBzX9AYzWAqpZRC7d+2FxxNArFTHu+99gdf+uxnL1wBRFSghh1t7aSimWYmRU+jYWEgsAXk9QLoK/Pk4IOf2i3FK1/bQIr8h028CYUoiKAHRjKKiFT88sndnwcwjFm4+KEkS/2CvjR+XCfxhCbBQ+cO+en7wPzqB7/t26n50r+MfRUupOxTKZqgBsTAMJQ2FZit89k0+Hpzzb3z5TQilJRQOH5BkQNcAk2KhWDHe0P1kYEj/C3DWXzoiKBVBK96FQIofKIsCGjnLFi39/p11w4/5x44f/+jM+fmZABOoPQEWKrVnxmcwgd8NAZE36PgW1zbr2vZOtFA6w0epiwFd8SAEL6JGED/8vAdvv7sS/12+Cz/+AoR1IJgKHNsRGHBjV/Ts0RGZmSkIFxUhxVSgGikAhWnbGvpk68qvHmj7c9t3pLw8Xub53dQafhAmkFwCLFSSy5tLYwKHJIHPTz7Z0+kiz4CUrq3vRXO1LXxWdLYYOamofugIoChkYtPmXfj+p+1o1rIdzuhxPDzR7xFUShEqiiJA4eOUpsDPJbv2fLF1bP63e1/puGzTAfFYDkkAfFNMgAkcsgRYqByyr4ZvjAkkn8Avvdu3af/Xo+9Fp6wBaAovPFFElBg0mNBpqcdUETMlSJIPfo8MNVIKryEBkQBQrMaw/rfZWz//Zma717ZuSf7dc4lMgAn8HgmwUPk9vlV+JiZQRwK/3nJM24xjmvZJ69r2JqTEjkZQ8kDRoesxSIoCWVGBsAlE/EC+UWJs3vv3nWu3zm4V+m6NlCsSI/OHCTABJnBQCLBQOSgY+SJM4PdJ4KeeHfyZp6TekHnKUWPRzH8s9FIJHhlQZKBIimGb9O6Wlevvbr9441e/TwL8VEyACTQ0ARYqDf0GuHwm0AgImJMgb919bM+2xx5xC9pmnYSd27/Z/Mk3z+5Zt2VVtzWINYJH4FtkAkygkRJgodJIXxzfNhNoKAImIEtWeiD+MAEmwATqnQALlXpHzAUwASbABJgAE2ACbgmwUHFLjs9jAkyACTABJsAE6p0AC5V6R8wFMAEmwASYABNgAm4JsFBxS47PYwJMgAkwASbABOqdAAuVekfMBTABJsAEmAATYAJuCbBQcUuOz2MCTIAJMAEmwATqnQALlXpHzAUwASbABJgAE2ACbgmwUHFLjs9jAkyACTABJsAE6p0AC5V6R8wFMAEmwASYABNgAm4JsFBxS47PYwJMgAkwASbABOqdAAuVekfMBTABJsAEmAATYAJuCbBQcUuOz2MCTIAJMAEmwATqnQALlXpHzAUwASbABJgAE2ACbgmwUHFLjs9jAkyACTABJsAE6p0AC5V6R8wFMAEmwASYABNgAm4JsFBxS47PYwJMgAkwASbABOqdAAuVekfMBTABJsAEmAATYAJuCbBQcUuOz2MCTIAJMAEmwATqnQALlXpHzAUwASbABJgAE2ACbgmwUHFLjs9jAkyACTABJsAE6p0AC5V6R8wFMAEmwASYABNgAm4JsFBxS47PYwJMgAkwASbABOqdAAuVekfMBTABJsAEmAATYAJuCbBQcUuOz2MCTIAJMAEmwATqnQALlXpHzAUwASbABJgAE2ACbgmwUHFLjs9jAkyACTABJsAE6p1AoxQqZna2sj0c9u1QFK9fkhSLUhFkLeWA55E1zfouFSiOw5lWAW2ZpteYhaz7xbGGEjarekPOcc4xsk+TUAoYqlp+nnWNIFJU1TTCYVPWtOKOy5ZFTECSgCqvX5va8ffsbOXYwkJ/zOcLZKqqTOeWlpYiRVH23Yt9X/H355RhqGWu7qXiOyl/HxVuvtRvvycA4t2UWJwihqGfcMophdKkSUZtnrfisct79lSzfL501euVqS7Q9YtRLMqy6oVVI5x64fyOrzMWl6IEt5Ge8NYqe1Y6WLaf17m+kqD+Vaw/FQuhulP6W3HxqR9/HDrY9YXKImZHt4h4ikqbZMRkWbQzvyyLemCoVEUBM6yYCFJl2r9eW+1jX92qy7ur7Fwq1rqHsFlM79R+f0Z4X/ui78sKNMkXjRptmjYta5+bG6rrvXzfq1d61DBU8X7TcUC/s1/7rtBu9LJ99xZ/H0rKvvof/32iPq2q+z+gnSaornJKikT3nrJ7d2n7jz+ulsfaCy4IeoNBP5WbEo0ahqfU1CIBo+OyZYkaQ13x1vv53/fq1SIqhRRvMKBTXfEqxVqZB1qX3LyS6gqnNpGGtMyMgCaJfoTqeVx9o/8Oq6os67ok+nv7I+nW+CLaC4CA3deWUl8Qd1zF48U5dWhHRuTA+hY/bumqYsb3t1R/nPqrhr2y6CW3FRd2W7MmVh2b+vx7jQfn+ryJ2l77+6t6tjt6xsMb0KS5AsXrhySbMAwDJiQYoEFYgkS/6EeR6D/Lx3zTHu+cYdeWOZXeg1nN+ExyAoZ1eaeYGv82ANIMmg7EdOt+vV4gFtKx+Yf1Jeu/+efPee/PP/6F3F9qy4iOJ3FyYovMk9qd2v3mlO49/oasrNainKg9rMmydd9CtlTyEc9Xxac6PlWeK1vM6Eeh92KI/5f/0LkK8QkBpg7s2v1N4YpVCzZ/sOqlP+Xmbq0pk4Lhg0/OuO32z9GsCeDxAKRtw2HAHwB0zQYQdy/ERDes+6LxmeqSI5PoPiX7Puk40+aT6P0nusGKOGW7eooeKe4E53oGvasKF3L+m+qyHgIioRJs3bEh+tXaN9e98Z9F3d5801V9oVLW9+yZ6vvLn87r0OMv5yhHHXkemmV1guwBqK4QB+d92c0MdH81+VTWPuKfvybXOeAY556oDRKPuIZN9+uhd6dbf9uVj6IHn7kkY94Tb9WmqP/LvrRt6x49rss6+5yb0abNiYIB9f/UViPUhtTaXC65xxp2xaV27LRlarO6DoRKjJ33TTi95eKXP050U6LmrVjxNo446gKk+gBDs9qBqgJRDfh1868bxozv3CWv+gE+uQ+duLQfr7++5RF3jV+Pli2bQTYArwcoLgVSUoBIBPhm3cotz065oH1uYvFWNnJoj8CQEe+jSRM/vIoOI6ZYdYv6LJpW2nXR6VBF/2G33/I2S+3c7nfpNqkvaaiPaMuKff+a1UZEP2Ra90h1RIsAr/y/YdK4cU831G0KTA1ZuNuy12ZfdGzXhfPWISXDo8NHoxkURyw4F5VkmHaFEQ9JOsDpw5zftpahsabG2sK+TDm4+GvW+iKGVRGo4dMd0OAYjQKqBHhMIBIFfvilcM/il0c0nzVrUW14fX3ppYd16XvTdJx2+g1IDwI+n+jDFWJClZMGmFgMCKSIsbbWt+7czMFoZ6RFbH1C71FoR3pf9KEOhTpIennU6YZ1YGeBifdWPfjL62/OOHzpS/nVcdk98Z4+zUaPWgi/H/B4LWESM20REtcKqG3a71fMQ+iV2BcXOsruY+ifor45X9RwrBbHJ2px8d9Vdq0K51m3R4NzBIiFrU4lFgHyi6Mli14YlXbftFp1LDRr7nTumX085597J9q3Owyp6dbA5qWJtN0Ji/dhA6nYlip7CVWxcURPHXoh3X4Pos6IAcO+EUkV9xrSY4CkIUD3XRJCyQPPDEmbOeHZ6uoM/f3zk2/1HH/DkSN8F17wANof5oPqAfw+Ido0hCBDhQTiI7tqP67mNnH9T13PR3EhSh6cdkfqlFlPJ7Lerux9WtppTyz5FW1aZ5Dgi4qXL4v2qVDD2LXLXD+of4fj6yCMa/IeDtYxP9966+mHPTTzQ6SmIqbHoCpeSAZNRKiKC+G1+8uBfU886T+rtiUq05z5wEgMGfEonU/1LBKLULdqT1RJEMsACW/iZIsW6lsJFf1QexXsyiup1aDq+h7dny/v699g2P1J3KyV2k5pKbbOnT+63dixjxys9+DmOnXoItwUd3DOWX/91V06L3zuyzJvmicABZLooGzApFDtDtCqILL4n5jzVBxUqXVK1td0dm1/i3GnNoNUosd3FLUpi3sh+xoNy/TxU9cQCQMlEeyc9sjfWj4y4x81Ifjd1Vcf2XHGlE+Q1awFFC8QCIJmxZbNXrNUvnheu1EJQg3w/MJyYc8qFICMo6Z9V9bA41jFrL9psTB8ZBGSvUB+AfDZl/9cM/kf13ZbM6dKs2TpxCmDUkYNn4PUFEBWrQGNyo2QDTaOKAkmu2NxDG1WBwOQvKHz9tUXqzJJ4h5r8KmspQmrTNz5FeuTc14l5+uaJgyKYmFGK7XESiSC7U/OHtRm4rR5NbgzfNSjR6DH2CHP4vyz+8BUgAAZgwMwSdn6FFEnnY+oMYY9UDmvp8FmhfQObGDin3Z9Ftaf+HlJFDGUwFcaQuyheUO9kyY9UxMu5qu5T+G8s4aKiYRKbchrdRTUmZDW1TWoilrrfqO2/Uxdj9ftKZtzHTI8C7NzSSG0Jx4ao97zwCOJhMrGyy5rfsz8eVvRpJnXkCToQqBZyAPUMArLohv7XXfccW+88VNNeDb0Mb8NG3lOy6n3vxdNTxfzFFrAV6hy62SIi0Ep3L3z25tu7tzpvff2JLpX84nH7sQtA2bEAqnCUGfpNupE4qyyUARti/C+roaOIKHiE7XFUdTC4m8LGzcW+TqqC6APPgAAIABJREFUVucGRUdm98OGJJpRVAJ8NFaEw9g2b8GdbUeMmNWQ769xCpXsm47u/NzDG8uaNpcDVCmcd18+Q7PWD0yYiNlTWAWqNVO3+7V4geL2BewHz6Ws1WBCp9kwzVQUmrVA/NC1PfQUpflIJQvIV99/t3H65G7Hvf56vNvEAbf+fa9evqPHT1iK4488F03TQRYnq+FY7Yp+G4ghZGtpP7y2TKk9hQOsSrW+BJnqbfVIL8cWCfTe6NrifRmysATpijUPEbYnXYdCYqskDCzJvVca3H9qVUVHp80c4Bl++zwjxQ+YXmgRA+SqIgYzZ+WFLi4Z0G3rjrA8lc+EAG+8gCgfmO2uP16sJGhRVRoVamKZqHjNuP92NJdlCYpCiZXCE4uSSTvyxb2TTzt53qI1VbH5/OSTPSePGPEALj1jHJqQr00AMXhgRmTByBKP+yxLdC16B46FiTBZVo3EUrc6CWx16HUZiu3GL1wAaEa7v0ihai4pGnSUQSktAB5dOESacF+1FpX8hx++JfPGGxYhLQD4g4CuWhDsehrVDXh8NRSptW4XB/8EalPWeLSv8kilRYg8NivHf+/UxxKVuP7ii1t1XjhvO1q0EJMGU5KFtqcr+IjFngLzxwE3dziqkVhUdo0c07P55HuXR9IyLBa63a6tGRxQuCf/qxtvan/iu++S68gBH/OZJ8bihj4zkZ4ujJkCqWpbe226loXE6m8dpSImWc6Ex7SPl2h8ouNo6aWB6lHFPo36NWEJst6zj+66tBSbZz8//ojRo2ce/FpZ8ys2SqGy9fLr2reZN/sXGojjZ05UIcpnwOIlaDAl0/6Ohp59JloS0jIMy9Li1ioi6NXNdEedvGPoEfdHs3YamO3lTg80SMWFYk341ynTLz/s8cdfr+r1/nT//f06jBw2Hz4vTF+qJUcMcvizrZJipKeO2/qIAblOz1/zypb4SPvpySJmW8PojREXS6xYUxcytNMM1gcFPvJboScIlQGFYXx+z93HnTJ//sbK7iR/ysR+mSNvn6+npkIRpnqa9ZBBxTJ9EhKf6Hg0MRBZmlMtH6CFybZ8WcG+T9HTkfWu6k4mHm2iVTJrIK96Dda5Rpz9oPxR6W90hVhEh8+nQKLOhYRvSRlCr7/55I7588cdkZcXrozNtzk5Fx07/s5laBKEpsowJL8Q97SoQfVGcBEvwhBvRbNNxMLCJOo+yenKGdRnB0PPHrOd0lRn3Z/6ALtQ4R7gDEJymfBHMB6eM1i5f+JzVdVaIfbnPZ+PJoFANJCKsAGka3F+KMKiokHXI1AUX8MNNLVpeo4vWbzPWWkJIo88ONJ/3wOPJ7rU+ot7tuq8YNF2ZLWwOlZ5n3AVNHbtxsaB/doe9/p/Ei6V1Ob2knHs3jsGn9Fk0n0r0LSpXZxTO2kZPArs3FG2IWd8ky65uTRXPOBjPvvQaNwyYKYeSFFkybaaUEftNML4sSS+4tsTIqvLsHzcnAmASr2P2/73oECzJvX2soSYuZlkPaN+kWaIZSX4ecGLYzuMGPHQQSnO5UXqsx9xeUvVn7bx0uy2xyxcsEX4XtCSgV1XHP8CWjaUwjHAiNo2aqtT3X+t3XaATdT7V38L1hHCguM4UNX0pArH0eBIDrV0HXoQ8rmxrYF0a5oegpcGxMJiYPnyuWumPzy0Mg/s5T17+ns+MfMLdOrcSaeBVvULtw7ytyBzffk9k14mJ1KN/lCHvUXlFiyXz+6YeWiQ0WyHVXpWWgCnmYoYgekevdBVH+iZaIA0Y2SHikKmUai4BLteenlY3gcfPXdNbq6jv/a7ofxp9/bLHDVsvukLQiLHR0lBWCwyWcMtrf5IYWISs0CJd0EOpI4YIT8ZUpDCBd/maBcV3/FXYfk4gFD5sfYgn6izqux6zveSipisQJJkqHZ/Q/dshMKQFRXY+P3GjUMHnXLcqlWVWuHMZW+9iO7db0RaKu0uEH4INOejp/TpBiRaaqO6IuuWGYV+iw7Z9lsRPJw1eWdGZv+Ot5SImVqFvzv/7daiQuc7GsnpBMj6SHzELJXeG71PcngMAeEIYrOeHuydNbVKoVI0blLvtAkj/h0N+hGR/KKIIPGlRxfCLQpIZZaDN9UTp064bAYNchoJl1AZ9EceHKhOf+j5RPewPvviVp1nz9uOzDRrTVQloUL1g+y0ClBYiA039Gvd5a23fmuQZ6hloTtvvfX0FrOmf4ggLQFbqkInm4boAw3g118ieX1uTz07L89Zfd+vhJJHpowO3j5sph4IkictPPBAihcqVDdicXXOKqKCw6ztmkAzn/I21EAWFWeKTO3D2cEgBK29rqXR0k8Iexe9mNNs7J0JrW61fAWuD2+UQuXb3te1OXbh7K3ItLeF2haIqGbCr0qQouTB/d0GFBfshBn1QTJMSB7L7Z2kLNk/xcuJG3jKETrbOOKYCs95iWq0Ca/XD6+3FVQPub8YUKijTnDOvkmyPQQ53iyiJjjDEl1TRsAXhB7LQFMysfqAFHvjpRjIqeKHgXAU2LZ11+rhA47uvmx1wm2BmwZce/xRjz64TvOkQPFniIGd2oNG/aoJqOJWI0BxEbC3JB+79/wEPVwKk+zaFg17FK4wbB7wfPsvPiiKDo/SBIrqhyLtc2kgbuQ8IcseyJIXCr2c8lmMVYZwblWAiELCyRSDGTkSB0wVXqUJ/MEAfCkwyRfAmwKZnkW0axp8ogCZ89d8unDDiHtu67J+fcKZUP7Uu/tm5tyxQPheGCRAVISsSgA5GoWXRMgnK/8PXk8YhiaJwQ0pkui8xOBMFYymGsSBdpHZdmPx23HGq8BIGPIkA2mpLaAqQdAWQ7IEiV0y+17/fp50Fb1VJInWwGyFROuYMQmqKsHvo/fVFOkZHmRkIix54ReqNq7Okgj96cdfNwwbWOmujB/OOy/jyMULtiGrTYqzE8H0OCscGiTaCVGsWf5ARjhfrJlJkibqJ822tKhpzcR0CbQWYmhh6KYBiVjQSyKTBokYWuKzTTQGojBiJdAMBaa9IJ7I1CTY0jni/AQyTrCx1wfp2e2OX5UlSCq9QwnRmAmPYghxJZsxbN1WVPCPZaObvPri2qp6TPPlVyej19n3RDIyZEksjdLs0uEbAaLFwKb1n0HTFERkA6ZQtybMuC1wUvkWG+pw6j5njr92opsX9STBR6Y+T9Q5anvWbkjiTo70paVbNz/zWM4Rb+dtTihUypd+mov3bcoexCSrILH8t3cvfhg4sOXR//znTtcjUBJP3Dts2GlNpkxZidSgZbYmMe9YRM0Y8Nv2MOYuCFYWCsF87vExuPbGGVpmM2FgFd0QGWGFUSQGaW8+8Mtvq1FW6oUeNiCbBgyxThzXX9I7IBUtvG7363XjUNR8XLZaQRWfqrZlUtUkoU3XoM4jbp4nmrVmIhb2Rt999z7fI0/VyD+yvl5nzYHU1x24uO7GSy9te8ySF7bo6elQqBM0ydHLmukqZKHYsQurJ91/TPfZs793cfkGOeWT63u3PPzs84a0uuGWiWJA1WiAlGCqtjmftgPu3omNI4cdeVxuYue1reOHXN9m4qQlhj9VMiSyK9kzbeeJSCFvWPfVuldevaPrzJkrGuRBa1GoiP3SrvX5Xfv2ewgdDuuCVFpbVhANafCmkM9AGIgWAZ+tXrZh6F1XVC5UJvTNHDl8AVKIKzlESghTV0FOstEItK/Wrlw56/7ss3Mbx8yQEK6+8spmrU7/698OGzL0uag/Fd6KQoU6mp83/7xmzPDO3d54oywR9q0D+pzW5qEnVyKNBJxtGKGlL0MT4zq2bNv17VNzB5QW5b/dbc7+DsuTJk2Sz8rLk7NatJBD4bAalvaKBqjGrNgRaiytvG8ptmMZpamqWaxpui8S0SM+nxkKBMyONagP0dRfxCAc+tEvfhenpYnfu1q0MLO75P7v35OQu3691GLXLimtuFgKHHmkKNtbUiLtKiiQIz6f0tTrNbueemqoung8YjPpv19bjAvPuinqS4OXRHTM1qfkXFiyFytfWDRAe+2txZXNvGvwSI3ikB979255xJzZv6FlFgyTlgXjdukLoVKMr/vd1OqE11/f0RgeaMftw07LemDKSjHBdUIOUH0XFjgT0vatpWjbnipuQtFnznnmLlx/05RoapqYrdAPzWk8pFPNUvz8wYpXNi/6f/3OXrhQLLWakyCveeNkJXBkWPKWHCZtCYUkXyRi1c3mzcVvTyQi7Y2S6+q+j4cmJHGfmIdmbtV/qI7vd55vT8LzPJFm4vrx5VKZanq6pNplK5ompYZChq6q5rGrVpXUwe5e/Y3X4IhGKVTWXnVVu66L5/4SCaZJHtOALJHJmjQ+GfN1oKgUa266JVhZB10DLg1yyPrs7KadH5uxB61a27t0VOFYSyOASv8oKsK2Cfec3va5p1YlusHw9MlDfMNGPE3b58j/gl6uVzeglxRThCEoRQX4evTYE09Y/PJXDfKALgtdf+ONnTs/9vh6ZKRD02RIAWsnCtFRKY7Ip58sy7t7Ru9KTbYP3N8nOHLEQgTTgJi1VFe+kzAWg/nJqjfks87u7fL2Guy0z7OzM05++rkCNLPX3MXEmZbK6EcGtm7e8XHODUecWklciNCkyX39I8YtQMAntjU5O568ZghSWQjGf/77mHLltTkN9oANUDCJ4+x+N+Xi3NOv1L1BKLS0EzOgmzoUcsCOhrD8nruPP+fRp9c3wO0ltUix62fuvO3IyipfWSQ7UbnvT0EZvhl0c5vOr722Pak35rIwIVRmTluppaeJvpHmgsLdzf6o27YVo23bjEqFyvznpuHam+4MpwTFWXQNYVmipXQzhPz/vDe36YV/u9Xl7fFpVRBolEJlY/albY9ZsGBzJJihkjAhz+kIPNBNDQE9BqmgEKtv6Z/RvRFGTtQ+/O/7yil/ORu+ADSoYkAWe+/J3SYUQ+GD06/JnHpfbqJ3Gp01/VbPoCGzaUAn3S4EDvldkNWJ1tV/+uFLqeOfT2qMLcL86KMV+NOJZ9AyUFTsNCE3Tg0q+SF9+ulbuY8827syH5WSyZNvCeaMXIRUsqhUePpoGfDZyrdyn55X6fmHKi/h9PncvDBatgS8tu8MOdKSJU6WIW3/ac/HI25sX5lQMR95fAT6D34Ufo9keq0tifTxIQQUF+PHx5698aiJk146VJ+/Pu6LZsH4yz//gXPPvELz+KEafqFqTXJqp8oTKkPeiNGdzl648Nv6KP9QuiYF/+v8ysvbkJWVZpkd7Aoi/C4AFJSY3/W5vv2xb75Z4+CLDfl8O4YNOy1r+qyVkVQrJoFYWXd+mzqkbdsLMe/5ppUu/SycMw3XXD8uGkgVFhUSKVosAhURSGYEZf/Nez54yTUDG/IZf69lN16hMnfRj8hI85qmBkOi3Rsi8g68NLQXFGJzv0FNjvjXvwoa04tb3yXb23HiDTM9l/QaSY9TKsvwyh7RoGKaiUA0jOInHhqQftfE+Ymeq2D6pIEZQ0bNFUscYhsl+QaQKcYESssQ/fCDV3yXXn19Y2JC97o+O9vbeeCAf+Os0y+CN4CIpsHrkSGRCCNnttWfvoX337+ssg5mn1AJ7ou34/hFGBHg4xVv5U2adnljM+ULofL0U2G0bgvTpwoXBOF8TH4z1ANv+3n3slvPa3fxsk202/CAT/jxR0f5Btz2kO4LSORqJXz7aNMk+f6ES/DDs89dd/Toe19tbPWlLvcrln6W/uM1nN/ziqjHD29EhYhFJOLUxICyYqy7975OXZ966ncvVH7q2dPf4aVFu9CyZapY9ymP9k1mFQko2qt/fUu/to1l6WfLbUN7tJ0x/SOkpyFkmPCotLuNlm3IKVoHtm8vwPzFzSoVKvOfmoZrbhqHlKAiLJflwo02bpQh/N4H8wK9rh5Ul/rH5yYm0CiFyoarrmrdad7czchM91p+ahKipirqjo862e3b8cvtQ5sevnRptVFLD6WKQQNP+nmXDc0a0PdhpKmICr8bawMrhRvxRUpR/Nisgel3T07opb9n8t0Dm+bcPVfEfRDBZ61gYFKUIpfKwEcfLcLKC/pLkw4IfXcoYTjgXtZ36eLtPPvZf+Mv3S7SdBkqRQel2S1tKaTdQp9+9hZ6/k+oIHE+IEuoDF9ETnQUG1IsipGDIXVQtKvli4+Xrhkx5sqGzmdR25cghMqzT/6mtWmdaXo8IlKQJJa37Wa9bcvuTYPPbtexEqGSP3VS/8yROfM0f0BSKUw+NSXyW6VoybT99pPVC9Uzz+tX2/tqzMcLofLWv17DeWddoXmCUMWuHhsptaPiQnx9/+TOJzzzzDeN+Tlrcu+U16bnK4v2IqtFmuVsTcumdv0ScYyKsOaOYZ26LXy5WtFGi5EVyowb6Su9m+p8M6yKnp0t5e3aJf7ds0ULE7m5Jn0nrCb2TkBa0uvWqdM5R+SMehdpGYjR/jaFWoy9o8+IAdt35GP+4uZVCpXs68chmK6ItCcizRw5yEdF4Le97+fNbXbhFbz0U5PKVctjGrFQWbAZmaleU4tC8tACkFyeVgG7dxsbhg5p0SU3d28teTTo4ZRscVu3boPb3Hb7kwgo0L1kVPSIgdVPM5qiEpQ9PnVQcNKMhBFHiybc3TdtzN0LaEAmVwxr53UMfvpXSQxY8dGLuQvn9a1siaRBH76Kwmnw0Je/u1Q5/cxekGmbMk3oaIOQBkRjtlDp+T+hkliA5U+dfEvmiOGLzGAQOg3mtFhIIoUG5VIN+Hz1WxueG3pll9zEu4YOVS5ixrtk7vZY6xaZhpQiEkmoJNycIWDr7t2bBt/SjpJcJnqGX27rc2b7h2Z8YAbToEteqBQThQxwpIoDBlBUiJ3/XvboTys+eOSXwsLtRzb5UQZORvF335kHw/qUIItRlairc+ijZZvc9dnCqZYu5PYezWVv/gvnnXV5RE2Bj5yZaP2VNqfRTpniYqy7+66uXefMWXeo1ouDdV/mpEkyBvcr0LNap1GrcSJFG2LDFe2uDGP3G/96Lrpz+6dmVNNNGD5DMyVFog3zimWFsiJPSxIF5xApcUz654ECpLpdTQkfipxM7D+ITkE1ZbqOIZk61WUJRtQMmZJXlsJe09v62BPOyzy55+Xw+xXaxkVbjGXaYkyXoE0Y27fnY+7CyoXKQsuiYgbSFGvTqF03aA1IjaFow9cffrP41bsDRUW7PB7TE4ppPtrCbMqyGfGYhhIxjRTdTkbljULTVUlSFUnSqXOnXe52yPAEz2pqlf+tJu/bVMqTYFmH0xxPknSlrCyke3XDyUzpBOqO6F6JEit6dN0o3LZtq9u2VJN7q8kxjVeoPL9gMzLSvfuiWlrWO7FbuCBfW3fzzVldG5lFhTrugmeemZB58833wy9DVz2IieBkJgKaIpa0Sh+edlPqjFlLEr3cknvGXx8cfdeLyEyXQ05nAg1yNAIPnb98+ZLcRQv6NDahIhrxJx8vxYl/uphyz1j5skyowqoSIR+VZVh+7qWVWYqEUBk5bJGZkiaEipAqjlChgXn1R8vWjBl1eWOzqFB+nq6Ln9upt8xKMeGFBA8UxweH5q9b9+zZdNvNbSsTKl/06tXizwuf3o7mLRRTVmEaKmTD2qlO8c1U8m0KRcTMGXosDD0mWbF3RKjXqNj2b+192L86xif+JKde8QLFMEWWLNrGq8EwIjDEtuOKfdCBfZJIkkbnGdQUwmKbuPhO+OPQVmQTmqYjqkdEuE/KVJu/YzO27/js57zVSzu8+uIXNekMnWMsodLz8rDqh59ywTiBcynWTlkxvhg9+sSTFy9uVA7ptXn+cg5CqAwo1LJapVp2SCu4pRNUUyErBFk1qX54/FaOMhFNnrbz20vPVcXPqSyuTm2+d8JMOB4nwqGcth1TIEJ7XznFNCCrhy8IRCngowr4dZhUT2WPkCsK7XITQmVBFUKFnGlvHKf7UxURwkdYIK0aHDPCoCshRAEX7S14InqnbYGiX1SHSZRQueSeLLaK2zFL3LwgN+fE71Yuv3/aqm23Yd22EonmSs9TitiLL9/qnXD3XDfFHaxzGqVQ+bZ37zbHLlr0EzIyvdZaoROYy7QS75WUaqtuuqXp6dWEmz9YEA/WdYR59PWlL+Ccs29AigcRSvCpqNbqVkwDCvZg57TpF7V8/PF3EpW5d+L465uMu/clLRgUWGgOQ6ZNEQ0xrMFYvnzJiodm9W1odeyGl7Fi1VKp+6kXCwNy+SyKBj5yhv10We7jz11WacC3B+7vk5kzbKGekg7ZtCwqVsgA2m5aBKz76k3pzLMvc3NfDXnO55ddlnLy4vmleiAFijclLiEfEJJNBLb9unfTwNvbVCZUhH549613cfpp58HnkTQK8UBxZqjjJh8EIUpsQUAzTrGWHydKhM9CNSHAq8uuTZW0OgN/ZZCFRrKDyNHSFX0oeYuIO1QEkYSSAnD9d+Wrm1559Y6Oubm7qntfQnm9s/Sf6Hn25RGvXww+YqmQLFWUJDRciHV3j+vadc7C371FRSz9vPpiAbJaBk2TJkyScE0R8lQMvLoVs4oCNImlITvHQHkgPxKS1FjjUiQ4gfgqChhXqRTi3qa4H0cQ2xnPncUmcgcQ7q8KDE22IpjQQ1BgScr9RR+a5f62NT83Z0yLyvoRUzjTXjvOFM60tsma/Jbo2hQUkXyZRFgJJ15SuSOcVYYj4MV41VBB3iq0APFq4ixTZEF0QvprMQ3hMiV/4YK7m44ZN6O6tlOff2+UQoXSrp8454UfkZ5phRYVotXKoUBB8eU9+aH/Dr699fm5uYUOPGeNtLLlgfqEXNNrf3pxdqtTHp2+Fi1bZiEjVUxOxKbrMK2nSkBhPjYMH3l8l5dfTrg1ctfdd97Q/N4JS7RA0IpxVR61kyIMasAHy5fkNVKhYq5YtRTdu18sBk475ppo+FqYln7ezn382UtrJlRs4Sf6EBI6IWDN52/itJ696zBk1vQVH7TjaM29Y9Bzwp8eefxLZDa19hbDCn1tjdkRSFs279p0a077qoTKnmkzBjUd1G8OKG9NWhCaCImvil1mNBiRgcWKkUimCgOyEAb2rFksB8SFlj9oT1eLCzlx1WiHqAqEVRMKyPBPiQDI/4AsrMXAJ1+8u+mpp7I7VrMTUOz6+evS10ioxPx+sdNHpBMgExMJlWghPrtz7PF/mbvod789WeSBWvrvQrRsGSgXKo4WsB2vyUhghZMnnULxAK24mtY2eTJ8mfuFwyyPkB3/imtjQYkXOOWhNq1hTBJWNrJUKGLpW8xFRLjyGBTVhKFTPjUrZL1KgoLGDEo4aZloLaEyqnqhgkCq5a0uBLaT68eyRIjldjvcoSVOSN7ZbaZcsNG59tBLs9CGSurpCDuRjNUSk04aFxJykhYzEQ4ZuxcvurPF8JEP16JVHvRDG7dQSSOLis3EThYmKmbY1HfmLpqCvbu+Li0rE5EqFdM0ddGKdJB1SzGsmiKZhnCJ2reg6iysxv2mSJvkjErmsZr+pjVZajm6DFMxDJF0SKzOiu/F9TT6XtIMU5JNxefJbHdCt6uU7mddjGAAoYgOj9/KSaMaFCU0Cvz686+rxg7qcvrriUOi77p7zA3N7564RA+kWblpREMREQYhEpZ88P6SvEdnNkqLivnBB2+he49eIkQodYDOmoHlo/J23oTJl1VmKcrfz6Iihp19CeY0DfqWX7f8tPT1SZ6SkoIYhQ40JEmJKeSfINGsi/4n6g1FPLU/wkJqp20XX8XXC5lMEXb9MVSp0npj1ztajhKzO1q6tNfqTcmgyB3wBrwIRyKSHjEkv0cxdFk2oz7Dl35428NbHt/lKvnYLifpsk/4UcikTEWgXLKg7QV+2fwj7p11jONQmKj3EGkXJk3+D/7a5XR6Jt0TFEaIIAUMpOpO38Vt43QsxE7GA2t7Z2WhZQ96f3XABQ1KDkiDj30LUV2H7KFs6Sb0SBQKRT6m3WGxEPR333nhw8ef61+VRVHEUenb5x84+5zLjQAtE9gWFZppRi2h8uG4nC5nzl6yof6frmFLqChU7FDBVpcrelIShbZIcPoap9+xVzycr50nKfdOiT/uYDym5QFjCxWSD1ZWawpcYaUzte42Rkk3DR0pMglZuglyliY1LoTK3ryb+7SsrH44FpV4oeKwiBi0mknhqizhbpW4r104c0YJ8n4pCK1Mbw3XfqilWL6M1j2Qpchu05LY5VZSYm6Z8/zI9nfe+cTBeE1ur9Eohcraq3q16/r8Sz+AhIpVG8U4oRsmvE6qyuLfTHh0CaqfFD7Ff96Xl0fIf6Fyrbrq1vTslnp5q7UblrAQkMwPiHTy5FpFfnsq5TsTQiUm8pQUvJr7cJP+/cdUVuyuMXdc0nzilNfNlDSZ3NnKR3MSKiEDyHtvSd6jjXPpx1yetww9ul9k5QEiXlaAP0RIqHz+Tt7E+y+trIMpmjq5b9qIOxbowVTIJm3jpRUDwxrYhZAzgDIKEx8BvDSwkZMcdWA0NSL14MyabAuC02qcmZDr+kPl20n9xLWoPsRdTEShd0zJzgzMNtV6aF1QhU4b8k0dfskPQ9NhmFGodK2yvcB/ls+X/tZnQHXVdPll1zfvOXlEHo45oosw1ZMJWya3OlrrtxWh007s26OkC/RPa36QMDVKdcWW/90RnbX9HV+AEdYge7wwKH6ME7Tevmc9GoLs1yCFwth536yrWj700D8ruzmx3DF2dC56nnuFaQsVMb8RTrUxEQl5xficzmc988LvftdPuVDJahmgfEZijuW4ZdgWFZEtwcnNGT85cpZi4gSLYB5/jC14alxREh1YPmPZZ1UXhj4r9zwkkdeMwhhYse41JV3UVrK4kZyR4bMi2rsVKvZqF8Ugokf1inQRNN2xkjjGu2A5SXGtsciRM5RF2YqDX9v6X9fj94Wss8A6YkW8Frp4LAyUlWHXwsXDsnJGP12n91THkxu3UMnItOKoyBBJ5shN0h+xK4EljUqxAAAgAElEQVRSAii2PViso9smvvi1TNFoGk7NCvOhtdgrrATRshi8vpR9I4DoG0vhoUZWGC79fOyYk0958cVKswTvyRlyUdOJ095CIFUS68aSCU2mWAEkVDTgveVL8h5upELl/bxl6H7qRcJUJJI40vs0rFnup5+8k3dfFUJl8uS+aaNIqKTbGX4kGCKisWxbXakOkN87bcsl/2wFCNkjsZcsOBWEiuMkI5zl6lKHSKg4SfTs6wgHADtxmeOPIwyBtihTPFY4TdEHWjFThOte1BSxZRApBmg31K9bf1w/YcLZx+e++UtN+ohNl1/X/qhrLp2Kc864EcGADK8PoJQL3oBlGhdr17ZNmzpgpw8WeZGq6GUdf9vKetX4pI41udH4YwR/O3mlcGqUoSs+MebQaysXWQpQjGKk0fbilf+3VDrvgkurFCrjRubirAuuED4u9lKCBdkSKp+MzuncY94fRKi8aS39WIt/lv1EoC6PuUPLYrZHqeNv5DjIiVxPCYYYR/Q6Qt/tKCSuY9sqnIGfnGuFOKKJBi39kUihoJfUb/ihyx4RDJNWOsutHGKyIiwqe3JHjWlZnY9KuUXFMrSKKhhNcSKIkwCi9hvvu+P4fcQtLovCHWfb2lb8g3V8nD+KUCeOr4q9ZZs2KoRC2DVv7rCscfewUKktdtui8iMy0kWQA1pfo2GGhEoK2aSpAnlKEZEjkBAA7Q+h6LWkaG0DzL6lkQZ2TBD9PK0R6gZ8NADQRlKyZJMJ2wzTWoCwphj/782nlP5976iK1Z7ht13UdPKMpQgEZSi0Lc4E7f4h456XcgX9570la+67r19j290imvT7K95G9x4XilTQtLXLsRiR6v/003fW5Iy6rLLnKpk8uW8w544Feuo+oaKZBlSRJZn6MB2SqiFklEGRaZuvx9rmKzYQGGLpx5IDjnI4eI5wjm52ri4Jhzt78I9LFUbHiQjFTjwLgyw9ztTHtMQVDcTks/Ptuo3rHn3w4q4vLf2xtm3r//r06dLxzG7Xphxz3OlokdUaES0GMemjbHQiMafdw9sjkPALqLQUM+FAte9wa/dOxYPENN35VKFkSKjoUQkekSzUB6+3NZq18sOXalnFHMObQhOZGPyxEmDbXqwefEelUavF0k//m3Jx1vlXmv6A5ffgDMC2RWX12LFdus9e8MdY+tlPqJC1ynll5OIRBXbv3Y29u/dANzyQZUN0ZKSgKQmnoZMDi2VTsYwxJHat35Tkkz4in2MVSRvJ3LBPCleoaGQpp0moI0qF4qA6Z8KkjoKSrIdptYXsHTraHnYYmjTLCJPetuc5NOcRy+SWUNmdO2pMq0qFyoK503HtNWPLhYoQr9aPEQDkUBGw6ad1kJUAJNoKIRJNG5CoY6cCaYeas45qT0bIJcAoT1S7ryXte+7EjcvhWbsGXlESSiIWjDXZslwSrJUrmsnRRMVAqKxJydI37kib+iAnJawda6BcqKRnWq7+soFSkSvYA58diJX2tZNHIDkHkhlQZMql/lx09nH+S45PVG1v4iAcL5qPU3VoIkDtlSKL0tIGeTPSUgRlTf5y7edfPj774pOq2bWwc9igXi2mzXoDgaBCHpUxyRBh0cm50K/FEH3v/ZfW3TOpb6MUKnmr3kGPv1wgXp5CwfNp+yzFA4gCn33yzpqRVQiV++/vFxw1fL6Zmm5ZBSTaZWtZVBxfHlPSrPHYXkcU2XKp+VI2YYnqljVFF/EZ6BaoDtVxQiRevd3JkiGQ/km+FSKxinACpGUfqrCkpu1ooHSQ7SMqLMu07VJEpAWwc/ce47/vz/n6jX88duJByGhLpn8nAWDF6k7J/+g7SriGDYD3sMMkNRQS322PRCSvk2itzYENJbp7/+RpNWlKlMSwXSBgUoJCSk7o3Jcd4MvI69lT8bXwpWeedNpVnfoNmov0LMvyRj6wMQ1erwyJAtnlF+LLyVNPOemppz5PVK4QKgNvyUXP86+MeH0iOAD1HeLd0Mw8UoSPRueccNpzL3xdk/tuzMeIpZ83/l2EVi1p/Vy4UzssSHZIZcXGx8NuO8f71XcfHep9ykc9egSaX3jhlR3vGL4ETZsgAvIOoZFBsfoRIVS27MLzC1tVGvBtwbwZuDZ7zH7OtMKBi5ZsS7Bn5arczQ8/2zc+xxzZyvN69pTbBQIKJSV06gMlJ/Q2j0qUIFCtkJQwvs5oFRINxv8tVknSweraF7Uluk4H+2JaYIv4bzXUTtqTViwHitNoQ3e5l3zzSCTS/uOPnVArDVKl3RrdGuRmnULXXX55++MXLqRdP47HFMIShXxT4CWLhJiQltl71SnwD5mu7T2t+9LOW5fbfxkx+c8lZmykoOhHs9cuqfZHgEgIWPvNso+fmnvTqTUIXrd92KBerWY89IbuDyqKrEAzdUTF0o8OrxZD+P3lS9bf3fgsKmLL6IoVb6NH9wtIbVIeG9rdJUQGWRE++7RKoVI05f5+aSNHzjdTU8uz3cdsoULYRUgDk9ohXZCWfsi5zq4KHnondr4k+kryWss1YinE2RbvstqI9Wy7DlK3IISH/SNWm2xV4iELkj0ZE4GC9m0RtXa26EA4VrZg/D2X9X/qsfdd3s3v4rS3evXy9ZoyeRM6n9AOqscSK86EtbREzFC2zJl9c/vR41+sTqiE44QKvRavLVRWjhr3pzNmz1/7uwBWxUMIf52XXiyuVKgU52PjgD6VZnM/1Pj8OnToX9tNm/YJAl6UeURuedojCrXcR6U6oTJ3Fq69ZlS5UClviJaTdeF/3puXedkNHEK/Hl58YxYqP8C2qFA9i8JASNOQonrhpU6e4ijEyux98o6pnszBtlld/GpI/xT7bZIpXSh6GrRoUNSBwoLf8PU3y4vWfvXWF+9/+EpN455sv3Nkr1b3TnzDSM1UhLXTJB8Vyt0SgxzSYKz4cMmX997b6JZ+KEKmec6Zy6STTrwAQdqRrljbRclsSVan1WRRGVvp0k/R5Mn900aNfJ4i05JlgszXlvXERDgWQZAGs3AZUBoCRDwSWkah7HxUBgkYis1hi0jyYSGhIiwejsnZZT0SOsR2WCWriTDR2PWB/kYBH2i25iWzsQ74AyIOhKQqwvBGHy9tsSS1VRZB+MsNS9ZOf2JI92VLiuqhr2g0lzTfffdNnHHqJRQw0dqOStvY6f2RM0EZdi5aMLbl0PEPJXogMTjn5PwdF5x/peYP2Et+dAkZMgU3ixbj85xRJ53y/OIvGw0QlzdqC5UitMwKWEsEtglY+M+akEsL8fXAvoed8Mq/f3VZRFJP2zF4RNesByavRXq6tdFHlG5CFQ7BBrB9y048v6B15SH05z6E664ZuZ9FRfTd1D8UIZz3wbzARZzrpz5eaqMUKl9nX3pYlzkvfO8EfNNpSVIiXwJKTigjJRTFntdefTL26y8flmhhE5IsKYYsGaYhmaoV4VIxJZM2kNDH2a6sO9uHxczZXkN11lTFSnr82nnVr8OktUfnIxa64z5x1wzrOoJeLxRDNsPFRUV79/z27SnzX6q1bwFdfdOwQb2OmvnIG0ZKUBHxCsiZ1oxZNjzyufjii2VSj+4X10dFqu9rml+t+QKdj/mztdWXSku1nPiiJcDaNe9seGJ27y65uSQvDvg4QgUkVERyNTJj01K25Q1n7tha8OO/3pyo7C7Yqei6sAJHTVUS79tL/ilReOhL0r+0I4aWPChUuL0rWY97n5ZTQ80+simZ3qgI1mpGfaqpSSIICFRZlmRJzRTuf80z071NMto36dzlfLRtezRUCiqlIZaSAlNRQckjLKErA3vy/7cu+tXajU8/fsZxjSzYYc2I1ewo87133kW3bueLAUmXrdha5AhLQiVcjN1/f2VKiwE5ExNdTQzOI4f/HedfdGWYrJFklKF3Ljz2o0CkBGvvvuekPz33HAuVRiZUdt9+x1+aTZ28GumZVpxCJ9yLGATE0s9OPL+wdkJF7O2laLRFiLyX97z/kqs5e3LNmmmtjmqUQmXDVRcf3un5Jd+JgG/0BDp5WFv9dRQKfCUl+CpnbPsT583b4tCgPDoVElfRkFXloBKXi2R/TnbCq4SkKSGW9bGS0Sbx8+vwoRe3mzrtTaSmWh5vEvlUUBwI0/Lt2rVnz3tDb+ly3uvv7UjibdW5qM/7Xn/cyQ9M34BWWZKuhaB4KRQ2WTYIbwhYverNDUNHXd1lfeJcPZUKFfJ0oV0yX3+9dM3tow5ISkjry7nZ2VK28wTWu63RO3XefWX5bNzUjR/79j3jiBuuG4NuJ/ZGphcF0SgyfRkwdAmyiIpJ29hLEH71lQmBgcMeqDP4RnoB8/uvi9G+Qyp8AcTssO/01rw0a44UYcfiF0a0Gjw8YVwIS6iMeAXnnn8VfF7KSmAlroSflteASBk+Hjuy66kL/yCRaV96sRAts1ISWlRKCvFNnwEdOr/22s+NoarsHXLr6U2mTv0AGZlCvdKkVnjeUE/tCJX2HVpV1jbN+RUsKvTQQgDThKkM+rvvzVOvyOaln3qoDI1SqHxzxRUdjluwYOO+yLTkzEQZLCkRiAx/aSnWXXtL08aW66eu73dPzh0XNL1v0ttISxOxrnWT4sypMLQYvBTAKxwCPluxdM3CBSO6LXr1h5qUV6lYs8WYc41EjbvCIL1fXSMBEF9+dpf/iYBJB4q7/159yZHn3j3xBXQ64VT4yd/IduqgrLa0xKeXAqvef21Dzl3XVy1Uhj+PYFq5RcUSORpQVgR8+X//xpnnXelGPNSE4cE8Zn12F2/n6+96Amf/5TYRkRYB6JQ5XCQV1IDSPbSEVbBx0Igux73++raalk1CPheAk9CPnGUD4bAU8vuFMCPn1V2UmZaS1e4T48AkqwRKBki/6XzH0Zb+m66BzgA53B7wu5KbI8fc+D9Ff/nFpPtw7sEuX9xLxXf22cQ7e3XLGfYWUpshSkt4XivUEl3QJ+LlFOPbWTMv6/TA9DcTFS/q7Csvz8V55/ZDk0wR/UrXyKrmt+pbtBSfzpp11V+nTt4vFotd18V9H1C3KwjcSgfCA/Me1fT17cehYruj+3HeS0ZWlly4c6fiaRaTYns8Zrc1a8oqK0SItpdfLERWIqGiQy4pxk99BnQ4spEIlZ1DbzuzxbQpy5GeSTnlhVOYSAtAQoWWBnds3YmqhMrCOQ/immtz9vNREbGPRGA0FK5c9cq7C168KX7XEDGMbw+OEzh9R++CHNDJ+TzRO3CcXp2/kTN5VRWC2knFvzvtt8YVyW6zog1+D6jtQlKHvDzak+Fyfbs2JVd+bKMXKiLMgXCIpX8YllApysePAwdnHhUXQv/g4Dq0r/L9Ldf9+ejHn/yCljhMD7nQStB0HT6FYmLYgbmiu4FQkY4YdqGQwt16HCtBfCW3thSKH7E3c19gxaoRJGpI8XWsQn2jXRm0lCJilZgiuRwF7BNRxzwKFCkNWbSzy1Ri3gwYPhkRMwyfpEKJqVAphGq4EHj/7Rfznp7Tr9KAb8JHZfhcBNNkZ+nHsjjp1oxo9edvrxmZ0/tQ37ngoF9+Rc/MnvffvwzHHtsd3nRokg8RQ4dPVqzdSaFSI/xK7rRA/1snVFdjt93cv1vriy+4Fy0zM5ASEClnoUuS2EVEH0UyIZMTjF0F6P3QMghtORJtjg6syZKoiCVu26OqCZ5CSQctFZKo7lh1zNm+qaq0vmkgZhjISE3Hkc27ILOpFyZFS/SI6kQrhBQ3A9EQsHcHVo8d3b77ktfKra0VGUUemjHe27/fNKSnSWHhu0wZzFXIFISRGtKvP+5G4e6vEIlEockqJJVGPCtrX/zHeuLEH2sj0cH5xC8zl1/RXoIk52sriaM1MtOih2koomMoLdm5ffbs8W3eeOPbRDeyPjvb2/mJR/OrFio3djjytbcahUVlW87AM1pPmZanBdNlCmVh4ZCt4GaWUNmF9h1aViokF1RwprV3/Vm79zSguAT6+k0rFF1TxcTZjEpWcEpRl6nGGlZMojjaNHjtX0sOXr2otnZRJgC7yjphBsQysn1H5BCnGL7Cd5fNzJz6IM1jGuzT6IWKyJhMThi6LmJeiKWfvbuxsd+g9D/aOv2Hl5ze5PT5r25H02Y+QzFgSLT5jhqibMU80nWogRB0rQSKQsGsaO+t2N/fMBVQNFKyBlDbpZDWOmSxIEc/diA0CramehC1Y+DQpkKKhOqnbMHkkRIqQvH8uWPSR42pNBdF/pT7+2XmjJiXWKiY0D788M2148Zd1ViECr2sVYP6nnLq9CmfIr0ZdE9g3yYl6hNpd8uWrTtXjRt3dHWJOc1ZT47BjTc8iKZeDV4KgkyhL6he2PEVyCdIxLogx1+RFMR2IiYnYPqeLFx1nGw5AsbNb3sUQEwSO3xMv4ZSQ0NQ90AisaJYISFEfxwpAdZ8/Kl0xgV/rarCfz/o5rOOnvVoHu0OCXvIoTlFDGjUzYitrBRETCuwEoV60q3AR8LR1Bm5DqHfzlay8gQ09tYyUm/FBYjNnDHU++jjzyTiQVt6e7yWuwdZBzrTithDpbT0c3OHzo1EqGwddvtpbWZOXqGlZMqqk0zTqXMkVHZu342c0a0qSzlhJhAqYpMe5cWhdBrk/E51wgmLJxzdKe6EExTRyfFjB1pzul039d5x5K/TbyfgaNwOQxFS195yTfW8tAjbXlg0tu3oexM6nydr4GigEapuj7efj4pzKd0KjkZbV6WCfG3dTQOz/mhLP0LYL1v6D/Q860p4ZImcLSURuEyx4mxQ0jatCP4AzSZ8iMV0eGjra4N97IinwnbjRH+1J+gkoOijxlBYXIr01EwRwVz2kqCxVvpEvJFffylYN2PayV3nz6/UAblKoRI1gFUfvblm3JhGJVTEu37//Q/x1+6nUwRVXSz1UQJLCqevAKXF+GHGtHOPfmhGpduVafze8+Azdzbr32cqUiRJ91PMIdrkb+sP8s3w0kAdN8kTFi/qyOz3czDmf3XoqK3w45Zh2ohFQWmPrO3+VLesmDdW4DdDWFPy580Z2vTOSQkHZqcZiCWPifd9iFNO6k5ZzA2KxaSrVi5Muh4BMinyNZ1BlhvHWOFE8zqEfju7G6lOCNOBswdetjKHP/HIWNw75ZFEpv21F1wQ7Lpo/m5kZfkr+qg4QuXbQQOO6PTKvzY3WBdSi4L3DB7cvemMaavM9ExZaIfyd2k70+76rXTNbYOz4uOgxF/+AKEi/ujsIrXjM8ViUCjVgFMlHN96O+mflYyrYsBIO2lhHdqBq/j7zsOJpJB24EYhuO06TkIlEsL2BYvuajN0FGdPrkVdE4daQmXRd7Trx6TcLU7gKzkGw9Qgl5aWrbvu2nZdl67Mr+21G/vxX44Yccqfxo5ZjeaZErx26gCaIdtBxAyvLiKxwvSKIKO0zbDOM2KX0EQE+PJw9PFh6vfNOCJmFArNfwwrQyvFGIVOZlUfUFSGrYsXDWk3OufZqm4hf+rkvpkjhj2PYKpsmhRdk+LMkhOdDkTCwOdfvJE34b6raroN3OXjHvTTzMeeHo8BfabTUp9GszpF5FCkLUuAXoaCJYsnZ94+5P6q1pe3PvbMnW0GDppOBirdYzkYUl5EnxONtTyza9ysUBhVrCjPTiR/tw9XF2OeExePftsZk2DoMRG4OBaNwuPxAVFbUFHuo62bv867Y/QpZ+flhau7388GDz622/jxa9E0zQeyPlIerrgoB4YUEy3HknVCudnt6ND9bdIONwGcshwrwscEjz08Spow+dFEPNb37Jna+eUXdqNllo/iCwnNJ949tR4dcmkRNg0YeHTHV/9VI3+36pjX99/3DL6je9OZk1YhLVN2IheXp90hk/PuneGNtw7JqswSb86f8yCuzc5BSqpC8b7FhyxLBEXkIaV8SHZQUfE354n2RZp22o3zp4acJtLdWdGZnOzOttXUzqas0uy2tMTYPHvBvUeMvnN6fb+fqq7fKC0qX1+afViXl578HkG/V5fTRKdJUE29FJKimygoLlh9w5AO3atJ6d6Q4OuzbH3enLvkq3s/AL8qw5+CsIjOKxaBRPNyXHqEm0ZDtxRnRiI8ZeLCBJOrBDUY2x2BYgsrFIWV4p3QJ78E0ZWrZvmuu+7O6ljmT7u/T+bw2+YjJUUmfw4DXsFAJaGilQCfffYvnHb+1Q3tMFbdc1T8+/Yht57dasbM95GWbgc0lmFquohkDgpg9/Enb26a9tjfOi5bRmEQE362PD17dNu+/R4ErfkE/DKp16ihQ5UUK7lffIebyIuptjd9EI+n2xEeMk56AaHRrGzXFHXYR9aWUNSK9vzd9+u/ffLZqzotnvtdTW9h8/jxVx4+ZOBiNGuSKnIeKSoMiUKE2TXFMVA0yl4UIjOu8cgjI5T77nsyEZNve/dOO3beU3vRopkKpFi74MWBtPwag1KUjx8G3tbx6NzXN9WUaUMet3nIkFMPf2jSiojfr3iNoIhsT26sFLlbNaM6tv0WXnfbHe0TWeLJ2Rznnj0DN/4tx0xNU3T4Regrr+Ni4lju4sIrWUIm7ontepLgqwbBYk1RNUtqi/+wH0a2EyWaEaCwSNu+8KU72+SMfaRBbtIutFE2sR8uzT7syHnTv0fTTC/terCS5VCXFQY8UR27Cwu2DJ/Uvn1uboOG/W3IF7t10oT+bfr3mYn0YHMEUyxFQmsDZLoXQcvsdUlaVy03SzaAyZp8UEQPaFtRHN8UMpMJXzfa+heyguEJP4MobbMuKlm+Ynza4MFVWlIc/iWTJ9wSHHTTIqSlAR6aGQcAjYLFRS1fg08/f106//LLG/J9uSl7y5VXNmv71KO70bS51QbIEYPW2kWagZCBjT/88vGgUZ1PrSL89ZaHHx7Vtv+gh6FKOhQyNVFiMsqg7FyL1lJoXYXej10/qL4ckO6oASwJdB9UL0RHSz4zxMD2p6GlxJISa3r75dq3Vz8ze1D31yp3oK2M/+d9+x538h23/QMdj+gsMnWnNbESYhaWAWkZ1hpZQ7af6iw5tgUlgcXHQGmxjOeeHS7dMyGxUDmtd9qxrz5cgObNZBG3SJgfqH6IXZYmCvOl3+4YcUTrRrL0s23Irae3njL+Q6RQjsVMYVUWS4JkoY2UxFBUEtswcEj7Lu+8s7diffi1R49AuwH9HsDfLh2BQIoCiQJDOmm6G6DfrO691+Tvot7aXvPkIkDv15nFyroJLaqjLKwWLFw0ssmYex5300cdrHMapVApye7bKjhx6Ha0aa0jqpjWejmZB2iLchj4+ZfiLTOebftHFipUQX694YaO7c6/cACOPupKHHXYkfDQDhsadKiBOVl7rd1ScR2ZPV1MwsBj79SyRJOt6MUGIzuvAa0NkdynwZcSnO3YsR4rPnz9u5UfzT42N3drTRuBOXbUxbitz1JkpuugbdrkuxCjwZgKLVPw0cfLcOU1lzSG7cnxz7y+Sxdv51eW7EWzFpYPAXmVazTnjQG0q3jPHmXzoJGBIypZ6hCzxDN73IbLej8Nr6pBVSSxe8FH4kRkyrRsFSRQxHuJEyrxPYeYIiahvpQvNsXV1/LIzlRP7LV2clopKYlh+2/v7nrnnRezpk37e03rSqLjPsruETjl1CuHqhdedDsyMzqIuuoP2j6TJLQb6UAVDil4+PEB0mOPzU/03D/17OnvMPfp3UhP85NFRfQbNNMRUZSjEkpLpN3DRxzX4vW3K83oXhfuB/vcSL9+nb13jViP5s2j0AIywroVJ4d+jKiCvQXYlDM2o2MCS7zIe9SvzwxcfOEoeD0x+DLsUZ0GevIwL6//dka5BmoPtWmHTpZ2kULASQli+6TR32giF9UUvLjkdmn8hNkH+33U5nqNUqjQA268/vrme1I0IzXU3DSVEg/CCEZR6DX8ZjTN9IQ7v/ja9tqA+L0f+1Pfvv493j1ycb5f9qRFJOy2nriJz2futB9efG9/1Ejavn9XkTSrMm5VJdOqeI4ajEpKlLZtWB8lmiL+XRKzvgsEY0YmCsJHLKzet6Cy+/n5hhua/BiLxdLCYaPY75dTtIAvxe9VQ1qhlB6JlDbWHWJfXXJJEy0lRZWCwZheWmpGka6Y/qjqC2iGnK9J1SWy/Pzkk1MyOx+WWlxsRgNNDX17sZWwzJOWJoXUYlmNxiQ1miKlesvKLdYl9vspf1+BmAQK2k8bYIoAJUAdd9UfPaSazvG6R2yRF5/4cvRS6/v4uqT5ihO671J9dZK7NbFsq6HKIhVXd29V/Z2WQ0JNmyol0agUjsWMQFrEiNnMKjsvvl3VpOz4tkfHJ0paV5P25ZynBPe1LdGu7PfXNBaTulSTQ2x99sWtSlPTPWoIuiFJUcXnEyasgCzrgfAO9fCXljYaP0ByHt94c/bh2zXDl6allClBpahUlnV/cbGsxGIS8Th8aeXP8/MllzSJtMxosrs4FvGqakST5Shx2BsOS/SO6b0Z0ahq+v2qRwkLm6MRUc2oXzNSwmK/2AEf2a9JIc0vKZomyT6r3ciar9r2Q8eFNet4P23RT/Ax1Mh+39O9HHBYEEApIPt8khqme06B5jeMmK4bqiTpnlBIrq4PqUmdrusxNQJS10L4fCbABJgAE2ACTIAJuCHAQsUNNT6HCTABJsAEmAATSAoBFipJwcyFMAEmwASYABNgAm4IsFBxQ43PYQJMgAkwASbABJJCgIVKUjBzIUyACTABJsAEmIAbAixU3FDjc5gAE2ACTIAJMIGkEGChkhTMXAgTYAJMgAkwASbghgALFTfU+BwmwASYABNgAkwgKQRYqCQFMxfCBJgAE2ACTIAJuCHAQsUNNT6HCTABJsAEmAATSAoBFipJwcyFMAEmwASYABNgAm4IsFBxQ43PYQJMgAkwASbABJJCgIVKUjBzIUyACTABJsAEmIAbAixU3FDjc5gAE2ACTIAJMIGkEGChkhTMXAgTYAJMgAkwASbghgALFTfU+BwmwASYABNgAkwgKQRYqCQFM/pPGpkAAAWaSURBVBfCBJgAE2ACTIAJuCHAQsUNNT6HCTABJsAEmAATSAoBFipJwcyFMAEmwASYABNgAm4IsFBxQ43PYQJMgAkwASbABJJCgIVKUjBzIUyACTABJsAEmIAbAixU3FDjc5gAE2ACTIAJMIGkEGChkhTMXAgTYAJMgAkwASbghgALFTfU+BwmwASYABNgAkwgKQRYqCQFMxfCBJgAE2ACTIAJuCHAQsUNNT6HCTABJsAEmAATSAoBFipJwcyFMAEmwASYABNgAm4IsFBxQ43PYQJMgAkwASbABJJCgIVKUjBzIUyACTABJsAEmIAbAixU3FDjc5gAE2ACTIAJMIGkEGChkhTMXAgTYAJMgAkwASbghgALFTfU+BwmwASYABNgAkwgKQRYqCQFMxfCBJgAE2ACTIAJuCHAQsUNNT6HCTABJsAEmAATSAoBFipJwcyFMAEmwASYABNgAm4IsFBxQ43PYQJMgAkwASbABJJCgIVKUjBzIUyACTABJsAEmIAbAixU3FDjc5gAE2ACTIAJMIGkEGChkhTMXAgTYAJMgAkwASbghgALFTfU+BwmwASYABNgAkwgKQRYqCQFMxfCBJgAE2ACTIAJuCHAQsUNNT6HCTABJsAEmAATSAoBFipJwcyFMAEmwASYABNgAm4IsFBxQ43PYQJMgAkwASbABJJCgIVKUjBzIUyACTABJsAEmIAbAixU3FDjc5gAE2ACTIAJMIGkEGChkhTMXAgTYAJMgAkwASbghgALFTfU+BwmwASYABNgAkwgKQRYqCQFMxfCBJgAE2ACTIAJuCHAQsUNNT6HCTABJsAEmAATSAoBFipJwcyFMAEmwASYABNgAm4IsFBxQ43PYQJMgAkwASbABJJCgIVKUjBzIUyACTABJsAEmIAbAixU3FDjc5gAE2ACTIAJMIGkEGChkhTMXAgTYAJMgAkwASbghgALFTfU+BwmwASYABNgAkwgKQRYqCQFMxfCBJgAE2ACTIAJuCHAQsUNNT6HCTABJsAEmAATSAoBFipJwcyFMAEmwASYABNgAm4IsFBxQ43PYQJMgAkwASbABJJCgIVKUjBzIUyACTABJsAEmIAbAixU3FDjc5gAE2ACTIAJMIGkEGChkhTMXAgTYAJMgAkwASbghgALFTfU+BwmwASYABNgAkwgKQRYqCQFMxfCBJgAE2ACTIAJuCHAQsUNNT6HCTABJsAEmAATSAoBFipJwcyFMAEmwASYABNgAm4IsFBxQ43PYQJMgAkwASbABJJCgIVKUjBzIUyACTABJsAEmIAbAixU3FDjc5gAE2ACTIAJMIGkEGChkhTMXAgTYAJMgAkwASbghgALFTfU+BwmwASYABNgAkwgKQRYqCQFMxfCBJgAE2ACTIAJuCHAQsUNNT6HCTABJsAEmAATSAoBFipJwcyFMAEmwASYABNgAm4IsFBxQ43PYQJMgAkwASbABJJCgIVKUjBzIUyACTABJsAEmIAbAixU3FDjc5gAE2ACTIAJMIGkEGChkhTMXAgTYAJMgAkwASbghgALFTfU+BwmwASYABNgAkwgKQRYqCQFMxfCBJgAE2ACTIAJuCHAQsUNNT6HCTABJsAEmAATSAoBFipJwcyFMAEmwASYABNgAm4IsFBxQ43PYQJMgAkwASbABJJCgIVKUjBzIUyACTABJsAEmIAbAixU3FDjc5gAE2ACTIAJMIGkEGChkhTMXAgTYAJMgAkwASbghgALFTfU+BwmwASYABNgAkwgKQRYqCQFMxfCBJgAE2ACTIAJuCHAQsUNNT6HCTABJsAEmAATSAoBFipJwcyFMAEmwASYABNgAm4IsFBxQ43PYQJMgAkwASbABJJCgIVKUjBzIUyACTABJsAEmIAbAixU3FDjc5gAE2ACTIAJMIGkEPj/Vo6nYA+obScAAAAASUVORK5CYII=;" vertex="1" parent="1">
          <mxGeometry x="-60" y="120" width="171.82" height="140" as="geometry" />
        </mxCell>
      </root>
    </mxGraphModel>
  </diagram>
</mxfile>
